%TF.GenerationSoftware,KiCad,Pcbnew,8.0.5*%
%TF.CreationDate,2024-10-06T12:55:08+01:00*%
%TF.ProjectId,Gotek,476f7465-6b2e-46b6-9963-61645f706362,rev?*%
%TF.SameCoordinates,Original*%
%TF.FileFunction,Copper,L2,Bot*%
%TF.FilePolarity,Positive*%
%FSLAX46Y46*%
G04 Gerber Fmt 4.6, Leading zero omitted, Abs format (unit mm)*
G04 Created by KiCad (PCBNEW 8.0.5) date 2024-10-06 12:55:08*
%MOMM*%
%LPD*%
G01*
G04 APERTURE LIST*
%TA.AperFunction,ComponentPad*%
%ADD10R,1.500000X1.600000*%
%TD*%
%TA.AperFunction,ComponentPad*%
%ADD11C,1.600000*%
%TD*%
%TA.AperFunction,ComponentPad*%
%ADD12C,3.000000*%
%TD*%
%TA.AperFunction,ComponentPad*%
%ADD13C,5.000000*%
%TD*%
%TA.AperFunction,ComponentPad*%
%ADD14R,1.700000X1.700000*%
%TD*%
%TA.AperFunction,ComponentPad*%
%ADD15O,1.700000X1.700000*%
%TD*%
%TA.AperFunction,ComponentPad*%
%ADD16R,1.600000X1.600000*%
%TD*%
%TA.AperFunction,ComponentPad*%
%ADD17C,1.575000*%
%TD*%
%TA.AperFunction,ComponentPad*%
%ADD18C,2.025000*%
%TD*%
%TA.AperFunction,ComponentPad*%
%ADD19C,1.500000*%
%TD*%
%TA.AperFunction,ViaPad*%
%ADD20C,0.600000*%
%TD*%
%TA.AperFunction,Conductor*%
%ADD21C,0.200000*%
%TD*%
G04 APERTURE END LIST*
D10*
%TO.P,P3,1,VBUS*%
%TO.N,5V*%
X196706525Y-88456650D03*
D11*
%TO.P,P3,2,D-*%
%TO.N,Net-(P3-D-)*%
X196706525Y-85956650D03*
%TO.P,P3,3,D+*%
%TO.N,Net-(P3-D+)*%
X196706525Y-83956650D03*
%TO.P,P3,4,GND*%
%TO.N,GND*%
X196706525Y-81456650D03*
D12*
%TO.P,P3,5,Shield*%
X199416525Y-91526650D03*
X199416525Y-78386650D03*
%TD*%
D13*
%TO.P,H1,1,1*%
%TO.N,GND*%
X118491000Y-60642500D03*
%TD*%
%TO.P,H2,1,1*%
%TO.N,GND*%
X139573000Y-60642500D03*
%TD*%
%TO.P,H3,1,1*%
%TO.N,GND*%
X118491000Y-110363000D03*
%TD*%
%TO.P,H4,1,1*%
%TO.N,GND*%
X139573000Y-110363000D03*
%TD*%
%TO.P,H5,1,1*%
%TO.N,GND*%
X189357000Y-60642500D03*
%TD*%
D14*
%TO.P,J10,1,Pin_1*%
%TO.N,GND*%
X105038525Y-69713475D03*
D15*
%TO.P,J10,2,Pin_2*%
%TO.N,5V*%
X105038525Y-67173475D03*
%TO.P,J10,3,Pin_3*%
%TO.N,SWCLK*%
X105038525Y-64633475D03*
%TO.P,J10,4,Pin_4*%
%TO.N,SWDIO*%
X105038525Y-62093475D03*
%TD*%
D14*
%TO.P,J7,1,Pin_1*%
%TO.N,/I2C2_CLK*%
X147653375Y-95653700D03*
D15*
%TO.P,J7,2,Pin_2*%
%TO.N,/I2C2_DTA*%
X147653375Y-98193700D03*
%TO.P,J7,3,Pin_3*%
%TO.N,GND*%
X147653375Y-100733700D03*
%TO.P,J7,4,Pin_4*%
%TO.N,+3.3V*%
X147653375Y-103273700D03*
%TD*%
D16*
%TO.P,C1,1*%
%TO.N,5V*%
X187333138Y-91535250D03*
D11*
%TO.P,C1,2*%
%TO.N,GND*%
X184833138Y-91535250D03*
%TD*%
D17*
%TO.P,S4,1,1*%
%TO.N,GND*%
X202485625Y-70133600D03*
%TO.P,S4,2,2*%
%TO.N,BUT_R*%
X202485625Y-65633600D03*
D18*
%TO.P,S4,3,3*%
%TO.N,GND*%
X199985625Y-71383600D03*
%TO.P,S4,4,4*%
X199985625Y-64383600D03*
%TD*%
D16*
%TO.P,C17,1*%
%TO.N,+3.3V*%
X139304913Y-68164075D03*
D11*
%TO.P,C17,2*%
%TO.N,GND*%
X136804913Y-68164075D03*
%TD*%
D17*
%TO.P,S3,1,1*%
%TO.N,GND*%
X202345925Y-62915800D03*
%TO.P,S3,2,2*%
%TO.N,BUT_L*%
X202345925Y-58415800D03*
D18*
%TO.P,S3,3,3*%
%TO.N,GND*%
X199845925Y-64165800D03*
%TO.P,S3,4,4*%
X199845925Y-57165800D03*
%TD*%
D14*
%TO.P,JD1,1,Pin_1*%
%TO.N,GND*%
X99568000Y-64465200D03*
D15*
%TO.P,JD1,2,Pin_2*%
%TO.N,DINST*%
X99568000Y-61925200D03*
%TD*%
D14*
%TO.P,MO1,1,Pin_1*%
%TO.N,DRVSEL*%
X99456875Y-72002650D03*
D15*
%TO.P,MO1,2,Pin_2*%
%TO.N,SEL*%
X99456875Y-69462650D03*
%TO.P,MO1,3,Pin_3*%
%TO.N,MTRON*%
X99456875Y-66922650D03*
%TD*%
D14*
%TO.P,J3,1,Pin_1*%
%TO.N,J3_BOOT0*%
X107664250Y-59467750D03*
D15*
%TO.P,J3,2,Pin_2*%
%TO.N,+3.3V*%
X107664250Y-62007750D03*
%TO.P,J3,3,Pin_3*%
%TO.N,USART1_TX*%
X107664250Y-64547750D03*
%TD*%
D14*
%TO.P,JE1,1,Pin_1*%
%TO.N,GND*%
X99456875Y-59356625D03*
D15*
%TO.P,JE1,2,Pin_2*%
%TO.N,HDOUT*%
X99456875Y-56816625D03*
%TD*%
D19*
%TO.P,Y1,1,1*%
%TO.N,Net-(U3-HEXT_OUT{slash}PD1)*%
X153800175Y-73233450D03*
%TO.P,Y1,2,2*%
%TO.N,Net-(U3-HEXT_IN{slash}PD0)*%
X153800175Y-68333450D03*
%TD*%
D14*
%TO.P,J4,1,Pin_1*%
%TO.N,USART1_RX*%
X107607100Y-67016075D03*
D15*
%TO.P,J4,2,Pin_2*%
%TO.N,NRST*%
X107607100Y-69556075D03*
%TD*%
D16*
%TO.P,C19,1*%
%TO.N,5V*%
X126017025Y-67227450D03*
D11*
%TO.P,C19,2*%
%TO.N,GND*%
X123517025Y-67227450D03*
%TD*%
D20*
%TO.N,GND*%
X165119050Y-63296800D03*
X168328975Y-74114025D03*
X142579725Y-66192400D03*
X110874175Y-63750825D03*
X110817025Y-65592325D03*
X111210725Y-60121800D03*
X130470275Y-90322400D03*
X111280575Y-68602225D03*
X108051600Y-83461225D03*
X116979700Y-72869425D03*
X109658150Y-74177525D03*
X125739525Y-75339575D03*
X150060025Y-78374875D03*
X139001500Y-79984600D03*
X145034000Y-74015600D03*
X167941625Y-77333475D03*
X162744150Y-78600300D03*
X184896125Y-72647175D03*
X182537100Y-66995675D03*
X175056800Y-82476975D03*
X161036000Y-85975825D03*
%TO.N,NRST*%
X142805150Y-72072500D03*
%TO.N,+3.3V*%
X151491950Y-88855550D03*
X171118212Y-85602763D03*
X154600275Y-88820625D03*
X115554125Y-64303275D03*
%TO.N,J3_BOOT0*%
X121751725Y-68411725D03*
X163909375Y-63890525D03*
%TO.N,USART1_TX*%
X177638075Y-78057375D03*
%TO.N,USART1_RX*%
X176069625Y-77263625D03*
%TO.N,/I2C2_DTA*%
X167582850Y-90049350D03*
X189344300Y-76136500D03*
%TO.N,SWDIO*%
X179403375Y-76003150D03*
%TO.N,SWCLK*%
X167001825Y-62960250D03*
%TO.N,DINST*%
X109299375Y-90389075D03*
%TO.N,SEL*%
X151666575Y-86868000D03*
X121561225Y-105724325D03*
%TO.N,DIR*%
X117059075Y-91618051D03*
X166849425Y-87188675D03*
%TO.N,DRVSEL*%
X105225850Y-82461100D03*
%TO.N,DSKCHG*%
X116220875Y-78609825D03*
X132102225Y-91424125D03*
%TO.N,READY*%
X127892175Y-88122125D03*
X116055775Y-81232375D03*
%TO.N,RA*%
X174301150Y-67986275D03*
X169532300Y-78946375D03*
%TO.N,RB*%
X163271200Y-79403575D03*
X172132625Y-64573150D03*
%TO.N,RC*%
X166096950Y-81079975D03*
X173358175Y-65836800D03*
%TO.N,SPI2_SS*%
X173170850Y-85293200D03*
X173170850Y-88128475D03*
%TO.N,SPI2_MISO*%
X174755175Y-89662000D03*
X181733825Y-89662000D03*
%TO.N,WPROT_3V3*%
X166960550Y-68929250D03*
X142484475Y-87366475D03*
%TO.N,HDOUT*%
X110807500Y-88618050D03*
%TO.N,SEL*%
X188280675Y-77301725D03*
X157111700Y-81562575D03*
%TO.N,MTRON*%
X106118025Y-89550875D03*
%TO.N,STEP*%
X115439825Y-93322900D03*
X155924250Y-84458175D03*
%TO.N,WGATE*%
X113934875Y-96326450D03*
X164922200Y-75491975D03*
%TO.N,INDEX*%
X116614575Y-75638025D03*
X125152150Y-79844900D03*
%TO.N,WPROT*%
X124898150Y-84664550D03*
X114827050Y-99377500D03*
%TO.N,RDATA*%
X130273425Y-98263075D03*
X116055775Y-100466525D03*
%TO.N,TRK0*%
X109467650Y-97326450D03*
X124841000Y-81930875D03*
%TO.N,SIDE1*%
X110696375Y-101777800D03*
X168998900Y-67856100D03*
%TO.N,WDATA*%
X168776650Y-76038075D03*
X112817275Y-94630875D03*
%TO.N,BUT_L*%
X182308500Y-85477350D03*
%TO.N,BUT_R*%
X184035700Y-85413850D03*
%TO.N,INDEX_3V3*%
X142135225Y-83216750D03*
X162579050Y-68097400D03*
%TO.N,DSKCHG_3V3*%
X149564725Y-81000600D03*
X165094600Y-67177600D03*
%TO.N,TRK0_3V3*%
X167281225Y-66909950D03*
X144649825Y-81530825D03*
%TO.N,READY_3V3*%
X149367875Y-83038950D03*
X168786175Y-70240525D03*
%TD*%
D21*
%TO.N,SIDE1*%
X108073825Y-99009200D02*
X110696375Y-101631750D01*
X108073825Y-93643450D02*
X108073825Y-99009200D01*
X112782350Y-77939900D02*
X112715675Y-77939900D01*
X115785900Y-74936350D02*
X112782350Y-77939900D01*
X115925600Y-74971275D02*
X115890675Y-74936350D01*
X121437400Y-74971275D02*
X115925600Y-74971275D01*
X125136275Y-78460600D02*
X125031500Y-78565375D01*
X125031500Y-78565375D02*
X121437400Y-74971275D01*
X154111375Y-65639900D02*
X147535900Y-72215375D01*
X147535900Y-72215375D02*
X145199100Y-72215375D01*
X110696375Y-101631750D02*
X110696375Y-101777800D01*
X167233550Y-65639900D02*
X154111375Y-65639900D01*
X112715675Y-89001600D02*
X108073825Y-93643450D01*
X138953875Y-78460600D02*
X125136275Y-78460600D01*
X168998900Y-67405250D02*
X167233550Y-65639900D01*
X168998900Y-67856100D02*
X168998900Y-67405250D01*
X112715675Y-77939900D02*
X112715675Y-89001600D01*
X145199100Y-72215375D02*
X138953875Y-78460600D01*
X115890675Y-74936350D02*
X115785900Y-74936350D01*
%TO.N,SEL*%
X98306875Y-94234650D02*
X98306875Y-70612650D01*
X98304350Y-94649925D02*
X98304350Y-94237175D01*
X109547025Y-105892600D02*
X98304350Y-94649925D01*
X98304350Y-94237175D02*
X98306875Y-94234650D01*
X109715300Y-105724325D02*
X109547025Y-105892600D01*
X121561225Y-105724325D02*
X109715300Y-105724325D01*
X98306875Y-70612650D02*
X99456875Y-69462650D01*
%TO.N,SWDIO*%
X105038525Y-59793475D02*
X105038525Y-62093475D01*
X106514250Y-58317750D02*
X105038525Y-59793475D01*
X111206900Y-58317750D02*
X106514250Y-58317750D01*
X117217825Y-64328675D02*
X111206900Y-58317750D01*
X147593585Y-61455300D02*
X144720210Y-64328675D01*
X144720210Y-64328675D02*
X117217825Y-64328675D01*
X169583175Y-63560250D02*
X166535025Y-63560250D01*
X175021875Y-62134750D02*
X171008675Y-62134750D01*
X171008675Y-62134750D02*
X169583175Y-63560250D01*
X178231800Y-65344675D02*
X175021875Y-62134750D01*
X164430075Y-61455300D02*
X147593585Y-61455300D01*
X178231800Y-74831575D02*
X178231800Y-65344675D01*
X166535025Y-63560250D02*
X164430075Y-61455300D01*
X179403375Y-76003150D02*
X178231800Y-74831575D01*
%TO.N,SWCLK*%
X103828850Y-63423800D02*
X105038525Y-64633475D01*
X103828850Y-60437464D02*
X103828850Y-63423800D01*
X106348564Y-57917750D02*
X103828850Y-60437464D01*
X144205275Y-63928675D02*
X117817377Y-63928675D01*
X147126325Y-61007625D02*
X144205275Y-63928675D01*
X164871400Y-61007625D02*
X147126325Y-61007625D01*
X117817377Y-63928675D02*
X111806452Y-57917750D01*
X166824025Y-62960250D02*
X164871400Y-61007625D01*
X167001825Y-62960250D02*
X166824025Y-62960250D01*
X111806452Y-57917750D02*
X106348564Y-57917750D01*
%TO.N,J3_BOOT0*%
X121751725Y-68481575D02*
X121751725Y-68411725D01*
X139595225Y-71901050D02*
X125171200Y-71901050D01*
X148021675Y-63474600D02*
X139595225Y-71901050D01*
X163909375Y-63890525D02*
X163493450Y-63474600D01*
X125171200Y-71901050D02*
X121751725Y-68481575D01*
X163493450Y-63474600D02*
X148021675Y-63474600D01*
%TO.N,USART1_TX*%
X175158985Y-63233350D02*
X177638075Y-65712440D01*
X170779489Y-63233350D02*
X175158985Y-63233350D01*
X169242789Y-64770050D02*
X170779489Y-63233350D01*
X147631100Y-64770050D02*
X169242789Y-64770050D01*
X139731750Y-72669400D02*
X147631100Y-64770050D01*
X124815600Y-72669400D02*
X139731750Y-72669400D01*
X117382925Y-70088125D02*
X122269250Y-70088125D01*
X124815600Y-72634475D02*
X124815600Y-72669400D01*
X117103525Y-69948425D02*
X117243225Y-69948425D01*
X117243225Y-69948425D02*
X117382925Y-70088125D01*
X111702850Y-64547750D02*
X117103525Y-69948425D01*
X122269250Y-70088125D02*
X124815600Y-72634475D01*
X177638075Y-65712440D02*
X177638075Y-78057375D01*
X107664250Y-64547750D02*
X111702850Y-64547750D01*
%TO.N,USART1_RX*%
X121913650Y-70542150D02*
X116719350Y-70542150D01*
X121948575Y-70577075D02*
X121913650Y-70542150D01*
X121948575Y-70681850D02*
X121948575Y-70577075D01*
X113193275Y-67016075D02*
X107607100Y-67016075D01*
X124564775Y-73298050D02*
X121948575Y-70681850D01*
X139814300Y-73298050D02*
X124564775Y-73298050D01*
X147872450Y-65239900D02*
X139814300Y-73298050D01*
X169621200Y-65239900D02*
X147872450Y-65239900D01*
X169621200Y-64957325D02*
X169621200Y-65239900D01*
X170980100Y-63703200D02*
X170875325Y-63703200D01*
X116719350Y-70542150D02*
X113193275Y-67016075D01*
X171049950Y-63633350D02*
X170980100Y-63703200D01*
X174713900Y-63633350D02*
X171049950Y-63633350D01*
X177085625Y-76247625D02*
X177085625Y-65725675D01*
X177085625Y-65725675D02*
X176806225Y-65725675D01*
X176069625Y-77263625D02*
X177085625Y-76247625D01*
X176806225Y-65725675D02*
X174713900Y-63633350D01*
X170875325Y-63703200D02*
X169621200Y-64957325D01*
%TO.N,+3.3V*%
X115681125Y-64430275D02*
X115554125Y-64303275D01*
X136155313Y-64817625D02*
X115681125Y-64817625D01*
X115681125Y-64817625D02*
X115681125Y-64430275D01*
X139304913Y-68164075D02*
X139304913Y-67967225D01*
X139304913Y-67967225D02*
X136155313Y-64817625D01*
%TO.N,GND*%
X124958425Y-74558475D02*
X125739525Y-75339575D01*
X118668750Y-74558475D02*
X124958425Y-74558475D01*
X116979700Y-72869425D02*
X118668750Y-74558475D01*
X117001925Y-72675750D02*
X117001925Y-72847200D01*
X117001925Y-72847200D02*
X116979700Y-72869425D01*
X115500150Y-74177525D02*
X117001925Y-72675750D01*
X109658150Y-74177525D02*
X115500150Y-74177525D01*
X124617025Y-66127450D02*
X123517025Y-67227450D01*
X134768288Y-66127450D02*
X124617025Y-66127450D01*
X136804913Y-68164075D02*
X134768288Y-66127450D01*
X150060025Y-78374875D02*
X149393275Y-78374875D01*
X149393275Y-78374875D02*
X145034000Y-74015600D01*
X144970500Y-74015600D02*
X139001500Y-79984600D01*
X145034000Y-74015600D02*
X144970500Y-74015600D01*
X166674800Y-78600300D02*
X167941625Y-77333475D01*
X162744150Y-78600300D02*
X166674800Y-78600300D01*
X162090100Y-79254350D02*
X162744150Y-78600300D01*
X162090100Y-82476975D02*
X162090100Y-79254350D01*
X184896125Y-69354700D02*
X184896125Y-72647175D01*
X182537100Y-66995675D02*
X184896125Y-69354700D01*
X118491000Y-110363000D02*
X139573000Y-110363000D01*
%TO.N,SEL*%
X151739600Y-86941025D02*
X151666575Y-86868000D01*
X155035250Y-86941025D02*
X151739600Y-86941025D01*
%TO.N,WPROT_3V3*%
X146923660Y-87366475D02*
X142484475Y-87366475D01*
X164741225Y-69576950D02*
X151206200Y-83111975D01*
X151206200Y-83111975D02*
X151192180Y-83097955D01*
X166960550Y-68929250D02*
X166312850Y-69576950D01*
X166312850Y-69576950D02*
X164741225Y-69576950D01*
X151192180Y-83097955D02*
X146923660Y-87366475D01*
%TO.N,BUT_L*%
X182308500Y-85264625D02*
X182308500Y-85477350D01*
X183099075Y-84474050D02*
X182308500Y-85264625D01*
X196240400Y-64750950D02*
X196240400Y-76739750D01*
X196240400Y-76739750D02*
X188506100Y-84474050D01*
X188506100Y-84474050D02*
X183099075Y-84474050D01*
X202345925Y-58415800D02*
X202345925Y-58645425D01*
X202345925Y-58645425D02*
X196240400Y-64750950D01*
%TO.N,BUT_R*%
X184213500Y-85591650D02*
X184035700Y-85413850D01*
X196869050Y-71694675D02*
X196869050Y-77577950D01*
X202485625Y-66078100D02*
X196869050Y-71694675D01*
X188855350Y-85591650D02*
X184213500Y-85591650D01*
X202485625Y-65633600D02*
X202485625Y-66078100D01*
X196869050Y-77577950D02*
X188855350Y-85591650D01*
%TO.N,GND*%
X199416525Y-78386650D02*
X199416525Y-91526650D01*
X199985625Y-78177550D02*
X196706525Y-81456650D01*
X199985625Y-71383600D02*
X199985625Y-78177550D01*
X203573125Y-69046100D02*
X202485625Y-70133600D01*
X203573125Y-64143000D02*
X203573125Y-69046100D01*
X202345925Y-62915800D02*
X203573125Y-64143000D01*
X203433425Y-62310900D02*
X203433425Y-57965342D01*
X202828525Y-62915800D02*
X203433425Y-62310900D01*
X203433425Y-57965342D02*
X202633883Y-57165800D01*
X202633883Y-57165800D02*
X199845925Y-57165800D01*
X202345925Y-62915800D02*
X202828525Y-62915800D01*
X200878125Y-64383600D02*
X199985625Y-64383600D01*
X202345925Y-62915800D02*
X200878125Y-64383600D01*
%TO.N,SEL*%
X157111700Y-84864575D02*
X157111700Y-81562575D01*
X155035250Y-86941025D02*
X157111700Y-84864575D01*
X156168725Y-88265000D02*
X155035250Y-87131525D01*
X167071675Y-84461350D02*
X163268025Y-88265000D01*
X163268025Y-88265000D02*
X156168725Y-88265000D01*
X176526825Y-84461350D02*
X167071675Y-84461350D01*
X183686450Y-77301725D02*
X176526825Y-84461350D01*
X188280675Y-77301725D02*
X183686450Y-77301725D01*
X155035250Y-87131525D02*
X155035250Y-86941025D01*
%TO.N,GND*%
X162090100Y-82476975D02*
X161036000Y-83531075D01*
X175056800Y-82476975D02*
X162090100Y-82476975D01*
X161036000Y-83531075D02*
X161036000Y-85975825D01*
%TO.N,NRST*%
X109104350Y-71053325D02*
X107607100Y-69556075D01*
X123199525Y-74158475D02*
X123094750Y-74053700D01*
X140719175Y-74158475D02*
X123199525Y-74158475D01*
X142805150Y-72072500D02*
X140719175Y-74158475D01*
X120303925Y-71262875D02*
X120094375Y-71053325D01*
X120408700Y-71262875D02*
X120303925Y-71262875D01*
X120094375Y-71053325D02*
X109104350Y-71053325D01*
X123094750Y-74053700D02*
X123094750Y-73948925D01*
X123094750Y-73948925D02*
X120408700Y-71262875D01*
%TO.N,+3.3V*%
X154905125Y-88699925D02*
X154619325Y-88985725D01*
X163706225Y-88699925D02*
X154905125Y-88699925D01*
X170849925Y-85871050D02*
X166535100Y-85871050D01*
X154619325Y-88839675D02*
X154600275Y-88820625D01*
X171118212Y-85602763D02*
X170849925Y-85871050D01*
X154600275Y-88820625D02*
X151526875Y-88820625D01*
X166535100Y-85871050D02*
X163706225Y-88699925D01*
X151526875Y-88820625D02*
X151491950Y-88855550D01*
X154619325Y-88985725D02*
X154619325Y-88839675D01*
%TO.N,J3_BOOT0*%
X108740575Y-59829700D02*
X108635800Y-59829700D01*
X117322600Y-68411725D02*
X108740575Y-59829700D01*
X108635800Y-59829700D02*
X108273850Y-59467750D01*
X108273850Y-59467750D02*
X107664250Y-59467750D01*
X121751725Y-68411725D02*
X117322600Y-68411725D01*
%TO.N,/I2C2_DTA*%
X172027850Y-90709750D02*
X168049575Y-90709750D01*
X184137300Y-78600300D02*
X172027850Y-90709750D01*
X189017275Y-78600300D02*
X184137300Y-78600300D01*
X189344300Y-76136500D02*
X189506225Y-76298425D01*
X167582850Y-90243025D02*
X167582850Y-90049350D01*
X189506225Y-78111350D02*
X189017275Y-78600300D01*
X189506225Y-76298425D02*
X189506225Y-78111350D01*
X168049575Y-90709750D02*
X167582850Y-90243025D01*
%TO.N,DINST*%
X109299375Y-78682850D02*
X102063550Y-71447025D01*
X109299375Y-90389075D02*
X109299375Y-78682850D01*
X102063550Y-71447025D02*
X102063550Y-64420750D01*
X102063550Y-64420750D02*
X99568000Y-61925200D01*
%TO.N,DIR*%
X123291600Y-94675325D02*
X120234326Y-91618051D01*
X164023675Y-90166825D02*
X142636875Y-90166825D01*
X120234326Y-91618051D02*
X117059075Y-91618051D01*
X166849425Y-87188675D02*
X166849425Y-87341075D01*
X166849425Y-87341075D02*
X164023675Y-90166825D01*
X142636875Y-90166825D02*
X140698538Y-92105163D01*
X140698538Y-92105163D02*
X138128375Y-94675325D01*
X138128375Y-94675325D02*
X123291600Y-94675325D01*
%TO.N,DRVSEL*%
X105225850Y-77343000D02*
X99885500Y-72002650D01*
X99885500Y-72002650D02*
X99456875Y-72002650D01*
X105225850Y-82461100D02*
X105225850Y-77343000D01*
%TO.N,DSKCHG*%
X132102225Y-89677875D02*
X132130800Y-89649300D01*
X116465350Y-78520925D02*
X116465350Y-78381225D01*
X116449475Y-78381225D02*
X116220875Y-78609825D01*
X124488575Y-86544150D02*
X116465350Y-78520925D01*
X116465350Y-78381225D02*
X116449475Y-78381225D01*
X128920875Y-86439375D02*
X124593350Y-86439375D01*
X124593350Y-86439375D02*
X124488575Y-86544150D01*
X132102225Y-91424125D02*
X132102225Y-89677875D01*
X132130800Y-89649300D02*
X128920875Y-86439375D01*
%TO.N,READY*%
X127892175Y-88122125D02*
X127847725Y-88077675D01*
X122901075Y-88077675D02*
X116055775Y-81232375D01*
X127847725Y-88077675D02*
X122901075Y-88077675D01*
%TO.N,RA*%
X171764325Y-70523100D02*
X174301150Y-67986275D01*
X169532300Y-78946375D02*
X169532300Y-78838425D01*
X171764325Y-76606400D02*
X171764325Y-70523100D01*
X169532300Y-78838425D02*
X171764325Y-76606400D01*
%TO.N,RB*%
X170491150Y-75634850D02*
X166931975Y-79194025D01*
X166931975Y-79194025D02*
X166931975Y-79333725D01*
X172132625Y-64573150D02*
X170491150Y-66214625D01*
X163341050Y-79333725D02*
X163271200Y-79403575D01*
X170491150Y-66214625D02*
X170491150Y-75634850D01*
X166931975Y-79333725D02*
X163341050Y-79333725D01*
%TO.N,RC*%
X171119800Y-76057125D02*
X166096950Y-81079975D01*
X171119800Y-68075175D02*
X171119800Y-76057125D01*
X173358175Y-65836800D02*
X171119800Y-68075175D01*
%TO.N,SPI2_SS*%
X173170850Y-88128475D02*
X173170850Y-85293200D01*
%TO.N,SPI2_MISO*%
X174755175Y-89662000D02*
X181733825Y-89662000D01*
%TO.N,WPROT_3V3*%
X142484475Y-87366475D02*
X142414625Y-87436325D01*
%TO.N,HDOUT*%
X103124000Y-60483750D02*
X99456875Y-56816625D01*
X110807500Y-79124175D02*
X103124000Y-71440675D01*
X103124000Y-71440675D02*
X103124000Y-60483750D01*
X110807500Y-88618050D02*
X110807500Y-79124175D01*
%TO.N,MTRON*%
X106118025Y-89550875D02*
X106864150Y-88804750D01*
X106864150Y-77755750D02*
X101447600Y-72339200D01*
X101447600Y-72339200D02*
X101447600Y-68913375D01*
X106864150Y-88804750D02*
X106864150Y-77755750D01*
X101447600Y-68913375D02*
X99456875Y-66922650D01*
%TO.N,STEP*%
X154800300Y-85728175D02*
X154670125Y-85728175D01*
X155924250Y-84458175D02*
X155924250Y-84604225D01*
X115785900Y-92976825D02*
X115439825Y-93322900D01*
X147583525Y-89636600D02*
X142494000Y-89636600D01*
X142494000Y-89636600D02*
X138007725Y-94122875D01*
X151364950Y-85750400D02*
X147583525Y-89531825D01*
X115785900Y-90817700D02*
X115785900Y-92976825D01*
X118833900Y-89398475D02*
X117205125Y-89398475D01*
X123558300Y-94122875D02*
X118833900Y-89398475D01*
X117205125Y-89398475D02*
X115785900Y-90817700D01*
X155924250Y-84604225D02*
X154800300Y-85728175D01*
X147583525Y-89531825D02*
X147583525Y-89636600D01*
X154670125Y-85728175D02*
X154647900Y-85750400D01*
X154647900Y-85750400D02*
X151364950Y-85750400D01*
X138007725Y-94122875D02*
X123558300Y-94122875D01*
%TO.N,WGATE*%
X146589750Y-89122250D02*
X159334200Y-76377800D01*
X137448925Y-93608525D02*
X141935200Y-89122250D01*
X113934875Y-96326450D02*
X113934875Y-91830525D01*
X124910850Y-93608525D02*
X137448925Y-93608525D01*
X159334200Y-76377800D02*
X164052250Y-76377800D01*
X124910850Y-93414850D02*
X124910850Y-93608525D01*
X164052250Y-76377800D02*
X164922200Y-75507850D01*
X164922200Y-75507850D02*
X164922200Y-75491975D01*
X120494475Y-88998475D02*
X124910850Y-93414850D01*
X116766925Y-88998475D02*
X120494475Y-88998475D01*
X113934875Y-91830525D02*
X116766925Y-88998475D01*
X141935200Y-89122250D02*
X146589750Y-89122250D01*
%TO.N,INDEX*%
X116614575Y-75638025D02*
X121119900Y-75638025D01*
X125152150Y-79670275D02*
X125152150Y-79844900D01*
X121348500Y-75866625D02*
X125152150Y-79670275D01*
X125152150Y-79984600D02*
X125152150Y-79844900D01*
X121119900Y-75638025D02*
X121348500Y-75866625D01*
%TO.N,WPROT*%
X111598075Y-91440000D02*
X111598075Y-95856425D01*
X114827050Y-99377500D02*
X114601625Y-99152075D01*
X113623725Y-89417525D02*
X111601250Y-91440000D01*
X111598075Y-95856425D02*
X114827050Y-99085400D01*
X114827050Y-99085400D02*
X114827050Y-99377500D01*
X124885450Y-84664550D02*
X117636925Y-77416025D01*
X115506500Y-77241400D02*
X113693575Y-79054325D01*
X113658650Y-79054325D02*
X113658650Y-89277825D01*
X113658650Y-89277825D02*
X113623725Y-89312750D01*
X117636925Y-77416025D02*
X117532150Y-77416025D01*
X117357525Y-77241400D02*
X115506500Y-77241400D01*
X124898150Y-84664550D02*
X124885450Y-84664550D01*
X111601250Y-91440000D02*
X111598075Y-91440000D01*
X117532150Y-77416025D02*
X117357525Y-77241400D01*
X113693575Y-79054325D02*
X113658650Y-79054325D01*
X113623725Y-89312750D02*
X113623725Y-89417525D01*
%TO.N,RDATA*%
X116055775Y-100466525D02*
X116278025Y-100466525D01*
X130133725Y-98402775D02*
X130273425Y-98263075D01*
X116278025Y-100466525D02*
X118341775Y-98402775D01*
X118341775Y-98402775D02*
X130133725Y-98402775D01*
%TO.N,TRK0*%
X115122325Y-76857225D02*
X115122325Y-76787375D01*
X124841000Y-81514950D02*
X124841000Y-81930875D01*
X119694325Y-76787375D02*
X119903875Y-76577825D01*
X109467650Y-92815311D02*
X113204625Y-89078336D01*
X119903875Y-76577825D02*
X124841000Y-81514950D01*
X109467650Y-97326450D02*
X109467650Y-92815311D01*
X113204625Y-89078336D02*
X113204625Y-78774925D01*
X115122325Y-76787375D02*
X119694325Y-76787375D01*
X113204625Y-78774925D02*
X115122325Y-76857225D01*
%TO.N,WDATA*%
X163296600Y-74749025D02*
X163296600Y-74364850D01*
X121186575Y-88318975D02*
X121256425Y-88249125D01*
X159111950Y-75933300D02*
X162112325Y-75933300D01*
X168668700Y-76038075D02*
X168776650Y-76038075D01*
X121256425Y-88249125D02*
X125545850Y-92538550D01*
X163296600Y-74364850D02*
X166995475Y-74364850D01*
X125545850Y-92538550D02*
X125545850Y-92716350D01*
X116789200Y-88318975D02*
X121186575Y-88318975D01*
X162112325Y-75933300D02*
X163296600Y-74749025D01*
X112817275Y-92290900D02*
X116789200Y-88318975D01*
X147078775Y-87966475D02*
X159111950Y-75933300D01*
X166995475Y-74364850D02*
X168668700Y-76038075D01*
X141035946Y-87966475D02*
X147078775Y-87966475D01*
X112817275Y-94630875D02*
X112817275Y-92290900D01*
X136286071Y-92716350D02*
X141035946Y-87966475D01*
X125545850Y-92716350D02*
X136286071Y-92716350D01*
%TO.N,INDEX_3V3*%
X162547300Y-69606060D02*
X152156060Y-79997300D01*
X148834475Y-79997300D02*
X145729325Y-83102450D01*
X142274925Y-83102450D02*
X142249525Y-83102450D01*
X162579050Y-68097400D02*
X162547300Y-68129150D01*
X162547300Y-69494400D02*
X162547300Y-69606060D01*
X145729325Y-83102450D02*
X142274925Y-83102450D01*
X162547300Y-68129150D02*
X162547300Y-69494400D01*
X152156060Y-79997300D02*
X148834475Y-79997300D01*
X142249525Y-83102450D02*
X142135225Y-83216750D01*
%TO.N,DSKCHG_3V3*%
X151974550Y-80981550D02*
X149583775Y-80981550D01*
X149583775Y-80981550D02*
X149564725Y-81000600D01*
X165094600Y-67177600D02*
X165094600Y-67861500D01*
X165094600Y-67861500D02*
X151974550Y-80981550D01*
%TO.N,TRK0_3V3*%
X163141025Y-66214625D02*
X161639250Y-67716400D01*
X167281225Y-66909950D02*
X167255825Y-66909950D01*
X166630350Y-66284475D02*
X163210875Y-66284475D01*
X167255825Y-66909950D02*
X166630350Y-66284475D01*
X146707225Y-81426050D02*
X146602450Y-81426050D01*
X146497675Y-81530825D02*
X144649825Y-81530825D01*
X152149175Y-79403575D02*
X152149175Y-79438500D01*
X148974175Y-79438500D02*
X148694775Y-79438500D01*
X148694775Y-79438500D02*
X146707225Y-81426050D01*
X163210875Y-66284475D02*
X163141025Y-66214625D01*
X161534475Y-70018275D02*
X152149175Y-79403575D01*
X161639250Y-67716400D02*
X161569400Y-67716400D01*
X161569400Y-69983350D02*
X161534475Y-70018275D01*
X161569400Y-67716400D02*
X161569400Y-69983350D01*
X152149175Y-79438500D02*
X148974175Y-79438500D01*
X146602450Y-81426050D02*
X146497675Y-81530825D01*
%TO.N,READY_3V3*%
X166906575Y-67935475D02*
X166731950Y-68110100D01*
X150685500Y-83038950D02*
X149367875Y-83038950D01*
X165614350Y-68110100D02*
X150685500Y-83038950D01*
X168786175Y-70240525D02*
X168786175Y-69710300D01*
X167011350Y-67935475D02*
X166906575Y-67935475D01*
X168786175Y-69710300D02*
X167011350Y-67935475D01*
X166731950Y-68110100D02*
X165614350Y-68110100D01*
%TD*%
%TA.AperFunction,Conductor*%
%TO.N,GND*%
G36*
X98292538Y-55900185D02*
G01*
X98338293Y-55952989D01*
X98348237Y-56022147D01*
X98327074Y-56075621D01*
X98305887Y-56105881D01*
X98282838Y-56138798D01*
X98182973Y-56352960D01*
X98182969Y-56352969D01*
X98121813Y-56581211D01*
X98121811Y-56581221D01*
X98101216Y-56816624D01*
X98101216Y-56816625D01*
X98121811Y-57052028D01*
X98121813Y-57052038D01*
X98182969Y-57280280D01*
X98182971Y-57280284D01*
X98182972Y-57280288D01*
X98256156Y-57437231D01*
X98282840Y-57494455D01*
X98282842Y-57494459D01*
X98418376Y-57688020D01*
X98418381Y-57688027D01*
X98540693Y-57810339D01*
X98574178Y-57871662D01*
X98569194Y-57941354D01*
X98527322Y-57997287D01*
X98496346Y-58014202D01*
X98364787Y-58063271D01*
X98364781Y-58063274D01*
X98249687Y-58149434D01*
X98249684Y-58149437D01*
X98163524Y-58264531D01*
X98163520Y-58264538D01*
X98113278Y-58399245D01*
X98113276Y-58399252D01*
X98106875Y-58458780D01*
X98106875Y-59106625D01*
X99023863Y-59106625D01*
X98990950Y-59163632D01*
X98956875Y-59290799D01*
X98956875Y-59422451D01*
X98990950Y-59549618D01*
X99023863Y-59606625D01*
X98106875Y-59606625D01*
X98106875Y-60254469D01*
X98113276Y-60313997D01*
X98113278Y-60314004D01*
X98163520Y-60448711D01*
X98163524Y-60448718D01*
X98249684Y-60563812D01*
X98249687Y-60563815D01*
X98364781Y-60649975D01*
X98364788Y-60649979D01*
X98499495Y-60700221D01*
X98499502Y-60700223D01*
X98559030Y-60706624D01*
X98559047Y-60706625D01*
X98577316Y-60706625D01*
X98644355Y-60726310D01*
X98690110Y-60779114D01*
X98700054Y-60848272D01*
X98671029Y-60911828D01*
X98664997Y-60918306D01*
X98529505Y-61053797D01*
X98393965Y-61247369D01*
X98393964Y-61247371D01*
X98294098Y-61461535D01*
X98294094Y-61461544D01*
X98232938Y-61689786D01*
X98232936Y-61689796D01*
X98212341Y-61925199D01*
X98212341Y-61925200D01*
X98232936Y-62160603D01*
X98232938Y-62160613D01*
X98294094Y-62388855D01*
X98294096Y-62388859D01*
X98294097Y-62388863D01*
X98392616Y-62600138D01*
X98393965Y-62603030D01*
X98393967Y-62603034D01*
X98529501Y-62796595D01*
X98529506Y-62796602D01*
X98651818Y-62918914D01*
X98685303Y-62980237D01*
X98680319Y-63049929D01*
X98638447Y-63105862D01*
X98607471Y-63122777D01*
X98475912Y-63171846D01*
X98475906Y-63171849D01*
X98360812Y-63258009D01*
X98360809Y-63258012D01*
X98274649Y-63373106D01*
X98274645Y-63373113D01*
X98224403Y-63507820D01*
X98224401Y-63507827D01*
X98218000Y-63567355D01*
X98218000Y-64215200D01*
X99134988Y-64215200D01*
X99102075Y-64272207D01*
X99068000Y-64399374D01*
X99068000Y-64531026D01*
X99102075Y-64658193D01*
X99134988Y-64715200D01*
X98218000Y-64715200D01*
X98218000Y-65363044D01*
X98224401Y-65422572D01*
X98224403Y-65422579D01*
X98274645Y-65557286D01*
X98274649Y-65557293D01*
X98360809Y-65672387D01*
X98360812Y-65672390D01*
X98475908Y-65758552D01*
X98482635Y-65762225D01*
X98532040Y-65811630D01*
X98546892Y-65879903D01*
X98522475Y-65945368D01*
X98510890Y-65958738D01*
X98418378Y-66051250D01*
X98282840Y-66244819D01*
X98282839Y-66244821D01*
X98182973Y-66458985D01*
X98182969Y-66458994D01*
X98121813Y-66687236D01*
X98121811Y-66687246D01*
X98101216Y-66922649D01*
X98101216Y-66922650D01*
X98121811Y-67158053D01*
X98121813Y-67158063D01*
X98182969Y-67386305D01*
X98182971Y-67386309D01*
X98182972Y-67386313D01*
X98254527Y-67539763D01*
X98282840Y-67600480D01*
X98282842Y-67600484D01*
X98360462Y-67711336D01*
X98412472Y-67785614D01*
X98418376Y-67794045D01*
X98418381Y-67794052D01*
X98585472Y-67961143D01*
X98585478Y-67961148D01*
X98771033Y-68091075D01*
X98814658Y-68145652D01*
X98821852Y-68215150D01*
X98790329Y-68277505D01*
X98771033Y-68294225D01*
X98585472Y-68424155D01*
X98418380Y-68591247D01*
X98282840Y-68784819D01*
X98282839Y-68784821D01*
X98182973Y-68998985D01*
X98182969Y-68998994D01*
X98121813Y-69227236D01*
X98121811Y-69227246D01*
X98101216Y-69462649D01*
X98101216Y-69462650D01*
X98121811Y-69698053D01*
X98121813Y-69698063D01*
X98156202Y-69826406D01*
X98154539Y-69896256D01*
X98124108Y-69946180D01*
X97938161Y-70132128D01*
X97826356Y-70243932D01*
X97826354Y-70243934D01*
X97799396Y-70290628D01*
X97788001Y-70310366D01*
X97747298Y-70380865D01*
X97706374Y-70533593D01*
X97706374Y-70533595D01*
X97706374Y-70701696D01*
X97706375Y-70701709D01*
X97706375Y-94132365D01*
X97704061Y-94149947D01*
X97704910Y-94150059D01*
X97703849Y-94158119D01*
X97703849Y-94326221D01*
X97703850Y-94326234D01*
X97703850Y-94563255D01*
X97703849Y-94563273D01*
X97703849Y-94728979D01*
X97703848Y-94728979D01*
X97711039Y-94755816D01*
X97744773Y-94881710D01*
X97744774Y-94881711D01*
X97759437Y-94907110D01*
X97759438Y-94907111D01*
X97823825Y-95018634D01*
X97823831Y-95018642D01*
X97942699Y-95137510D01*
X97942705Y-95137515D01*
X109066506Y-106261316D01*
X109178309Y-106373119D01*
X109315240Y-106452177D01*
X109467968Y-106493101D01*
X109467971Y-106493101D01*
X109626079Y-106493101D01*
X109626082Y-106493101D01*
X109778810Y-106452177D01*
X109915741Y-106373119D01*
X109927716Y-106361144D01*
X109989039Y-106327659D01*
X110015397Y-106324825D01*
X120978813Y-106324825D01*
X121045852Y-106344510D01*
X121056128Y-106351880D01*
X121058961Y-106354139D01*
X121058963Y-106354141D01*
X121211703Y-106450114D01*
X121334553Y-106493101D01*
X121381970Y-106509693D01*
X121381975Y-106509694D01*
X121561221Y-106529890D01*
X121561225Y-106529890D01*
X121561229Y-106529890D01*
X121740474Y-106509694D01*
X121740477Y-106509693D01*
X121740480Y-106509693D01*
X121910747Y-106450114D01*
X122063487Y-106354141D01*
X122191041Y-106226587D01*
X122287014Y-106073847D01*
X122346593Y-105903580D01*
X122366790Y-105724325D01*
X122346593Y-105545070D01*
X122287014Y-105374803D01*
X122191041Y-105222063D01*
X122063487Y-105094509D01*
X122052340Y-105087505D01*
X121910748Y-104998536D01*
X121740479Y-104938956D01*
X121740474Y-104938955D01*
X121561229Y-104918760D01*
X121561221Y-104918760D01*
X121381975Y-104938955D01*
X121381970Y-104938956D01*
X121211701Y-104998536D01*
X121058961Y-105094510D01*
X121056128Y-105096770D01*
X121053949Y-105097659D01*
X121053067Y-105098214D01*
X121052969Y-105098059D01*
X120991442Y-105123180D01*
X120978813Y-105123825D01*
X109801970Y-105123825D01*
X109801954Y-105123824D01*
X109794358Y-105123824D01*
X109678846Y-105123824D01*
X109611807Y-105104139D01*
X109591165Y-105087505D01*
X98941169Y-94437509D01*
X98907684Y-94376186D01*
X98904850Y-94349828D01*
X98904850Y-94339457D01*
X98907165Y-94321874D01*
X98906315Y-94321762D01*
X98907376Y-94313704D01*
X98907376Y-94147998D01*
X98907375Y-94147980D01*
X98907375Y-73477149D01*
X98927060Y-73410110D01*
X98979864Y-73364355D01*
X99031375Y-73353149D01*
X100335402Y-73353149D01*
X100402441Y-73372834D01*
X100423083Y-73389468D01*
X104589031Y-77555416D01*
X104622516Y-77616739D01*
X104625350Y-77643097D01*
X104625350Y-81878687D01*
X104605665Y-81945726D01*
X104598300Y-81955996D01*
X104596036Y-81958834D01*
X104500061Y-82111576D01*
X104440481Y-82281845D01*
X104440480Y-82281850D01*
X104420285Y-82461096D01*
X104420285Y-82461103D01*
X104440480Y-82640349D01*
X104440481Y-82640354D01*
X104500061Y-82810623D01*
X104535629Y-82867228D01*
X104596034Y-82963362D01*
X104723588Y-83090916D01*
X104876328Y-83186889D01*
X104965824Y-83218205D01*
X105046595Y-83246468D01*
X105046600Y-83246469D01*
X105225846Y-83266665D01*
X105225850Y-83266665D01*
X105225854Y-83266665D01*
X105405099Y-83246469D01*
X105405102Y-83246468D01*
X105405105Y-83246468D01*
X105575372Y-83186889D01*
X105728112Y-83090916D01*
X105855666Y-82963362D01*
X105951639Y-82810622D01*
X106011218Y-82640355D01*
X106011240Y-82640163D01*
X106016430Y-82594102D01*
X106043496Y-82529688D01*
X106101091Y-82490133D01*
X106170928Y-82487995D01*
X106230834Y-82523953D01*
X106261790Y-82586591D01*
X106263650Y-82607985D01*
X106263650Y-88504652D01*
X106243965Y-88571691D01*
X106227331Y-88592334D01*
X106099490Y-88720174D01*
X106038167Y-88753658D01*
X106025693Y-88755712D01*
X105938775Y-88765505D01*
X105768503Y-88825085D01*
X105615762Y-88921059D01*
X105488209Y-89048612D01*
X105392236Y-89201351D01*
X105332656Y-89371620D01*
X105332655Y-89371625D01*
X105312460Y-89550871D01*
X105312460Y-89550878D01*
X105332655Y-89730124D01*
X105332656Y-89730129D01*
X105392236Y-89900398D01*
X105462061Y-90011523D01*
X105488209Y-90053137D01*
X105615763Y-90180691D01*
X105692008Y-90228599D01*
X105746987Y-90263145D01*
X105768503Y-90276664D01*
X105938770Y-90336243D01*
X105938775Y-90336244D01*
X106118021Y-90356440D01*
X106118025Y-90356440D01*
X106118029Y-90356440D01*
X106297274Y-90336244D01*
X106297277Y-90336243D01*
X106297280Y-90336243D01*
X106467547Y-90276664D01*
X106620287Y-90180691D01*
X106747841Y-90053137D01*
X106843814Y-89900397D01*
X106903393Y-89730130D01*
X106913186Y-89643204D01*
X106940251Y-89578793D01*
X106948715Y-89569418D01*
X107222656Y-89295478D01*
X107222661Y-89295474D01*
X107232864Y-89285270D01*
X107232866Y-89285270D01*
X107344670Y-89173466D01*
X107415199Y-89051305D01*
X107423727Y-89036535D01*
X107464650Y-88883807D01*
X107464650Y-88725693D01*
X107464650Y-77996722D01*
X107484335Y-77929683D01*
X107537139Y-77883928D01*
X107606297Y-77873984D01*
X107669853Y-77903009D01*
X107676331Y-77909041D01*
X108662556Y-78895266D01*
X108696041Y-78956589D01*
X108698875Y-78982947D01*
X108698875Y-89806662D01*
X108679190Y-89873701D01*
X108671825Y-89883971D01*
X108669561Y-89886809D01*
X108573586Y-90039551D01*
X108514006Y-90209820D01*
X108514005Y-90209825D01*
X108493810Y-90389071D01*
X108493810Y-90389078D01*
X108514005Y-90568324D01*
X108514006Y-90568329D01*
X108573586Y-90738598D01*
X108646308Y-90854334D01*
X108669559Y-90891337D01*
X108797113Y-91018891D01*
X108885016Y-91074124D01*
X108908582Y-91088932D01*
X108949853Y-91114864D01*
X109120120Y-91174443D01*
X109120125Y-91174444D01*
X109299371Y-91194640D01*
X109299375Y-91194640D01*
X109299376Y-91194640D01*
X109310149Y-91193426D01*
X109368750Y-91186823D01*
X109437570Y-91198877D01*
X109488950Y-91246225D01*
X109506575Y-91313836D01*
X109484849Y-91380242D01*
X109470314Y-91397724D01*
X107705111Y-93162928D01*
X107593306Y-93274732D01*
X107593304Y-93274734D01*
X107572544Y-93310694D01*
X107558053Y-93335793D01*
X107514248Y-93411665D01*
X107473324Y-93564393D01*
X107473324Y-93564395D01*
X107473324Y-93732496D01*
X107473325Y-93732509D01*
X107473325Y-98922530D01*
X107473324Y-98922548D01*
X107473324Y-99088254D01*
X107473323Y-99088254D01*
X107514248Y-99240985D01*
X107543183Y-99291100D01*
X107543184Y-99291104D01*
X107543185Y-99291104D01*
X107577919Y-99351267D01*
X107593304Y-99377914D01*
X107593306Y-99377917D01*
X107712174Y-99496785D01*
X107712180Y-99496790D01*
X109858952Y-101643563D01*
X109892437Y-101704886D01*
X109894491Y-101745127D01*
X109890810Y-101777797D01*
X109890810Y-101777803D01*
X109911005Y-101957049D01*
X109911006Y-101957054D01*
X109970586Y-102127323D01*
X110038373Y-102235205D01*
X110066559Y-102280062D01*
X110194113Y-102407616D01*
X110346853Y-102503589D01*
X110517120Y-102563168D01*
X110517125Y-102563169D01*
X110696371Y-102583365D01*
X110696375Y-102583365D01*
X110696379Y-102583365D01*
X110875624Y-102563169D01*
X110875627Y-102563168D01*
X110875630Y-102563168D01*
X111045897Y-102503589D01*
X111198637Y-102407616D01*
X111326191Y-102280062D01*
X111422164Y-102127322D01*
X111481743Y-101957055D01*
X111481744Y-101957049D01*
X111501940Y-101777803D01*
X111501940Y-101777796D01*
X111481744Y-101598550D01*
X111481743Y-101598545D01*
X111422163Y-101428276D01*
X111326190Y-101275537D01*
X111198637Y-101147984D01*
X111045899Y-101052012D01*
X111045895Y-101052010D01*
X110949510Y-101018283D01*
X110902784Y-100988923D01*
X108710644Y-98796783D01*
X108677159Y-98735460D01*
X108674325Y-98709102D01*
X108674325Y-97964565D01*
X108694010Y-97897526D01*
X108746814Y-97851771D01*
X108815972Y-97841827D01*
X108879528Y-97870852D01*
X108886006Y-97876884D01*
X108965388Y-97956266D01*
X109118128Y-98052239D01*
X109208396Y-98083825D01*
X109288395Y-98111818D01*
X109288400Y-98111819D01*
X109467646Y-98132015D01*
X109467650Y-98132015D01*
X109467654Y-98132015D01*
X109646899Y-98111819D01*
X109646902Y-98111818D01*
X109646905Y-98111818D01*
X109817172Y-98052239D01*
X109969912Y-97956266D01*
X110097466Y-97828712D01*
X110193439Y-97675972D01*
X110253018Y-97505705D01*
X110256173Y-97477705D01*
X110273215Y-97326453D01*
X110273215Y-97326444D01*
X110253019Y-97147200D01*
X110253018Y-97147195D01*
X110247706Y-97132015D01*
X110193439Y-96976928D01*
X110097466Y-96824188D01*
X110097464Y-96824186D01*
X110097463Y-96824184D01*
X110095200Y-96821346D01*
X110094309Y-96819165D01*
X110093761Y-96818292D01*
X110093914Y-96818195D01*
X110068794Y-96756659D01*
X110068150Y-96744037D01*
X110068150Y-93115408D01*
X110087835Y-93048369D01*
X110104469Y-93027727D01*
X110785894Y-92346302D01*
X110847217Y-92312817D01*
X110916909Y-92317801D01*
X110972842Y-92359673D01*
X110997259Y-92425137D01*
X110997575Y-92433983D01*
X110997575Y-95769755D01*
X110997574Y-95769773D01*
X110997574Y-95935479D01*
X110997573Y-95935479D01*
X111038499Y-96088214D01*
X111038500Y-96088215D01*
X111061247Y-96127613D01*
X111061248Y-96127614D01*
X111117552Y-96225137D01*
X111117556Y-96225142D01*
X111236424Y-96344010D01*
X111236430Y-96344015D01*
X113964805Y-99072390D01*
X113998290Y-99133713D01*
X114001124Y-99160071D01*
X114001124Y-99231132D01*
X114001409Y-99232195D01*
X114020995Y-99305292D01*
X114024440Y-99351267D01*
X114021485Y-99377495D01*
X114021485Y-99377503D01*
X114041680Y-99556749D01*
X114041681Y-99556754D01*
X114101261Y-99727023D01*
X114109878Y-99740736D01*
X114197234Y-99879762D01*
X114324788Y-100007316D01*
X114477528Y-100103289D01*
X114629351Y-100156414D01*
X114647795Y-100162868D01*
X114647800Y-100162869D01*
X114827046Y-100183065D01*
X114827050Y-100183065D01*
X114827054Y-100183065D01*
X115006299Y-100162869D01*
X115006301Y-100162868D01*
X115006305Y-100162868D01*
X115006308Y-100162866D01*
X115006312Y-100162866D01*
X115113818Y-100125248D01*
X115183597Y-100121686D01*
X115244224Y-100156414D01*
X115276452Y-100218407D01*
X115271817Y-100283236D01*
X115270409Y-100287260D01*
X115270405Y-100287275D01*
X115250210Y-100466521D01*
X115250210Y-100466528D01*
X115270405Y-100645774D01*
X115270406Y-100645779D01*
X115329986Y-100816048D01*
X115425959Y-100968787D01*
X115553513Y-101096341D01*
X115706253Y-101192314D01*
X115876520Y-101251893D01*
X115876525Y-101251894D01*
X116055771Y-101272090D01*
X116055775Y-101272090D01*
X116055779Y-101272090D01*
X116235024Y-101251894D01*
X116235027Y-101251893D01*
X116235030Y-101251893D01*
X116405297Y-101192314D01*
X116558037Y-101096341D01*
X116685591Y-100968787D01*
X116780606Y-100817570D01*
X116797909Y-100795874D01*
X118554191Y-99039594D01*
X118615514Y-99006109D01*
X118641872Y-99003275D01*
X129944017Y-99003275D01*
X129984972Y-99010233D01*
X130094170Y-99048443D01*
X130094175Y-99048444D01*
X130273421Y-99068640D01*
X130273425Y-99068640D01*
X130273429Y-99068640D01*
X130452674Y-99048444D01*
X130452677Y-99048443D01*
X130452680Y-99048443D01*
X130622947Y-98988864D01*
X130775687Y-98892891D01*
X130903241Y-98765337D01*
X130999214Y-98612597D01*
X131058793Y-98442330D01*
X131058794Y-98442324D01*
X131078990Y-98263078D01*
X131078990Y-98263071D01*
X131071174Y-98193699D01*
X146297716Y-98193699D01*
X146297716Y-98193700D01*
X146318311Y-98429103D01*
X146318313Y-98429113D01*
X146379469Y-98657355D01*
X146379471Y-98657359D01*
X146379472Y-98657363D01*
X146444485Y-98796783D01*
X146479340Y-98871530D01*
X146479342Y-98871534D01*
X146561498Y-98988864D01*
X146614880Y-99065101D01*
X146781974Y-99232195D01*
X146952026Y-99351267D01*
X146967969Y-99362430D01*
X147011594Y-99417007D01*
X147018788Y-99486505D01*
X146987265Y-99548860D01*
X146967970Y-99565580D01*
X146782297Y-99695590D01*
X146782295Y-99695591D01*
X146615266Y-99862620D01*
X146615261Y-99862626D01*
X146479775Y-100056120D01*
X146479774Y-100056122D01*
X146379945Y-100270207D01*
X146379942Y-100270213D01*
X146322739Y-100483699D01*
X146322739Y-100483700D01*
X147220363Y-100483700D01*
X147187450Y-100540707D01*
X147153375Y-100667874D01*
X147153375Y-100799526D01*
X147187450Y-100926693D01*
X147220363Y-100983700D01*
X146322739Y-100983700D01*
X146379942Y-101197186D01*
X146379945Y-101197192D01*
X146479774Y-101411278D01*
X146615269Y-101604782D01*
X146782292Y-101771805D01*
X146967970Y-101901819D01*
X147011594Y-101956396D01*
X147018787Y-102025895D01*
X146987265Y-102088249D01*
X146967970Y-102104969D01*
X146781969Y-102235208D01*
X146614880Y-102402297D01*
X146479340Y-102595869D01*
X146479339Y-102595871D01*
X146379473Y-102810035D01*
X146379469Y-102810044D01*
X146318313Y-103038286D01*
X146318311Y-103038296D01*
X146297716Y-103273699D01*
X146297716Y-103273700D01*
X146318311Y-103509103D01*
X146318313Y-103509113D01*
X146379469Y-103737355D01*
X146379471Y-103737359D01*
X146379472Y-103737363D01*
X146479340Y-103951530D01*
X146479342Y-103951534D01*
X146587656Y-104106221D01*
X146614880Y-104145101D01*
X146781974Y-104312195D01*
X146878759Y-104379965D01*
X146975540Y-104447732D01*
X146975542Y-104447733D01*
X146975545Y-104447735D01*
X147189712Y-104547603D01*
X147417967Y-104608763D01*
X147606293Y-104625239D01*
X147653374Y-104629359D01*
X147653375Y-104629359D01*
X147653376Y-104629359D01*
X147692609Y-104625926D01*
X147888783Y-104608763D01*
X148117038Y-104547603D01*
X148331205Y-104447735D01*
X148524776Y-104312195D01*
X148691870Y-104145101D01*
X148827410Y-103951530D01*
X148927278Y-103737363D01*
X148988438Y-103509108D01*
X149009034Y-103273700D01*
X148988438Y-103038292D01*
X148927278Y-102810037D01*
X148827410Y-102595871D01*
X148818654Y-102583365D01*
X148691869Y-102402297D01*
X148524777Y-102235206D01*
X148524776Y-102235205D01*
X148338780Y-102104969D01*
X148295156Y-102050392D01*
X148287963Y-101980893D01*
X148319485Y-101918539D01*
X148338780Y-101901819D01*
X148524457Y-101771805D01*
X148691480Y-101604782D01*
X148826975Y-101411278D01*
X148926804Y-101197192D01*
X148926807Y-101197186D01*
X148984011Y-100983700D01*
X148086387Y-100983700D01*
X148119300Y-100926693D01*
X148153375Y-100799526D01*
X148153375Y-100667874D01*
X148119300Y-100540707D01*
X148086387Y-100483700D01*
X148984011Y-100483700D01*
X148984010Y-100483699D01*
X148926807Y-100270213D01*
X148926804Y-100270207D01*
X148826975Y-100056122D01*
X148826974Y-100056120D01*
X148691488Y-99862626D01*
X148691483Y-99862620D01*
X148524453Y-99695590D01*
X148338780Y-99565579D01*
X148295155Y-99511002D01*
X148287963Y-99441504D01*
X148319485Y-99379149D01*
X148338781Y-99362430D01*
X148524776Y-99232195D01*
X148691870Y-99065101D01*
X148827410Y-98871530D01*
X148927278Y-98657363D01*
X148988438Y-98429108D01*
X149009034Y-98193700D01*
X148988438Y-97958292D01*
X148927278Y-97730037D01*
X148827410Y-97515871D01*
X148800687Y-97477707D01*
X148691871Y-97322300D01*
X148643800Y-97274229D01*
X148569942Y-97200371D01*
X148536459Y-97139051D01*
X148541443Y-97069359D01*
X148583314Y-97013425D01*
X148614290Y-96996510D01*
X148745706Y-96947496D01*
X148860921Y-96861246D01*
X148947171Y-96746031D01*
X148997466Y-96611183D01*
X149003875Y-96551573D01*
X149003874Y-94755828D01*
X148997466Y-94696217D01*
X148958230Y-94591021D01*
X148947172Y-94561371D01*
X148947168Y-94561364D01*
X148860922Y-94446155D01*
X148860919Y-94446152D01*
X148745710Y-94359906D01*
X148745703Y-94359902D01*
X148610857Y-94309608D01*
X148610858Y-94309608D01*
X148551258Y-94303201D01*
X148551256Y-94303200D01*
X148551248Y-94303200D01*
X148551239Y-94303200D01*
X146755504Y-94303200D01*
X146755498Y-94303201D01*
X146695891Y-94309608D01*
X146561046Y-94359902D01*
X146561039Y-94359906D01*
X146445830Y-94446152D01*
X146445827Y-94446155D01*
X146359581Y-94561364D01*
X146359577Y-94561371D01*
X146309283Y-94696217D01*
X146305761Y-94728982D01*
X146302876Y-94755823D01*
X146302875Y-94755835D01*
X146302875Y-96551570D01*
X146302876Y-96551576D01*
X146309283Y-96611183D01*
X146359577Y-96746028D01*
X146359581Y-96746035D01*
X146445827Y-96861244D01*
X146445830Y-96861247D01*
X146561039Y-96947493D01*
X146561046Y-96947497D01*
X146692456Y-96996510D01*
X146748390Y-97038381D01*
X146772807Y-97103845D01*
X146757955Y-97172118D01*
X146736805Y-97200373D01*
X146614878Y-97322300D01*
X146479340Y-97515869D01*
X146479339Y-97515871D01*
X146379473Y-97730035D01*
X146379469Y-97730044D01*
X146318313Y-97958286D01*
X146318311Y-97958296D01*
X146297716Y-98193699D01*
X131071174Y-98193699D01*
X131058794Y-98083825D01*
X131058793Y-98083820D01*
X131047742Y-98052238D01*
X130999214Y-97913553D01*
X130903241Y-97760813D01*
X130775687Y-97633259D01*
X130622948Y-97537286D01*
X130452679Y-97477706D01*
X130452674Y-97477705D01*
X130273429Y-97457510D01*
X130273421Y-97457510D01*
X130094175Y-97477705D01*
X130094170Y-97477706D01*
X129923901Y-97537286D01*
X129771162Y-97633259D01*
X129638685Y-97765737D01*
X129636485Y-97763537D01*
X129590472Y-97795767D01*
X129550829Y-97802275D01*
X118262717Y-97802275D01*
X118109989Y-97843198D01*
X118070959Y-97865733D01*
X118070958Y-97865733D01*
X117973062Y-97922252D01*
X117973057Y-97922256D01*
X117861253Y-98034061D01*
X116258495Y-99636818D01*
X116197172Y-99670303D01*
X116156931Y-99672357D01*
X116055778Y-99660960D01*
X116055771Y-99660960D01*
X115876525Y-99681155D01*
X115876517Y-99681157D01*
X115769005Y-99718777D01*
X115699226Y-99722338D01*
X115638599Y-99687609D01*
X115606372Y-99625615D01*
X115611012Y-99560774D01*
X115612417Y-99556758D01*
X115612419Y-99556749D01*
X115632615Y-99377503D01*
X115632615Y-99377496D01*
X115612419Y-99198250D01*
X115612418Y-99198245D01*
X115581088Y-99108709D01*
X115552839Y-99027978D01*
X115456866Y-98875238D01*
X115331758Y-98750130D01*
X115312051Y-98724446D01*
X115307571Y-98716685D01*
X115191435Y-98600549D01*
X115191424Y-98600539D01*
X113926437Y-97335552D01*
X113892952Y-97274229D01*
X113897936Y-97204537D01*
X113939808Y-97148604D01*
X114000235Y-97124651D01*
X114114124Y-97111819D01*
X114114127Y-97111818D01*
X114114130Y-97111818D01*
X114284397Y-97052239D01*
X114437137Y-96956266D01*
X114564691Y-96828712D01*
X114660664Y-96675972D01*
X114720243Y-96505705D01*
X114738461Y-96344015D01*
X114740440Y-96326453D01*
X114740440Y-96326446D01*
X114720244Y-96147200D01*
X114720243Y-96147195D01*
X114660663Y-95976926D01*
X114564688Y-95824184D01*
X114562425Y-95821346D01*
X114561534Y-95819165D01*
X114560986Y-95818292D01*
X114561139Y-95818195D01*
X114536019Y-95756659D01*
X114535375Y-95744037D01*
X114535375Y-93818498D01*
X114555060Y-93751459D01*
X114607864Y-93705704D01*
X114677022Y-93695760D01*
X114740578Y-93724785D01*
X114764367Y-93752524D01*
X114810009Y-93825162D01*
X114937563Y-93952716D01*
X115090303Y-94048689D01*
X115234932Y-94099297D01*
X115260570Y-94108268D01*
X115260575Y-94108269D01*
X115439821Y-94128465D01*
X115439825Y-94128465D01*
X115439829Y-94128465D01*
X115619074Y-94108269D01*
X115619077Y-94108268D01*
X115619080Y-94108268D01*
X115789347Y-94048689D01*
X115942087Y-93952716D01*
X116069641Y-93825162D01*
X116165614Y-93672422D01*
X116225193Y-93502155D01*
X116234986Y-93415231D01*
X116261537Y-93352043D01*
X116261470Y-93351992D01*
X116261666Y-93351735D01*
X116262051Y-93350821D01*
X116264162Y-93348482D01*
X116266418Y-93345543D01*
X116266418Y-93345542D01*
X116266420Y-93345541D01*
X116327464Y-93239809D01*
X116345477Y-93208610D01*
X116386401Y-93055882D01*
X116386401Y-92897768D01*
X116386401Y-92890173D01*
X116386400Y-92890155D01*
X116386400Y-92365150D01*
X116406085Y-92298111D01*
X116458889Y-92252356D01*
X116528047Y-92242412D01*
X116576371Y-92260156D01*
X116577272Y-92260722D01*
X116709550Y-92343839D01*
X116879820Y-92403419D01*
X116879825Y-92403420D01*
X117059071Y-92423616D01*
X117059075Y-92423616D01*
X117059079Y-92423616D01*
X117238324Y-92403420D01*
X117238327Y-92403419D01*
X117238330Y-92403419D01*
X117408597Y-92343840D01*
X117561337Y-92247867D01*
X117561342Y-92247861D01*
X117564172Y-92245606D01*
X117566350Y-92244716D01*
X117567233Y-92244162D01*
X117567330Y-92244316D01*
X117628858Y-92219196D01*
X117641487Y-92218551D01*
X119934229Y-92218551D01*
X120001268Y-92238236D01*
X120021910Y-92254870D01*
X122806739Y-95039699D01*
X122806749Y-95039710D01*
X122811079Y-95044040D01*
X122811080Y-95044041D01*
X122922884Y-95155845D01*
X122922886Y-95155846D01*
X122922890Y-95155849D01*
X123059809Y-95234898D01*
X123059812Y-95234900D01*
X123059816Y-95234902D01*
X123156062Y-95260691D01*
X123156061Y-95260691D01*
X123167996Y-95263889D01*
X123212542Y-95275825D01*
X123212543Y-95275825D01*
X138041706Y-95275825D01*
X138041722Y-95275826D01*
X138049318Y-95275826D01*
X138207429Y-95275826D01*
X138207432Y-95275826D01*
X138360160Y-95234902D01*
X138437149Y-95190452D01*
X138497091Y-95155845D01*
X138608895Y-95044041D01*
X138608895Y-95044039D01*
X138619099Y-95033836D01*
X138619102Y-95033831D01*
X141179058Y-92473879D01*
X141179058Y-92473877D01*
X141189262Y-92463674D01*
X141189266Y-92463669D01*
X142117688Y-91535247D01*
X183528172Y-91535247D01*
X183528172Y-91535252D01*
X183547996Y-91761849D01*
X183547998Y-91761860D01*
X183606868Y-91981567D01*
X183606873Y-91981581D01*
X183703001Y-92187728D01*
X183754112Y-92260722D01*
X184433138Y-91581696D01*
X184433138Y-91587911D01*
X184460397Y-91689644D01*
X184513058Y-91780856D01*
X184587532Y-91855330D01*
X184678744Y-91907991D01*
X184780477Y-91935250D01*
X184786691Y-91935250D01*
X184107664Y-92614275D01*
X184180651Y-92665382D01*
X184180659Y-92665386D01*
X184386806Y-92761514D01*
X184386820Y-92761519D01*
X184606527Y-92820389D01*
X184606538Y-92820391D01*
X184833136Y-92840216D01*
X184833140Y-92840216D01*
X185059737Y-92820391D01*
X185059748Y-92820389D01*
X185279455Y-92761519D01*
X185279469Y-92761514D01*
X185485616Y-92665386D01*
X185558609Y-92614274D01*
X184879585Y-91935250D01*
X184885799Y-91935250D01*
X184987532Y-91907991D01*
X185078744Y-91855330D01*
X185153218Y-91780856D01*
X185205879Y-91689644D01*
X185233138Y-91587911D01*
X185233138Y-91581697D01*
X185917335Y-92265894D01*
X185966330Y-92275741D01*
X186016513Y-92324356D01*
X186031187Y-92379882D01*
X186032237Y-92379826D01*
X186032284Y-92379821D01*
X186032284Y-92379823D01*
X186032462Y-92379814D01*
X186032639Y-92383126D01*
X186039046Y-92442733D01*
X186089340Y-92577578D01*
X186089344Y-92577585D01*
X186175590Y-92692794D01*
X186175593Y-92692797D01*
X186290802Y-92779043D01*
X186290809Y-92779047D01*
X186425655Y-92829341D01*
X186425654Y-92829341D01*
X186432582Y-92830085D01*
X186485265Y-92835750D01*
X188181010Y-92835749D01*
X188240621Y-92829341D01*
X188375469Y-92779046D01*
X188490684Y-92692796D01*
X188576934Y-92577581D01*
X188627229Y-92442733D01*
X188633638Y-92383123D01*
X188633637Y-91526648D01*
X197411416Y-91526648D01*
X197411416Y-91526651D01*
X197431825Y-91812012D01*
X197492634Y-92091545D01*
X197592616Y-92359608D01*
X197729716Y-92610688D01*
X197729721Y-92610696D01*
X197836407Y-92753211D01*
X197836408Y-92753212D01*
X198444437Y-92145182D01*
X198539354Y-92275825D01*
X198667350Y-92403821D01*
X198797990Y-92498736D01*
X198189961Y-93106765D01*
X198332485Y-93213457D01*
X198332486Y-93213458D01*
X198583567Y-93350558D01*
X198583566Y-93350558D01*
X198851629Y-93450540D01*
X199131162Y-93511349D01*
X199416524Y-93531759D01*
X199416526Y-93531759D01*
X199701887Y-93511349D01*
X199981420Y-93450540D01*
X200249483Y-93350558D01*
X200500572Y-93213453D01*
X200643086Y-93106766D01*
X200643087Y-93106765D01*
X200035059Y-92498736D01*
X200165700Y-92403821D01*
X200293696Y-92275825D01*
X200388611Y-92145183D01*
X200996640Y-92753212D01*
X200996641Y-92753211D01*
X201103328Y-92610697D01*
X201240433Y-92359608D01*
X201340415Y-92091545D01*
X201401224Y-91812012D01*
X201421634Y-91526651D01*
X201421634Y-91526648D01*
X201401224Y-91241287D01*
X201340415Y-90961754D01*
X201240433Y-90693691D01*
X201103333Y-90442611D01*
X201103332Y-90442610D01*
X200996640Y-90300086D01*
X200388611Y-90908115D01*
X200293696Y-90777475D01*
X200165700Y-90649479D01*
X200035058Y-90554562D01*
X200643087Y-89946533D01*
X200643086Y-89946532D01*
X200500571Y-89839846D01*
X200500563Y-89839841D01*
X200249482Y-89702741D01*
X200249483Y-89702741D01*
X199981420Y-89602759D01*
X199701887Y-89541950D01*
X199416526Y-89521541D01*
X199416524Y-89521541D01*
X199131162Y-89541950D01*
X198851629Y-89602759D01*
X198583566Y-89702741D01*
X198332486Y-89839841D01*
X198332478Y-89839846D01*
X198189962Y-89946532D01*
X198189961Y-89946533D01*
X198797991Y-90554563D01*
X198667350Y-90649479D01*
X198539354Y-90777475D01*
X198444438Y-90908116D01*
X197836408Y-90300086D01*
X197836407Y-90300087D01*
X197729721Y-90442603D01*
X197729716Y-90442611D01*
X197592616Y-90693691D01*
X197492634Y-90961754D01*
X197431825Y-91241287D01*
X197411416Y-91526648D01*
X188633637Y-91526648D01*
X188633637Y-90687378D01*
X188627229Y-90627767D01*
X188605060Y-90568330D01*
X188576935Y-90492921D01*
X188576931Y-90492914D01*
X188490685Y-90377705D01*
X188490682Y-90377702D01*
X188375473Y-90291456D01*
X188375466Y-90291452D01*
X188240620Y-90241158D01*
X188240621Y-90241158D01*
X188181021Y-90234751D01*
X188181019Y-90234750D01*
X188181011Y-90234750D01*
X188181002Y-90234750D01*
X186485267Y-90234750D01*
X186485261Y-90234751D01*
X186425654Y-90241158D01*
X186290809Y-90291452D01*
X186290802Y-90291456D01*
X186175593Y-90377702D01*
X186175590Y-90377705D01*
X186089344Y-90492914D01*
X186089340Y-90492921D01*
X186039046Y-90627767D01*
X186033521Y-90679165D01*
X186032639Y-90687373D01*
X186032460Y-90690702D01*
X186030985Y-90690622D01*
X186012953Y-90752034D01*
X185960149Y-90797789D01*
X185916660Y-90805279D01*
X185233138Y-91488801D01*
X185233138Y-91482589D01*
X185205879Y-91380856D01*
X185153218Y-91289644D01*
X185078744Y-91215170D01*
X184987532Y-91162509D01*
X184885799Y-91135250D01*
X184879586Y-91135250D01*
X185558610Y-90456224D01*
X185485616Y-90405113D01*
X185279469Y-90308985D01*
X185279455Y-90308980D01*
X185059748Y-90250110D01*
X185059737Y-90250108D01*
X184833140Y-90230284D01*
X184833136Y-90230284D01*
X184606538Y-90250108D01*
X184606527Y-90250110D01*
X184386820Y-90308980D01*
X184386811Y-90308984D01*
X184180654Y-90405116D01*
X184180650Y-90405118D01*
X184107664Y-90456223D01*
X184107664Y-90456224D01*
X184786691Y-91135250D01*
X184780477Y-91135250D01*
X184678744Y-91162509D01*
X184587532Y-91215170D01*
X184513058Y-91289644D01*
X184460397Y-91380856D01*
X184433138Y-91482589D01*
X184433138Y-91488802D01*
X183754112Y-90809776D01*
X183754111Y-90809776D01*
X183703006Y-90882762D01*
X183703004Y-90882766D01*
X183606872Y-91088923D01*
X183606868Y-91088932D01*
X183547998Y-91308639D01*
X183547996Y-91308650D01*
X183528172Y-91535247D01*
X142117688Y-91535247D01*
X142849291Y-90803644D01*
X142910614Y-90770159D01*
X142936972Y-90767325D01*
X163937006Y-90767325D01*
X163937022Y-90767326D01*
X163944618Y-90767326D01*
X164102729Y-90767326D01*
X164102732Y-90767326D01*
X164255460Y-90726402D01*
X164323053Y-90687377D01*
X164392391Y-90647345D01*
X164504195Y-90535541D01*
X164504195Y-90535539D01*
X164514399Y-90525336D01*
X164514403Y-90525331D01*
X167065602Y-87974131D01*
X167112325Y-87944773D01*
X167198947Y-87914464D01*
X167351687Y-87818491D01*
X167479241Y-87690937D01*
X167575214Y-87538197D01*
X167634793Y-87367930D01*
X167634794Y-87367924D01*
X167654990Y-87188678D01*
X167654990Y-87188671D01*
X167634794Y-87009425D01*
X167634793Y-87009420D01*
X167629026Y-86992940D01*
X167575214Y-86839153D01*
X167479241Y-86686413D01*
X167476059Y-86683231D01*
X167442574Y-86621908D01*
X167447558Y-86552216D01*
X167489430Y-86496283D01*
X167554894Y-86471866D01*
X167563740Y-86471550D01*
X170763256Y-86471550D01*
X170763272Y-86471551D01*
X170770868Y-86471551D01*
X170928979Y-86471551D01*
X170928982Y-86471551D01*
X171081710Y-86430627D01*
X171098439Y-86420967D01*
X171146556Y-86405134D01*
X171180212Y-86401342D01*
X171297462Y-86388132D01*
X171297465Y-86388131D01*
X171297467Y-86388131D01*
X171467734Y-86328552D01*
X171620474Y-86232579D01*
X171748028Y-86105025D01*
X171844001Y-85952285D01*
X171903580Y-85782018D01*
X171908791Y-85735768D01*
X171923777Y-85602766D01*
X171923777Y-85602759D01*
X171903581Y-85423513D01*
X171903580Y-85423508D01*
X171861733Y-85303916D01*
X171844001Y-85253241D01*
X171844000Y-85253239D01*
X171843108Y-85251819D01*
X171842811Y-85250767D01*
X171840981Y-85246968D01*
X171841646Y-85246647D01*
X171824110Y-85184581D01*
X171844480Y-85117747D01*
X171897749Y-85072535D01*
X171948104Y-85061850D01*
X172252596Y-85061850D01*
X172319635Y-85081535D01*
X172365390Y-85134339D01*
X172375816Y-85199734D01*
X172365285Y-85293197D01*
X172365285Y-85293203D01*
X172385480Y-85472449D01*
X172385481Y-85472454D01*
X172445061Y-85642723D01*
X172453784Y-85656605D01*
X172520870Y-85763372D01*
X172541035Y-85795463D01*
X172543295Y-85798297D01*
X172544184Y-85800475D01*
X172544739Y-85801358D01*
X172544584Y-85801455D01*
X172569705Y-85862983D01*
X172570350Y-85875612D01*
X172570350Y-87546062D01*
X172550665Y-87613101D01*
X172543300Y-87623371D01*
X172541036Y-87626209D01*
X172445061Y-87778951D01*
X172385481Y-87949220D01*
X172385480Y-87949225D01*
X172365285Y-88128471D01*
X172365285Y-88128478D01*
X172385480Y-88307724D01*
X172385481Y-88307729D01*
X172445061Y-88477998D01*
X172541034Y-88630737D01*
X172668587Y-88758290D01*
X172668593Y-88758295D01*
X172820337Y-88853643D01*
X172866628Y-88905977D01*
X172877276Y-88975031D01*
X172848901Y-89038879D01*
X172842046Y-89046317D01*
X171815434Y-90072931D01*
X171754111Y-90106416D01*
X171727753Y-90109250D01*
X168505977Y-90109250D01*
X168438938Y-90089565D01*
X168393183Y-90036761D01*
X168382757Y-89999133D01*
X168368219Y-89870100D01*
X168368218Y-89870095D01*
X168346022Y-89806662D01*
X168308639Y-89699828D01*
X168212666Y-89547088D01*
X168085112Y-89419534D01*
X168040985Y-89391807D01*
X167932373Y-89323561D01*
X167762104Y-89263981D01*
X167762099Y-89263980D01*
X167582854Y-89243785D01*
X167582846Y-89243785D01*
X167403600Y-89263980D01*
X167403595Y-89263981D01*
X167233326Y-89323561D01*
X167080587Y-89419534D01*
X166953034Y-89547087D01*
X166857061Y-89699826D01*
X166797481Y-89870095D01*
X166797480Y-89870100D01*
X166777285Y-90049346D01*
X166777285Y-90049353D01*
X166797480Y-90228599D01*
X166797481Y-90228604D01*
X166857061Y-90398873D01*
X166916156Y-90492921D01*
X166953034Y-90551612D01*
X167080588Y-90679166D01*
X167137354Y-90714834D01*
X167233327Y-90775139D01*
X167256454Y-90783231D01*
X167303182Y-90812592D01*
X167564714Y-91074124D01*
X167564724Y-91074135D01*
X167569054Y-91078465D01*
X167569055Y-91078466D01*
X167680859Y-91190270D01*
X167767670Y-91240389D01*
X167767672Y-91240391D01*
X167797060Y-91257358D01*
X167817790Y-91269327D01*
X167970518Y-91310251D01*
X167970521Y-91310251D01*
X168136228Y-91310251D01*
X168136244Y-91310250D01*
X171941181Y-91310250D01*
X171941197Y-91310251D01*
X171948793Y-91310251D01*
X172106904Y-91310251D01*
X172106907Y-91310251D01*
X172259635Y-91269327D01*
X172309754Y-91240389D01*
X172396566Y-91190270D01*
X172508370Y-91078466D01*
X172508370Y-91078464D01*
X172518578Y-91068257D01*
X172518580Y-91068254D01*
X173772142Y-89814691D01*
X173833463Y-89781208D01*
X173903155Y-89786192D01*
X173959088Y-89828064D01*
X173976863Y-89861420D01*
X174029385Y-90011521D01*
X174046998Y-90039551D01*
X174125359Y-90164262D01*
X174252913Y-90291816D01*
X174323618Y-90336243D01*
X174389599Y-90377702D01*
X174405653Y-90387789D01*
X174562302Y-90442603D01*
X174575920Y-90447368D01*
X174575925Y-90447369D01*
X174755171Y-90467565D01*
X174755175Y-90467565D01*
X174755179Y-90467565D01*
X174934424Y-90447369D01*
X174934427Y-90447368D01*
X174934430Y-90447368D01*
X175104697Y-90387789D01*
X175257437Y-90291816D01*
X175257442Y-90291810D01*
X175260272Y-90289555D01*
X175262450Y-90288665D01*
X175263333Y-90288111D01*
X175263430Y-90288265D01*
X175324958Y-90263145D01*
X175337587Y-90262500D01*
X181151413Y-90262500D01*
X181218452Y-90282185D01*
X181228728Y-90289555D01*
X181231561Y-90291814D01*
X181231563Y-90291816D01*
X181345095Y-90363152D01*
X181368249Y-90377702D01*
X181384303Y-90387789D01*
X181540952Y-90442603D01*
X181554570Y-90447368D01*
X181554575Y-90447369D01*
X181733821Y-90467565D01*
X181733825Y-90467565D01*
X181733829Y-90467565D01*
X181913074Y-90447369D01*
X181913077Y-90447368D01*
X181913080Y-90447368D01*
X182083347Y-90387789D01*
X182236087Y-90291816D01*
X182363641Y-90164262D01*
X182459614Y-90011522D01*
X182519193Y-89841255D01*
X182519352Y-89839846D01*
X182539390Y-89662003D01*
X182539390Y-89661996D01*
X182519194Y-89482750D01*
X182519193Y-89482745D01*
X182498874Y-89424678D01*
X182459614Y-89312478D01*
X182454617Y-89304526D01*
X182374693Y-89177327D01*
X182363641Y-89159738D01*
X182236087Y-89032184D01*
X182178184Y-88995801D01*
X182083348Y-88936211D01*
X181913079Y-88876631D01*
X181913074Y-88876630D01*
X181733829Y-88856435D01*
X181733821Y-88856435D01*
X181554575Y-88876630D01*
X181554570Y-88876631D01*
X181384301Y-88936211D01*
X181231561Y-89032185D01*
X181228728Y-89034445D01*
X181226549Y-89035334D01*
X181225667Y-89035889D01*
X181225569Y-89035734D01*
X181164042Y-89060855D01*
X181151413Y-89061500D01*
X175337587Y-89061500D01*
X175270548Y-89041815D01*
X175260272Y-89034445D01*
X175257438Y-89032185D01*
X175257437Y-89032184D01*
X175154608Y-88967572D01*
X175104696Y-88936210D01*
X174954595Y-88883688D01*
X174897818Y-88842966D01*
X174872071Y-88778013D01*
X174885527Y-88709452D01*
X174907865Y-88678968D01*
X184349716Y-79237119D01*
X184411039Y-79203634D01*
X184437397Y-79200800D01*
X188930606Y-79200800D01*
X188930622Y-79200801D01*
X188938218Y-79200801D01*
X189096329Y-79200801D01*
X189096332Y-79200801D01*
X189249060Y-79159877D01*
X189347239Y-79103193D01*
X189385991Y-79080820D01*
X189497795Y-78969016D01*
X189497796Y-78969014D01*
X189986745Y-78480066D01*
X190065802Y-78343134D01*
X190106726Y-78190407D01*
X190106726Y-78032292D01*
X190106726Y-78024697D01*
X190106725Y-78024679D01*
X190106725Y-76402389D01*
X190113684Y-76361434D01*
X190117709Y-76349931D01*
X190129668Y-76315755D01*
X190144693Y-76182404D01*
X190149865Y-76136503D01*
X190149865Y-76136496D01*
X190129669Y-75957250D01*
X190129668Y-75957245D01*
X190109380Y-75899266D01*
X190070089Y-75786978D01*
X189974116Y-75634238D01*
X189846562Y-75506684D01*
X189823153Y-75491975D01*
X189693823Y-75410711D01*
X189523554Y-75351131D01*
X189523549Y-75351130D01*
X189344304Y-75330935D01*
X189344296Y-75330935D01*
X189165050Y-75351130D01*
X189165045Y-75351131D01*
X188994776Y-75410711D01*
X188842037Y-75506684D01*
X188714484Y-75634237D01*
X188618511Y-75786976D01*
X188558931Y-75957245D01*
X188558930Y-75957250D01*
X188538735Y-76136496D01*
X188538735Y-76136503D01*
X188558930Y-76315749D01*
X188558933Y-76315762D01*
X188570890Y-76349931D01*
X188574453Y-76419709D01*
X188539724Y-76480337D01*
X188477731Y-76512565D01*
X188439966Y-76514106D01*
X188280679Y-76496160D01*
X188280671Y-76496160D01*
X188101425Y-76516355D01*
X188101420Y-76516356D01*
X187931151Y-76575936D01*
X187778411Y-76671910D01*
X187775578Y-76674170D01*
X187773399Y-76675059D01*
X187772517Y-76675614D01*
X187772419Y-76675459D01*
X187710892Y-76700580D01*
X187698263Y-76701225D01*
X183773120Y-76701225D01*
X183773104Y-76701224D01*
X183765508Y-76701224D01*
X183607393Y-76701224D01*
X183531029Y-76721686D01*
X183454664Y-76742148D01*
X183454659Y-76742151D01*
X183317740Y-76821200D01*
X183317732Y-76821206D01*
X176314409Y-83824531D01*
X176253086Y-83858016D01*
X176226728Y-83860850D01*
X166992615Y-83860850D01*
X166951694Y-83871814D01*
X166951694Y-83871815D01*
X166914426Y-83881801D01*
X166839889Y-83901773D01*
X166839884Y-83901776D01*
X166702965Y-83980825D01*
X166702957Y-83980831D01*
X166634063Y-84049726D01*
X166591155Y-84092634D01*
X166591153Y-84092636D01*
X164808178Y-85875612D01*
X163055609Y-87628181D01*
X162994286Y-87661666D01*
X162967928Y-87664500D01*
X156468823Y-87664500D01*
X156401784Y-87644815D01*
X156381142Y-87628181D01*
X155876916Y-87123955D01*
X155843431Y-87062632D01*
X155848415Y-86992940D01*
X155876916Y-86948593D01*
X156216127Y-86609382D01*
X157592220Y-85233291D01*
X157671277Y-85096359D01*
X157712201Y-84943632D01*
X157712201Y-84785517D01*
X157712201Y-84777922D01*
X157712200Y-84777904D01*
X157712200Y-82144987D01*
X157731885Y-82077948D01*
X157739255Y-82067672D01*
X157741510Y-82064842D01*
X157741516Y-82064837D01*
X157837489Y-81912097D01*
X157897068Y-81741830D01*
X157897069Y-81741824D01*
X157917265Y-81562578D01*
X157917265Y-81562571D01*
X157897069Y-81383325D01*
X157897068Y-81383320D01*
X157885959Y-81351572D01*
X157837489Y-81213053D01*
X157741516Y-81060313D01*
X157613962Y-80932759D01*
X157563434Y-80901010D01*
X157461223Y-80836786D01*
X157290954Y-80777206D01*
X157290949Y-80777205D01*
X157111704Y-80757010D01*
X157111696Y-80757010D01*
X156932450Y-80777205D01*
X156932445Y-80777206D01*
X156762176Y-80836786D01*
X156609437Y-80932759D01*
X156481884Y-81060312D01*
X156385911Y-81213051D01*
X156326331Y-81383320D01*
X156326330Y-81383325D01*
X156306135Y-81562571D01*
X156306135Y-81562578D01*
X156326330Y-81741824D01*
X156326331Y-81741829D01*
X156385911Y-81912098D01*
X156414857Y-81958164D01*
X156475452Y-82054601D01*
X156481885Y-82064838D01*
X156484145Y-82067672D01*
X156485034Y-82069850D01*
X156485589Y-82070733D01*
X156485434Y-82070830D01*
X156510555Y-82132358D01*
X156511200Y-82144987D01*
X156511200Y-83657210D01*
X156491515Y-83724249D01*
X156438711Y-83770004D01*
X156369553Y-83779948D01*
X156321228Y-83762204D01*
X156273773Y-83732386D01*
X156103504Y-83672806D01*
X156103499Y-83672805D01*
X155924254Y-83652610D01*
X155924246Y-83652610D01*
X155745000Y-83672805D01*
X155744995Y-83672806D01*
X155574726Y-83732386D01*
X155421987Y-83828359D01*
X155294434Y-83955912D01*
X155198461Y-84108651D01*
X155138881Y-84278920D01*
X155138880Y-84278925D01*
X155118685Y-84458171D01*
X155118685Y-84458176D01*
X155122366Y-84490846D01*
X155110312Y-84559668D01*
X155086827Y-84592411D01*
X154565658Y-85113581D01*
X154504335Y-85147066D01*
X154477977Y-85149900D01*
X151710697Y-85149900D01*
X151643658Y-85130215D01*
X151597903Y-85077411D01*
X151587959Y-85008253D01*
X151616984Y-84944697D01*
X151623016Y-84938219D01*
X159546616Y-77014619D01*
X159607939Y-76981134D01*
X159634297Y-76978300D01*
X163965581Y-76978300D01*
X163965597Y-76978301D01*
X163973193Y-76978301D01*
X164131304Y-76978301D01*
X164131307Y-76978301D01*
X164284035Y-76937377D01*
X164334154Y-76908439D01*
X164420966Y-76858320D01*
X164532770Y-76746516D01*
X164532770Y-76746514D01*
X164542978Y-76736307D01*
X164542980Y-76736304D01*
X164958625Y-76320658D01*
X165019946Y-76287175D01*
X165032422Y-76285121D01*
X165101449Y-76277344D01*
X165101452Y-76277343D01*
X165101455Y-76277343D01*
X165271722Y-76217764D01*
X165424462Y-76121791D01*
X165552016Y-75994237D01*
X165647989Y-75841497D01*
X165707568Y-75671230D01*
X165708297Y-75664763D01*
X165727765Y-75491978D01*
X165727765Y-75491971D01*
X165707569Y-75312725D01*
X165707568Y-75312720D01*
X165645689Y-75135880D01*
X165647051Y-75135403D01*
X165636973Y-75074214D01*
X165664694Y-75010079D01*
X165722688Y-74971111D01*
X165760046Y-74965350D01*
X166695378Y-74965350D01*
X166762417Y-74985035D01*
X166783059Y-75001669D01*
X167967265Y-76185875D01*
X167996625Y-76232601D01*
X167998809Y-76238841D01*
X168050860Y-76387596D01*
X168115843Y-76491015D01*
X168146834Y-76540337D01*
X168274388Y-76667891D01*
X168302344Y-76685457D01*
X168348144Y-76714235D01*
X168394435Y-76766570D01*
X168405083Y-76835624D01*
X168376708Y-76899472D01*
X168369853Y-76906910D01*
X166579858Y-78696906D01*
X166518535Y-78730391D01*
X166492177Y-78733225D01*
X163744677Y-78733225D01*
X163678705Y-78714219D01*
X163620722Y-78677785D01*
X163620718Y-78677784D01*
X163450462Y-78618208D01*
X163450449Y-78618205D01*
X163271204Y-78598010D01*
X163271196Y-78598010D01*
X163091950Y-78618205D01*
X163091945Y-78618206D01*
X162921676Y-78677786D01*
X162768937Y-78773759D01*
X162641384Y-78901312D01*
X162545411Y-79054051D01*
X162485831Y-79224320D01*
X162485830Y-79224325D01*
X162465635Y-79403571D01*
X162465635Y-79403578D01*
X162485830Y-79582824D01*
X162485831Y-79582829D01*
X162545411Y-79753098D01*
X162612964Y-79860607D01*
X162641384Y-79905837D01*
X162768938Y-80033391D01*
X162921678Y-80129364D01*
X163091945Y-80188943D01*
X163091950Y-80188944D01*
X163271196Y-80209140D01*
X163271200Y-80209140D01*
X163271204Y-80209140D01*
X163450449Y-80188944D01*
X163450452Y-80188943D01*
X163450455Y-80188943D01*
X163620722Y-80129364D01*
X163773462Y-80033391D01*
X163836309Y-79970544D01*
X163897632Y-79937059D01*
X163923990Y-79934225D01*
X166094102Y-79934225D01*
X166161141Y-79953910D01*
X166206896Y-80006714D01*
X166216840Y-80075872D01*
X166187815Y-80139428D01*
X166181791Y-80145898D01*
X166118549Y-80209140D01*
X166078415Y-80249274D01*
X166017092Y-80282758D01*
X166004618Y-80284812D01*
X165917700Y-80294605D01*
X165747428Y-80354185D01*
X165594687Y-80450159D01*
X165467134Y-80577712D01*
X165371161Y-80730451D01*
X165311581Y-80900720D01*
X165311580Y-80900725D01*
X165291385Y-81079971D01*
X165291385Y-81079978D01*
X165311580Y-81259224D01*
X165311581Y-81259229D01*
X165371161Y-81429498D01*
X165454781Y-81562578D01*
X165467134Y-81582237D01*
X165594688Y-81709791D01*
X165685030Y-81766557D01*
X165728277Y-81793731D01*
X165747428Y-81805764D01*
X165835967Y-81836745D01*
X165917695Y-81865343D01*
X165917700Y-81865344D01*
X166096946Y-81885540D01*
X166096950Y-81885540D01*
X166096954Y-81885540D01*
X166276199Y-81865344D01*
X166276202Y-81865343D01*
X166276205Y-81865343D01*
X166446472Y-81805764D01*
X166599212Y-81709791D01*
X166726766Y-81582237D01*
X166822739Y-81429497D01*
X166882318Y-81259230D01*
X166892111Y-81172304D01*
X166919176Y-81107893D01*
X166927640Y-81098518D01*
X168667141Y-79359017D01*
X168728462Y-79325534D01*
X168798154Y-79330518D01*
X168854087Y-79372390D01*
X168859812Y-79380726D01*
X168902484Y-79448637D01*
X169030038Y-79576191D01*
X169182778Y-79672164D01*
X169340076Y-79727205D01*
X169353045Y-79731743D01*
X169353050Y-79731744D01*
X169532296Y-79751940D01*
X169532300Y-79751940D01*
X169532304Y-79751940D01*
X169711549Y-79731744D01*
X169711552Y-79731743D01*
X169711555Y-79731743D01*
X169881822Y-79672164D01*
X170034562Y-79576191D01*
X170162116Y-79448637D01*
X170258089Y-79295897D01*
X170317668Y-79125630D01*
X170323961Y-79069784D01*
X170337865Y-78946377D01*
X170337865Y-78939410D01*
X170339540Y-78939410D01*
X170350084Y-78879143D01*
X170373577Y-78846381D01*
X172122831Y-77097128D01*
X172122836Y-77097124D01*
X172133039Y-77086920D01*
X172133041Y-77086920D01*
X172244845Y-76975116D01*
X172312277Y-76858320D01*
X172323902Y-76838185D01*
X172364826Y-76685457D01*
X172364826Y-76527343D01*
X172364826Y-76519748D01*
X172364825Y-76519730D01*
X172364825Y-70823196D01*
X172384510Y-70756157D01*
X172401139Y-70735520D01*
X174319685Y-68816973D01*
X174381006Y-68783490D01*
X174393461Y-68781438D01*
X174480405Y-68771643D01*
X174650672Y-68712064D01*
X174803412Y-68616091D01*
X174930966Y-68488537D01*
X175026939Y-68335797D01*
X175086518Y-68165530D01*
X175086682Y-68164074D01*
X175106715Y-67986278D01*
X175106715Y-67986271D01*
X175086519Y-67807025D01*
X175086518Y-67807020D01*
X175078973Y-67785459D01*
X175026939Y-67636753D01*
X175020405Y-67626355D01*
X174955439Y-67522962D01*
X174930966Y-67484013D01*
X174803412Y-67356459D01*
X174789447Y-67347684D01*
X174650673Y-67260486D01*
X174480404Y-67200906D01*
X174480399Y-67200905D01*
X174301154Y-67180710D01*
X174301146Y-67180710D01*
X174121900Y-67200905D01*
X174121895Y-67200906D01*
X173951626Y-67260486D01*
X173798887Y-67356459D01*
X173671334Y-67484012D01*
X173575360Y-67636753D01*
X173515780Y-67807025D01*
X173505987Y-67893943D01*
X173478920Y-67958357D01*
X173470448Y-67967740D01*
X171931981Y-69506208D01*
X171870658Y-69539693D01*
X171800966Y-69534709D01*
X171745033Y-69492837D01*
X171720616Y-69427373D01*
X171720300Y-69418527D01*
X171720300Y-68375271D01*
X171739985Y-68308232D01*
X171756614Y-68287595D01*
X173376710Y-66667498D01*
X173438031Y-66634015D01*
X173450486Y-66631963D01*
X173537430Y-66622168D01*
X173707697Y-66562589D01*
X173860437Y-66466616D01*
X173987991Y-66339062D01*
X174083964Y-66186322D01*
X174143543Y-66016055D01*
X174144783Y-66005050D01*
X174163740Y-65836803D01*
X174163740Y-65836796D01*
X174143544Y-65657550D01*
X174143543Y-65657545D01*
X174100547Y-65534670D01*
X174083964Y-65487278D01*
X173987991Y-65334538D01*
X173860437Y-65206984D01*
X173826298Y-65185533D01*
X173707698Y-65111011D01*
X173537429Y-65051431D01*
X173537424Y-65051430D01*
X173358179Y-65031235D01*
X173358171Y-65031235D01*
X173178925Y-65051430D01*
X173178920Y-65051431D01*
X173002080Y-65113311D01*
X173001398Y-65111362D01*
X172942354Y-65121068D01*
X172878227Y-65093328D01*
X172839278Y-65035322D01*
X172837872Y-64965466D01*
X172852536Y-64932026D01*
X172858414Y-64922672D01*
X172917993Y-64752405D01*
X172917994Y-64752399D01*
X172938190Y-64573153D01*
X172938190Y-64573146D01*
X172917994Y-64393900D01*
X172916443Y-64387103D01*
X172919084Y-64386500D01*
X172916148Y-64329032D01*
X172950874Y-64268403D01*
X173012866Y-64236172D01*
X173036753Y-64233850D01*
X174413803Y-64233850D01*
X174480842Y-64253535D01*
X174501484Y-64270169D01*
X176321364Y-66090049D01*
X176321385Y-66090072D01*
X176443256Y-66211943D01*
X176442130Y-66213068D01*
X176477811Y-66261925D01*
X176485125Y-66303882D01*
X176485125Y-75947527D01*
X176465440Y-76014566D01*
X176448806Y-76035208D01*
X176051090Y-76432923D01*
X175989767Y-76466408D01*
X175977293Y-76468462D01*
X175890375Y-76478255D01*
X175720103Y-76537835D01*
X175567362Y-76633809D01*
X175439809Y-76761362D01*
X175343836Y-76914101D01*
X175284256Y-77084370D01*
X175284255Y-77084375D01*
X175264060Y-77263621D01*
X175264060Y-77263628D01*
X175284255Y-77442874D01*
X175284256Y-77442879D01*
X175343836Y-77613148D01*
X175403509Y-77708116D01*
X175439809Y-77765887D01*
X175567363Y-77893441D01*
X175627999Y-77931541D01*
X175711755Y-77984169D01*
X175720103Y-77989414D01*
X175866736Y-78040723D01*
X175890370Y-78048993D01*
X175890375Y-78048994D01*
X176069621Y-78069190D01*
X176069625Y-78069190D01*
X176069629Y-78069190D01*
X176248874Y-78048994D01*
X176248877Y-78048993D01*
X176248880Y-78048993D01*
X176419147Y-77989414D01*
X176571887Y-77893441D01*
X176635844Y-77829483D01*
X176697163Y-77796001D01*
X176766855Y-77800985D01*
X176822789Y-77842856D01*
X176847206Y-77908320D01*
X176846742Y-77931050D01*
X176832510Y-78057370D01*
X176832510Y-78057378D01*
X176852705Y-78236624D01*
X176852706Y-78236629D01*
X176912286Y-78406898D01*
X177008259Y-78559637D01*
X177135813Y-78687191D01*
X177288553Y-78783164D01*
X177341472Y-78801681D01*
X177458820Y-78842743D01*
X177458825Y-78842744D01*
X177638071Y-78862940D01*
X177638075Y-78862940D01*
X177638079Y-78862940D01*
X177817324Y-78842744D01*
X177817327Y-78842743D01*
X177817330Y-78842743D01*
X177987597Y-78783164D01*
X178140337Y-78687191D01*
X178267891Y-78559637D01*
X178363864Y-78406897D01*
X178423443Y-78236630D01*
X178423444Y-78236624D01*
X178443640Y-78057378D01*
X178443640Y-78057371D01*
X178423444Y-77878125D01*
X178423443Y-77878120D01*
X178417781Y-77861940D01*
X178363864Y-77707853D01*
X178267891Y-77555113D01*
X178267889Y-77555111D01*
X178267888Y-77555109D01*
X178265625Y-77552271D01*
X178264734Y-77550090D01*
X178264186Y-77549217D01*
X178264339Y-77549120D01*
X178239219Y-77487584D01*
X178238575Y-77474962D01*
X178238575Y-75986947D01*
X178258260Y-75919908D01*
X178311064Y-75874153D01*
X178380222Y-75864209D01*
X178443778Y-75893234D01*
X178450256Y-75899266D01*
X178572673Y-76021683D01*
X178606158Y-76083006D01*
X178608212Y-76095480D01*
X178618005Y-76182399D01*
X178677585Y-76352671D01*
X178699530Y-76387596D01*
X178773559Y-76505412D01*
X178901113Y-76632966D01*
X178963092Y-76671910D01*
X179030451Y-76714235D01*
X179053853Y-76728939D01*
X179217201Y-76786097D01*
X179224120Y-76788518D01*
X179224125Y-76788519D01*
X179403371Y-76808715D01*
X179403375Y-76808715D01*
X179403379Y-76808715D01*
X179582624Y-76788519D01*
X179582627Y-76788518D01*
X179582630Y-76788518D01*
X179752897Y-76728939D01*
X179905637Y-76632966D01*
X180033191Y-76505412D01*
X180129164Y-76352672D01*
X180188743Y-76182405D01*
X180193915Y-76136503D01*
X180208940Y-76003153D01*
X180208940Y-76003146D01*
X180188744Y-75823900D01*
X180188743Y-75823895D01*
X180159730Y-75740981D01*
X180129164Y-75653628D01*
X180116980Y-75634238D01*
X180033190Y-75500887D01*
X179905637Y-75373334D01*
X179752896Y-75277360D01*
X179582624Y-75217780D01*
X179495705Y-75207987D01*
X179431291Y-75180920D01*
X179421908Y-75172448D01*
X178868619Y-74619159D01*
X178835134Y-74557836D01*
X178832300Y-74531478D01*
X178832300Y-65265617D01*
X178832103Y-65264883D01*
X178832090Y-65264835D01*
X178820036Y-65219849D01*
X178810841Y-65185532D01*
X178791377Y-65112891D01*
X178782282Y-65097138D01*
X178712324Y-64975965D01*
X178712321Y-64975961D01*
X178712320Y-64975959D01*
X178600516Y-64864155D01*
X178600515Y-64864154D01*
X178596185Y-64859824D01*
X178596174Y-64859814D01*
X175509465Y-61773105D01*
X175509463Y-61773102D01*
X175390592Y-61654231D01*
X175390591Y-61654230D01*
X175303779Y-61604110D01*
X175303779Y-61604109D01*
X175303775Y-61604108D01*
X175253660Y-61575173D01*
X175100932Y-61534249D01*
X174942818Y-61534249D01*
X174935222Y-61534249D01*
X174935206Y-61534250D01*
X170929616Y-61534250D01*
X170892904Y-61544086D01*
X170892905Y-61544087D01*
X170776889Y-61575173D01*
X170776884Y-61575176D01*
X170639965Y-61654225D01*
X170639957Y-61654231D01*
X170561839Y-61732350D01*
X170528155Y-61766034D01*
X170528153Y-61766036D01*
X169936082Y-62358108D01*
X169370759Y-62923431D01*
X169309436Y-62956916D01*
X169283078Y-62959750D01*
X167918147Y-62959750D01*
X167851108Y-62940065D01*
X167805353Y-62887261D01*
X167794927Y-62849633D01*
X167787194Y-62781000D01*
X167787193Y-62780998D01*
X167787193Y-62780995D01*
X167727614Y-62610728D01*
X167631641Y-62457988D01*
X167504087Y-62330434D01*
X167438077Y-62288957D01*
X167351348Y-62234461D01*
X167181079Y-62174881D01*
X167181074Y-62174880D01*
X167001829Y-62154685D01*
X167001822Y-62154685D01*
X166940617Y-62161581D01*
X166871795Y-62149526D01*
X166839053Y-62126042D01*
X165358990Y-60645980D01*
X165358988Y-60645977D01*
X165240117Y-60527106D01*
X165240116Y-60527105D01*
X165153304Y-60476985D01*
X165153304Y-60476984D01*
X165153300Y-60476983D01*
X165103185Y-60448048D01*
X164950457Y-60407124D01*
X164792343Y-60407124D01*
X164784747Y-60407124D01*
X164784731Y-60407125D01*
X147212995Y-60407125D01*
X147212979Y-60407124D01*
X147205383Y-60407124D01*
X147047268Y-60407124D01*
X146979686Y-60425233D01*
X146894539Y-60448048D01*
X146894534Y-60448051D01*
X146757615Y-60527100D01*
X146757607Y-60527106D01*
X143992859Y-63291856D01*
X143931536Y-63325341D01*
X143905178Y-63328175D01*
X118117475Y-63328175D01*
X118050436Y-63308490D01*
X118029794Y-63291856D01*
X112294042Y-57556105D01*
X112294040Y-57556102D01*
X112175169Y-57437231D01*
X112175168Y-57437230D01*
X112088356Y-57387110D01*
X112088356Y-57387109D01*
X112088352Y-57387108D01*
X112038237Y-57358173D01*
X111885509Y-57317249D01*
X111727395Y-57317249D01*
X111719799Y-57317249D01*
X111719783Y-57317250D01*
X106435234Y-57317250D01*
X106435218Y-57317249D01*
X106427622Y-57317249D01*
X106269507Y-57317249D01*
X106193143Y-57337711D01*
X106116778Y-57358173D01*
X106116773Y-57358176D01*
X105979854Y-57437225D01*
X105979846Y-57437231D01*
X103540962Y-59876115D01*
X103479639Y-59909600D01*
X103409947Y-59904616D01*
X103365600Y-59876115D01*
X100789641Y-57300156D01*
X100756156Y-57238833D01*
X100757547Y-57180382D01*
X100761454Y-57165799D01*
X100791938Y-57052033D01*
X100812534Y-56816625D01*
X100791938Y-56581217D01*
X100745501Y-56407910D01*
X100730780Y-56352969D01*
X100730779Y-56352968D01*
X100730778Y-56352962D01*
X100630910Y-56138796D01*
X100586675Y-56075622D01*
X100564349Y-56009417D01*
X100581359Y-55941650D01*
X100632307Y-55893837D01*
X100688251Y-55880500D01*
X198862815Y-55880500D01*
X198929854Y-55900185D01*
X198950496Y-55916819D01*
X199579302Y-56545624D01*
X199526193Y-56567623D01*
X199415638Y-56641493D01*
X199321618Y-56735513D01*
X199247748Y-56846068D01*
X199225749Y-56899176D01*
X198611700Y-56285127D01*
X198494106Y-56477024D01*
X198494104Y-56477027D01*
X198403003Y-56696965D01*
X198403003Y-56696966D01*
X198347427Y-56928457D01*
X198328748Y-57165800D01*
X198347427Y-57403142D01*
X198403003Y-57634633D01*
X198403003Y-57634634D01*
X198494107Y-57854580D01*
X198494109Y-57854583D01*
X198611699Y-58046472D01*
X199225749Y-57432422D01*
X199247748Y-57485532D01*
X199321618Y-57596087D01*
X199415638Y-57690107D01*
X199526193Y-57763977D01*
X199579301Y-57785975D01*
X198965251Y-58400024D01*
X199157141Y-58517615D01*
X199157144Y-58517617D01*
X199377091Y-58608721D01*
X199608582Y-58664297D01*
X199845925Y-58682976D01*
X200083267Y-58664297D01*
X200314758Y-58608721D01*
X200314759Y-58608721D01*
X200534705Y-58517617D01*
X200534708Y-58517615D01*
X200726597Y-58400025D01*
X200726597Y-58400024D01*
X200112547Y-57785975D01*
X200165657Y-57763977D01*
X200276212Y-57690107D01*
X200370232Y-57596087D01*
X200444102Y-57485532D01*
X200466100Y-57432422D01*
X201054212Y-58020535D01*
X201087697Y-58081858D01*
X201086306Y-58140308D01*
X201072649Y-58191278D01*
X201072646Y-58191292D01*
X201053005Y-58415797D01*
X201053005Y-58415802D01*
X201072646Y-58640307D01*
X201072647Y-58640314D01*
X201096320Y-58728664D01*
X201130608Y-58856625D01*
X201130980Y-58858011D01*
X201142982Y-58883750D01*
X201153473Y-58952828D01*
X201124951Y-59016611D01*
X201118280Y-59023833D01*
X195871686Y-64270428D01*
X195759881Y-64382232D01*
X195759877Y-64382237D01*
X195738852Y-64418655D01*
X195709963Y-64468693D01*
X195680823Y-64519165D01*
X195639899Y-64671893D01*
X195639899Y-64671895D01*
X195639899Y-64839996D01*
X195639900Y-64840009D01*
X195639900Y-76439653D01*
X195620215Y-76506692D01*
X195603581Y-76527334D01*
X188293684Y-83837231D01*
X188232361Y-83870716D01*
X188206003Y-83873550D01*
X183185744Y-83873550D01*
X183185728Y-83873549D01*
X183178132Y-83873549D01*
X183020018Y-83873549D01*
X182914675Y-83901776D01*
X182867289Y-83914473D01*
X182818679Y-83942539D01*
X182818678Y-83942539D01*
X182730362Y-83993527D01*
X182730357Y-83993531D01*
X182618553Y-84105336D01*
X181999525Y-84724363D01*
X181964279Y-84746533D01*
X181965247Y-84748542D01*
X181958979Y-84751560D01*
X181806237Y-84847534D01*
X181678684Y-84975087D01*
X181582711Y-85127826D01*
X181523131Y-85298095D01*
X181523130Y-85298100D01*
X181502935Y-85477346D01*
X181502935Y-85477353D01*
X181523130Y-85656599D01*
X181523131Y-85656604D01*
X181582711Y-85826873D01*
X181633239Y-85907287D01*
X181678684Y-85979612D01*
X181806238Y-86107166D01*
X181876359Y-86151226D01*
X181952737Y-86199218D01*
X181958978Y-86203139D01*
X182043110Y-86232578D01*
X182129245Y-86262718D01*
X182129250Y-86262719D01*
X182308496Y-86282915D01*
X182308500Y-86282915D01*
X182308504Y-86282915D01*
X182487749Y-86262719D01*
X182487752Y-86262718D01*
X182487755Y-86262718D01*
X182658022Y-86203139D01*
X182810762Y-86107166D01*
X182938316Y-85979612D01*
X183034289Y-85826872D01*
X183066168Y-85735766D01*
X183106888Y-85678992D01*
X183171841Y-85653244D01*
X183240402Y-85666700D01*
X183290806Y-85715086D01*
X183300250Y-85735766D01*
X183309909Y-85763370D01*
X183372501Y-85862983D01*
X183405884Y-85916112D01*
X183533438Y-86043666D01*
X183623780Y-86100432D01*
X183653512Y-86119114D01*
X183686178Y-86139639D01*
X183836246Y-86192150D01*
X183856445Y-86199218D01*
X183856450Y-86199219D01*
X184035696Y-86219415D01*
X184035700Y-86219415D01*
X184035704Y-86219415D01*
X184214946Y-86199219D01*
X184214945Y-86199219D01*
X184214955Y-86199218D01*
X184215268Y-86199108D01*
X184215918Y-86198997D01*
X184221739Y-86197669D01*
X184221813Y-86197996D01*
X184256221Y-86192150D01*
X188768681Y-86192150D01*
X188768697Y-86192151D01*
X188776293Y-86192151D01*
X188934404Y-86192151D01*
X188934407Y-86192151D01*
X189087135Y-86151227D01*
X189142752Y-86119116D01*
X189224066Y-86072170D01*
X189335870Y-85960366D01*
X189335870Y-85960364D01*
X189346074Y-85950161D01*
X189346078Y-85950156D01*
X191339586Y-83956648D01*
X195401057Y-83956648D01*
X195401057Y-83956651D01*
X195420889Y-84183336D01*
X195420891Y-84183347D01*
X195479783Y-84403138D01*
X195479786Y-84403147D01*
X195575956Y-84609382D01*
X195575957Y-84609384D01*
X195706479Y-84795791D01*
X195779657Y-84868969D01*
X195813142Y-84930292D01*
X195808158Y-84999984D01*
X195779657Y-85044331D01*
X195706479Y-85117508D01*
X195575957Y-85303915D01*
X195575956Y-85303917D01*
X195479786Y-85510152D01*
X195479783Y-85510161D01*
X195420891Y-85729952D01*
X195420889Y-85729963D01*
X195401057Y-85956648D01*
X195401057Y-85956651D01*
X195420889Y-86183336D01*
X195420891Y-86183347D01*
X195479783Y-86403138D01*
X195479786Y-86403147D01*
X195575956Y-86609382D01*
X195575957Y-86609384D01*
X195706479Y-86795791D01*
X195867381Y-86956693D01*
X195868542Y-86957667D01*
X195868914Y-86958226D01*
X195871214Y-86960526D01*
X195870752Y-86960987D01*
X195907251Y-87015834D01*
X195908367Y-87085695D01*
X195871536Y-87145069D01*
X195832181Y-87168847D01*
X195714194Y-87212853D01*
X195714189Y-87212856D01*
X195598980Y-87299102D01*
X195598977Y-87299105D01*
X195512731Y-87414314D01*
X195512727Y-87414321D01*
X195462433Y-87549167D01*
X195457636Y-87593789D01*
X195456026Y-87608773D01*
X195456025Y-87608785D01*
X195456025Y-89304520D01*
X195456026Y-89304526D01*
X195462433Y-89364133D01*
X195512727Y-89498978D01*
X195512731Y-89498985D01*
X195598977Y-89614194D01*
X195598980Y-89614197D01*
X195714189Y-89700443D01*
X195714196Y-89700447D01*
X195849042Y-89750741D01*
X195849041Y-89750741D01*
X195855969Y-89751485D01*
X195908652Y-89757150D01*
X197504397Y-89757149D01*
X197564008Y-89750741D01*
X197698856Y-89700446D01*
X197814071Y-89614196D01*
X197900321Y-89498981D01*
X197950616Y-89364133D01*
X197957025Y-89304523D01*
X197957024Y-87608778D01*
X197950616Y-87549167D01*
X197946524Y-87538197D01*
X197900322Y-87414321D01*
X197900318Y-87414314D01*
X197814072Y-87299105D01*
X197814069Y-87299102D01*
X197698860Y-87212856D01*
X197698853Y-87212852D01*
X197580869Y-87168847D01*
X197524935Y-87126976D01*
X197500518Y-87061511D01*
X197515370Y-86993238D01*
X197542018Y-86960708D01*
X197541836Y-86960526D01*
X197543667Y-86958694D01*
X197544515Y-86957660D01*
X197545652Y-86956705D01*
X197545664Y-86956697D01*
X197706572Y-86795789D01*
X197837093Y-86609384D01*
X197933264Y-86403146D01*
X197992160Y-86183342D01*
X198011993Y-85956650D01*
X198011424Y-85950151D01*
X197999038Y-85808573D01*
X197992160Y-85729958D01*
X197933264Y-85510154D01*
X197837093Y-85303916D01*
X197762498Y-85197382D01*
X197706573Y-85117512D01*
X197670596Y-85081535D01*
X197633390Y-85044329D01*
X197599907Y-84983009D01*
X197604891Y-84913317D01*
X197633390Y-84868970D01*
X197706572Y-84795789D01*
X197837093Y-84609384D01*
X197933264Y-84403146D01*
X197992160Y-84183342D01*
X198011993Y-83956650D01*
X198011928Y-83955912D01*
X198003792Y-83862917D01*
X197992160Y-83729958D01*
X197933264Y-83510154D01*
X197837093Y-83303916D01*
X197706572Y-83117511D01*
X197706570Y-83117508D01*
X197545666Y-82956604D01*
X197359259Y-82826082D01*
X197359255Y-82826080D01*
X197343547Y-82818755D01*
X197291108Y-82772581D01*
X197271958Y-82705387D01*
X197292175Y-82638507D01*
X197343553Y-82593990D01*
X197359006Y-82586784D01*
X197431996Y-82535674D01*
X196815522Y-81919200D01*
X196889868Y-81899280D01*
X196998182Y-81836745D01*
X197086620Y-81748307D01*
X197149155Y-81639993D01*
X197169075Y-81565647D01*
X197785549Y-82182121D01*
X197836661Y-82109128D01*
X197932789Y-81902981D01*
X197932794Y-81902967D01*
X197991664Y-81683260D01*
X197991666Y-81683249D01*
X198011491Y-81456652D01*
X198011491Y-81456647D01*
X197991666Y-81230050D01*
X197991664Y-81230039D01*
X197932794Y-81010332D01*
X197932789Y-81010318D01*
X197836661Y-80804171D01*
X197836657Y-80804163D01*
X197785550Y-80731176D01*
X197169075Y-81347651D01*
X197149155Y-81273307D01*
X197086620Y-81164993D01*
X196998182Y-81076555D01*
X196889868Y-81014020D01*
X196815523Y-80994099D01*
X197431997Y-80377624D01*
X197359003Y-80326513D01*
X197152856Y-80230385D01*
X197152842Y-80230380D01*
X196933135Y-80171510D01*
X196933124Y-80171508D01*
X196706527Y-80151684D01*
X196706523Y-80151684D01*
X196479925Y-80171508D01*
X196479914Y-80171510D01*
X196260207Y-80230380D01*
X196260198Y-80230384D01*
X196054041Y-80326516D01*
X196054037Y-80326518D01*
X195981051Y-80377623D01*
X195981051Y-80377624D01*
X196597527Y-80994099D01*
X196523182Y-81014020D01*
X196414868Y-81076555D01*
X196326430Y-81164993D01*
X196263895Y-81273307D01*
X196243974Y-81347651D01*
X195627499Y-80731176D01*
X195627498Y-80731176D01*
X195576393Y-80804162D01*
X195576391Y-80804166D01*
X195480259Y-81010323D01*
X195480255Y-81010332D01*
X195421385Y-81230039D01*
X195421383Y-81230050D01*
X195401559Y-81456647D01*
X195401559Y-81456652D01*
X195421383Y-81683249D01*
X195421385Y-81683260D01*
X195480255Y-81902967D01*
X195480260Y-81902981D01*
X195576388Y-82109128D01*
X195627499Y-82182122D01*
X196243974Y-81565647D01*
X196263895Y-81639993D01*
X196326430Y-81748307D01*
X196414868Y-81836745D01*
X196523182Y-81899280D01*
X196597527Y-81919200D01*
X195981051Y-82535675D01*
X196054038Y-82586782D01*
X196054040Y-82586783D01*
X196069498Y-82593991D01*
X196121938Y-82640163D01*
X196141091Y-82707356D01*
X196120876Y-82774237D01*
X196069504Y-82818754D01*
X196053795Y-82826079D01*
X196053790Y-82826082D01*
X195867383Y-82956604D01*
X195706479Y-83117508D01*
X195575957Y-83303915D01*
X195575956Y-83303917D01*
X195479786Y-83510152D01*
X195479783Y-83510161D01*
X195420891Y-83729952D01*
X195420889Y-83729963D01*
X195401057Y-83956648D01*
X191339586Y-83956648D01*
X197214992Y-78081241D01*
X197276313Y-78047758D01*
X197346005Y-78052742D01*
X197401938Y-78094614D01*
X197426355Y-78160078D01*
X197426355Y-78177770D01*
X197411416Y-78386648D01*
X197411416Y-78386651D01*
X197431825Y-78672012D01*
X197492634Y-78951545D01*
X197592616Y-79219608D01*
X197729716Y-79470688D01*
X197729721Y-79470696D01*
X197836407Y-79613211D01*
X197836408Y-79613212D01*
X198444437Y-79005182D01*
X198539354Y-79135825D01*
X198667350Y-79263821D01*
X198797990Y-79358736D01*
X198189961Y-79966765D01*
X198332485Y-80073457D01*
X198332486Y-80073458D01*
X198583567Y-80210558D01*
X198583566Y-80210558D01*
X198851629Y-80310540D01*
X199131162Y-80371349D01*
X199416524Y-80391759D01*
X199416526Y-80391759D01*
X199701887Y-80371349D01*
X199981420Y-80310540D01*
X200249483Y-80210558D01*
X200500572Y-80073453D01*
X200643086Y-79966766D01*
X200643087Y-79966765D01*
X200035059Y-79358736D01*
X200165700Y-79263821D01*
X200293696Y-79135825D01*
X200388611Y-79005183D01*
X200996640Y-79613212D01*
X200996641Y-79613211D01*
X201103328Y-79470697D01*
X201240433Y-79219608D01*
X201340415Y-78951545D01*
X201401224Y-78672012D01*
X201421634Y-78386651D01*
X201421634Y-78386648D01*
X201401224Y-78101287D01*
X201340415Y-77821754D01*
X201240433Y-77553691D01*
X201103333Y-77302611D01*
X201103332Y-77302610D01*
X200996640Y-77160086D01*
X200388611Y-77768115D01*
X200293696Y-77637475D01*
X200165700Y-77509479D01*
X200035058Y-77414562D01*
X200643087Y-76806533D01*
X200643086Y-76806532D01*
X200500571Y-76699846D01*
X200500563Y-76699841D01*
X200249482Y-76562741D01*
X200249483Y-76562741D01*
X199981420Y-76462759D01*
X199701887Y-76401950D01*
X199416526Y-76381541D01*
X199416524Y-76381541D01*
X199131162Y-76401950D01*
X198851629Y-76462759D01*
X198583566Y-76562741D01*
X198332486Y-76699841D01*
X198332478Y-76699846D01*
X198189962Y-76806532D01*
X198189961Y-76806533D01*
X198797991Y-77414563D01*
X198667350Y-77509479D01*
X198539354Y-77637475D01*
X198444438Y-77768116D01*
X197836408Y-77160086D01*
X197836407Y-77160087D01*
X197729721Y-77302603D01*
X197729716Y-77302611D01*
X197702382Y-77352671D01*
X197652977Y-77402076D01*
X197584704Y-77416928D01*
X197519240Y-77392511D01*
X197477368Y-77336578D01*
X197469550Y-77293244D01*
X197469550Y-71994771D01*
X197489235Y-71927732D01*
X197505864Y-71907095D01*
X198268289Y-71144670D01*
X198329610Y-71111187D01*
X198399302Y-71116171D01*
X198455235Y-71158043D01*
X198479652Y-71223507D01*
X198479586Y-71242082D01*
X198468448Y-71383599D01*
X198487127Y-71620942D01*
X198542703Y-71852433D01*
X198542703Y-71852434D01*
X198633807Y-72072380D01*
X198633809Y-72072383D01*
X198751399Y-72264272D01*
X199365449Y-71650221D01*
X199387448Y-71703332D01*
X199461318Y-71813887D01*
X199555338Y-71907907D01*
X199665893Y-71981777D01*
X199719001Y-72003775D01*
X199104951Y-72617824D01*
X199296841Y-72735415D01*
X199296844Y-72735417D01*
X199516791Y-72826521D01*
X199748282Y-72882097D01*
X199985625Y-72900776D01*
X200222967Y-72882097D01*
X200454458Y-72826521D01*
X200454459Y-72826521D01*
X200674405Y-72735417D01*
X200674408Y-72735415D01*
X200866297Y-72617825D01*
X200866297Y-72617824D01*
X200252247Y-72003775D01*
X200305357Y-71981777D01*
X200415912Y-71907907D01*
X200509932Y-71813887D01*
X200583802Y-71703332D01*
X200605800Y-71650223D01*
X201219849Y-72264272D01*
X201219850Y-72264272D01*
X201337440Y-72072383D01*
X201337442Y-72072380D01*
X201428546Y-71852434D01*
X201428546Y-71852433D01*
X201484122Y-71620942D01*
X201502801Y-71383600D01*
X201492908Y-71257904D01*
X201507272Y-71189527D01*
X201556323Y-71139769D01*
X201624488Y-71124430D01*
X201687649Y-71146599D01*
X201839411Y-71252864D01*
X201839415Y-71252866D01*
X202043590Y-71348074D01*
X202043599Y-71348078D01*
X202261193Y-71406381D01*
X202261203Y-71406383D01*
X202485624Y-71426018D01*
X202485626Y-71426018D01*
X202710046Y-71406383D01*
X202710056Y-71406381D01*
X202927650Y-71348078D01*
X202927659Y-71348074D01*
X203131833Y-71252867D01*
X203131837Y-71252865D01*
X203202122Y-71203650D01*
X202635447Y-70636975D01*
X202688267Y-70622822D01*
X202807982Y-70553704D01*
X202905729Y-70455957D01*
X202974847Y-70336242D01*
X202989000Y-70283422D01*
X203555675Y-70850097D01*
X203604890Y-70779812D01*
X203604892Y-70779808D01*
X203700099Y-70575634D01*
X203700103Y-70575625D01*
X203758406Y-70358031D01*
X203758408Y-70358021D01*
X203778043Y-70133600D01*
X203778043Y-70133599D01*
X203758408Y-69909178D01*
X203758406Y-69909168D01*
X203700103Y-69691574D01*
X203700099Y-69691565D01*
X203604892Y-69487391D01*
X203555674Y-69417101D01*
X202988999Y-69983776D01*
X202974847Y-69930958D01*
X202905729Y-69811243D01*
X202807982Y-69713496D01*
X202688267Y-69644378D01*
X202635447Y-69630224D01*
X203202122Y-69063549D01*
X203202122Y-69063548D01*
X203131834Y-69014333D01*
X203131832Y-69014332D01*
X202927659Y-68919125D01*
X202927650Y-68919121D01*
X202710056Y-68860818D01*
X202710046Y-68860816D01*
X202485626Y-68841182D01*
X202485624Y-68841182D01*
X202261203Y-68860816D01*
X202261193Y-68860818D01*
X202043599Y-68919121D01*
X202043590Y-68919125D01*
X201839412Y-69014335D01*
X201769127Y-69063548D01*
X201769126Y-69063549D01*
X202335802Y-69630224D01*
X202282983Y-69644378D01*
X202163268Y-69713496D01*
X202065521Y-69811243D01*
X201996403Y-69930958D01*
X201982249Y-69983777D01*
X201415574Y-69417101D01*
X201415573Y-69417102D01*
X201366360Y-69487387D01*
X201271150Y-69691565D01*
X201271146Y-69691574D01*
X201212843Y-69909168D01*
X201212841Y-69909178D01*
X201193207Y-70133599D01*
X201193207Y-70133600D01*
X201212841Y-70358022D01*
X201226415Y-70408683D01*
X201224750Y-70478533D01*
X201194320Y-70528455D01*
X200605800Y-71116976D01*
X200583802Y-71063868D01*
X200509932Y-70953313D01*
X200415912Y-70859293D01*
X200305357Y-70785423D01*
X200252246Y-70763424D01*
X200866297Y-70149374D01*
X200674408Y-70031784D01*
X200674405Y-70031782D01*
X200454458Y-69940678D01*
X200222967Y-69885102D01*
X199985624Y-69866423D01*
X199844106Y-69877561D01*
X199775729Y-69863197D01*
X199725972Y-69814145D01*
X199710633Y-69745980D01*
X199734582Y-69680343D01*
X199746683Y-69666276D01*
X202454607Y-66958352D01*
X202515928Y-66924869D01*
X202531469Y-66922508D01*
X202710138Y-66906878D01*
X202927830Y-66848547D01*
X203132085Y-66753302D01*
X203316698Y-66624034D01*
X203476059Y-66464673D01*
X203605327Y-66280060D01*
X203700572Y-66075805D01*
X203758903Y-65858113D01*
X203775188Y-65671968D01*
X203778545Y-65633602D01*
X203778545Y-65633597D01*
X203765744Y-65487278D01*
X203758903Y-65409087D01*
X203700572Y-65191395D01*
X203698215Y-65186341D01*
X203638649Y-65058600D01*
X203605327Y-64987140D01*
X203476059Y-64802527D01*
X203316698Y-64643166D01*
X203190235Y-64554615D01*
X203132091Y-64513902D01*
X203132088Y-64513900D01*
X203132085Y-64513898D01*
X203120831Y-64508650D01*
X202927836Y-64418655D01*
X202927825Y-64418651D01*
X202810085Y-64387103D01*
X202766779Y-64375499D01*
X202707121Y-64339135D01*
X202676592Y-64276288D01*
X202684887Y-64206912D01*
X202729372Y-64153035D01*
X202766783Y-64135950D01*
X202787948Y-64130279D01*
X202787959Y-64130274D01*
X202992133Y-64035067D01*
X202992137Y-64035065D01*
X203062422Y-63985850D01*
X202495747Y-63419175D01*
X202548567Y-63405022D01*
X202668282Y-63335904D01*
X202766029Y-63238157D01*
X202835147Y-63118442D01*
X202849300Y-63065622D01*
X203415975Y-63632297D01*
X203465190Y-63562012D01*
X203465192Y-63562008D01*
X203560399Y-63357834D01*
X203560403Y-63357825D01*
X203618706Y-63140231D01*
X203618708Y-63140221D01*
X203638343Y-62915800D01*
X203638343Y-62915799D01*
X203618708Y-62691378D01*
X203618706Y-62691368D01*
X203560403Y-62473774D01*
X203560399Y-62473765D01*
X203465192Y-62269591D01*
X203415974Y-62199301D01*
X202849299Y-62765976D01*
X202835147Y-62713158D01*
X202766029Y-62593443D01*
X202668282Y-62495696D01*
X202548567Y-62426578D01*
X202495747Y-62412424D01*
X203062422Y-61845749D01*
X203062422Y-61845748D01*
X202992134Y-61796533D01*
X202992132Y-61796532D01*
X202787959Y-61701325D01*
X202787950Y-61701321D01*
X202570356Y-61643018D01*
X202570346Y-61643016D01*
X202345926Y-61623382D01*
X202345924Y-61623382D01*
X202121503Y-61643016D01*
X202121493Y-61643018D01*
X201903899Y-61701321D01*
X201903890Y-61701325D01*
X201699712Y-61796535D01*
X201629427Y-61845748D01*
X201629426Y-61845749D01*
X202196102Y-62412424D01*
X202143283Y-62426578D01*
X202023568Y-62495696D01*
X201925821Y-62593443D01*
X201856703Y-62713158D01*
X201842549Y-62765977D01*
X201275874Y-62199301D01*
X201275873Y-62199302D01*
X201226660Y-62269587D01*
X201131450Y-62473765D01*
X201131446Y-62473774D01*
X201073143Y-62691368D01*
X201073141Y-62691378D01*
X201053507Y-62915799D01*
X201053507Y-62915800D01*
X201073141Y-63140222D01*
X201086715Y-63190883D01*
X201085050Y-63260733D01*
X201054620Y-63310655D01*
X200466100Y-63899176D01*
X200444102Y-63846068D01*
X200370232Y-63735513D01*
X200276212Y-63641493D01*
X200165657Y-63567623D01*
X200112546Y-63545624D01*
X200726597Y-62931574D01*
X200534708Y-62813984D01*
X200534705Y-62813982D01*
X200314758Y-62722878D01*
X200083267Y-62667302D01*
X199845925Y-62648623D01*
X199608581Y-62667303D01*
X199463279Y-62702186D01*
X199393497Y-62698695D01*
X199336680Y-62658031D01*
X199310867Y-62593104D01*
X199324253Y-62524529D01*
X199346647Y-62493936D01*
X202108200Y-59732383D01*
X202169521Y-59698900D01*
X202206684Y-59696538D01*
X202322979Y-59706712D01*
X202345924Y-59708720D01*
X202345925Y-59708720D01*
X202345927Y-59708720D01*
X202402053Y-59703809D01*
X202570438Y-59689078D01*
X202788130Y-59630747D01*
X202992385Y-59535502D01*
X203176998Y-59406234D01*
X203336359Y-59246873D01*
X203465627Y-59062260D01*
X203560872Y-58858005D01*
X203619203Y-58640313D01*
X203638845Y-58415800D01*
X203619203Y-58191287D01*
X203560872Y-57973595D01*
X203465627Y-57769340D01*
X203336359Y-57584727D01*
X203176998Y-57425366D01*
X203022592Y-57317249D01*
X202992391Y-57296102D01*
X202992388Y-57296100D01*
X202992385Y-57296098D01*
X202981131Y-57290850D01*
X202788136Y-57200855D01*
X202788125Y-57200851D01*
X202570439Y-57142522D01*
X202570432Y-57142521D01*
X202345927Y-57122880D01*
X202345923Y-57122880D01*
X202121417Y-57142521D01*
X202121410Y-57142522D01*
X201903724Y-57200851D01*
X201903713Y-57200855D01*
X201699468Y-57296096D01*
X201699466Y-57296097D01*
X201669258Y-57317249D01*
X201569489Y-57387109D01*
X201548001Y-57402155D01*
X201481795Y-57424482D01*
X201414027Y-57407472D01*
X201366214Y-57356524D01*
X201353259Y-57290850D01*
X201363101Y-57165799D01*
X201344422Y-56928457D01*
X201288846Y-56696966D01*
X201288846Y-56696965D01*
X201197742Y-56477019D01*
X201197740Y-56477016D01*
X201080149Y-56285126D01*
X200466100Y-56899176D01*
X200444102Y-56846068D01*
X200370232Y-56735513D01*
X200276212Y-56641493D01*
X200165657Y-56567623D01*
X200112548Y-56545624D01*
X200741353Y-55916819D01*
X200802676Y-55883334D01*
X200829034Y-55880500D01*
X205514108Y-55880500D01*
X205573907Y-55880500D01*
X205586061Y-55881097D01*
X205587107Y-55881200D01*
X205717973Y-55894089D01*
X205741801Y-55898828D01*
X205862793Y-55935531D01*
X205885245Y-55944832D01*
X205940993Y-55974629D01*
X205996738Y-56004426D01*
X206016949Y-56017930D01*
X206114677Y-56098132D01*
X206131867Y-56115322D01*
X206212069Y-56213050D01*
X206225573Y-56233261D01*
X206285166Y-56344751D01*
X206294469Y-56367209D01*
X206331169Y-56488192D01*
X206335911Y-56512032D01*
X206348903Y-56643937D01*
X206349500Y-56656092D01*
X206349500Y-93473907D01*
X206348903Y-93486062D01*
X206335911Y-93617967D01*
X206331169Y-93641807D01*
X206294469Y-93762790D01*
X206285166Y-93785248D01*
X206225573Y-93896738D01*
X206212069Y-93916949D01*
X206131867Y-94014677D01*
X206114677Y-94031867D01*
X206016949Y-94112069D01*
X205996738Y-94125573D01*
X205885248Y-94185166D01*
X205862790Y-94194469D01*
X205741807Y-94231169D01*
X205717967Y-94235911D01*
X205622896Y-94245275D01*
X205586060Y-94248903D01*
X205573907Y-94249500D01*
X151623073Y-94249500D01*
X151590981Y-94245275D01*
X151576893Y-94241500D01*
X151576892Y-94241500D01*
X151511000Y-94241500D01*
X151384371Y-94241500D01*
X151320993Y-94250612D01*
X151133696Y-94277541D01*
X151133686Y-94277543D01*
X150890687Y-94348894D01*
X150660333Y-94454093D01*
X150660310Y-94454106D01*
X150447274Y-94591016D01*
X150447268Y-94591020D01*
X150255868Y-94756868D01*
X150090020Y-94948268D01*
X150090016Y-94948274D01*
X149953106Y-95161310D01*
X149953093Y-95161333D01*
X149847894Y-95391687D01*
X149776543Y-95634686D01*
X149776541Y-95634696D01*
X149740500Y-95885372D01*
X149740500Y-113531907D01*
X149739903Y-113544062D01*
X149726911Y-113675967D01*
X149722169Y-113699807D01*
X149685469Y-113820790D01*
X149676166Y-113843248D01*
X149616573Y-113954738D01*
X149603069Y-113974949D01*
X149522867Y-114072677D01*
X149505677Y-114089867D01*
X149407949Y-114170069D01*
X149387738Y-114183573D01*
X149276248Y-114243166D01*
X149253790Y-114252469D01*
X149132807Y-114289169D01*
X149108967Y-114293911D01*
X149011698Y-114303491D01*
X148977060Y-114306903D01*
X148964907Y-114307500D01*
X96526093Y-114307500D01*
X96513939Y-114306903D01*
X96382033Y-114293911D01*
X96358192Y-114289169D01*
X96237209Y-114252469D01*
X96214751Y-114243166D01*
X96103261Y-114183573D01*
X96083050Y-114170069D01*
X95985322Y-114089867D01*
X95968132Y-114072677D01*
X95887930Y-113974949D01*
X95874426Y-113954738D01*
X95814833Y-113843248D01*
X95805530Y-113820790D01*
X95768828Y-113699801D01*
X95764089Y-113675973D01*
X95751097Y-113544061D01*
X95750500Y-113531907D01*
X95750500Y-56715784D01*
X95750811Y-56710860D01*
X95750787Y-56705665D01*
X95750789Y-56705661D01*
X95750522Y-56645919D01*
X95751075Y-56633664D01*
X95763473Y-56503092D01*
X95768200Y-56479010D01*
X95804284Y-56359372D01*
X95813657Y-56336701D01*
X95872604Y-56226504D01*
X95886259Y-56206125D01*
X95965752Y-56109702D01*
X95983152Y-56092412D01*
X96080083Y-56013532D01*
X96100552Y-56000005D01*
X96211114Y-55941765D01*
X96233848Y-55932534D01*
X96353718Y-55897212D01*
X96377825Y-55892640D01*
X96509074Y-55881019D01*
X96521339Y-55880544D01*
X96580471Y-55881184D01*
X96580471Y-55881183D01*
X96581951Y-55881200D01*
X96593596Y-55880500D01*
X98225499Y-55880500D01*
X98292538Y-55900185D01*
G37*
%TD.AperFunction*%
%TA.AperFunction,Conductor*%
G36*
X115350092Y-78349555D02*
G01*
X115406026Y-78391427D01*
X115430443Y-78456891D01*
X115429979Y-78479620D01*
X115415310Y-78609820D01*
X115415310Y-78609828D01*
X115435505Y-78789074D01*
X115435506Y-78789079D01*
X115495086Y-78959348D01*
X115585471Y-79103194D01*
X115591059Y-79112087D01*
X115718613Y-79239641D01*
X115769211Y-79271434D01*
X115863242Y-79330518D01*
X115871353Y-79335614D01*
X116024913Y-79389347D01*
X116041620Y-79395193D01*
X116041625Y-79395194D01*
X116220871Y-79415390D01*
X116220875Y-79415390D01*
X116220879Y-79415390D01*
X116337939Y-79402200D01*
X116400130Y-79395193D01*
X116400142Y-79395188D01*
X116406779Y-79393674D01*
X116476519Y-79397937D01*
X116522069Y-79426879D01*
X124119859Y-87024670D01*
X124184434Y-87061952D01*
X124256790Y-87103727D01*
X124409518Y-87144651D01*
X124409521Y-87144651D01*
X124567631Y-87144651D01*
X124567632Y-87144651D01*
X124567633Y-87144651D01*
X124720360Y-87103727D01*
X124791539Y-87062632D01*
X124802181Y-87056488D01*
X124864181Y-87039875D01*
X128620778Y-87039875D01*
X128687817Y-87059560D01*
X128708459Y-87076194D01*
X131465406Y-89833141D01*
X131498891Y-89894464D01*
X131501725Y-89920822D01*
X131501725Y-90841712D01*
X131482040Y-90908751D01*
X131474675Y-90919021D01*
X131472411Y-90921859D01*
X131376436Y-91074601D01*
X131316856Y-91244870D01*
X131316855Y-91244875D01*
X131296660Y-91424121D01*
X131296660Y-91424128D01*
X131316855Y-91603374D01*
X131316856Y-91603379D01*
X131376436Y-91773648D01*
X131472089Y-91925878D01*
X131491089Y-91993115D01*
X131470721Y-92059950D01*
X131417453Y-92105164D01*
X131367095Y-92115850D01*
X126023749Y-92115850D01*
X125956710Y-92096165D01*
X125936068Y-92079531D01*
X125910247Y-92053710D01*
X125910224Y-92053689D01*
X122746391Y-88889856D01*
X122712906Y-88828533D01*
X122717890Y-88758841D01*
X122759762Y-88702908D01*
X122825226Y-88678491D01*
X122834072Y-88678175D01*
X127264785Y-88678175D01*
X127331824Y-88697860D01*
X127352466Y-88714494D01*
X127389913Y-88751941D01*
X127542653Y-88847914D01*
X127708588Y-88905977D01*
X127712920Y-88907493D01*
X127712925Y-88907494D01*
X127892171Y-88927690D01*
X127892175Y-88927690D01*
X127892179Y-88927690D01*
X128071424Y-88907494D01*
X128071427Y-88907493D01*
X128071430Y-88907493D01*
X128241697Y-88847914D01*
X128394437Y-88751941D01*
X128521991Y-88624387D01*
X128617964Y-88471647D01*
X128677543Y-88301380D01*
X128677544Y-88301374D01*
X128697740Y-88122128D01*
X128697740Y-88122121D01*
X128677544Y-87942875D01*
X128677543Y-87942870D01*
X128667603Y-87914464D01*
X128617964Y-87772603D01*
X128521991Y-87619863D01*
X128394437Y-87492309D01*
X128384317Y-87485950D01*
X128241698Y-87396336D01*
X128071429Y-87336756D01*
X128071424Y-87336755D01*
X127892179Y-87316560D01*
X127892171Y-87316560D01*
X127712925Y-87336755D01*
X127712920Y-87336756D01*
X127542648Y-87396337D01*
X127444247Y-87458168D01*
X127378275Y-87477175D01*
X123201172Y-87477175D01*
X123134133Y-87457490D01*
X123113491Y-87440856D01*
X116886475Y-81213840D01*
X116852990Y-81152517D01*
X116850938Y-81140061D01*
X116841143Y-81053120D01*
X116781564Y-80882853D01*
X116685591Y-80730113D01*
X116558037Y-80602559D01*
X116518495Y-80577713D01*
X116405298Y-80506586D01*
X116235029Y-80447006D01*
X116235024Y-80447005D01*
X116055779Y-80426810D01*
X116055771Y-80426810D01*
X115876525Y-80447005D01*
X115876520Y-80447006D01*
X115706251Y-80506586D01*
X115553512Y-80602559D01*
X115425959Y-80730112D01*
X115329986Y-80882851D01*
X115270406Y-81053120D01*
X115270405Y-81053125D01*
X115250210Y-81232371D01*
X115250210Y-81232378D01*
X115270405Y-81411624D01*
X115270406Y-81411629D01*
X115329986Y-81581898D01*
X115410347Y-81709791D01*
X115425959Y-81734637D01*
X115553513Y-81862191D01*
X115706253Y-81958164D01*
X115876520Y-82017743D01*
X115963444Y-82027536D01*
X116027855Y-82054601D01*
X116037240Y-82063075D01*
X121411108Y-87436943D01*
X121444593Y-87498266D01*
X121439609Y-87567958D01*
X121397737Y-87623891D01*
X121332273Y-87648308D01*
X121323427Y-87648624D01*
X121177368Y-87648624D01*
X121024640Y-87689548D01*
X121024639Y-87689548D01*
X121003312Y-87701862D01*
X120941312Y-87718475D01*
X116710142Y-87718475D01*
X116557414Y-87759398D01*
X116541467Y-87768606D01*
X116534544Y-87772603D01*
X116477514Y-87805529D01*
X116420485Y-87838454D01*
X116420482Y-87838456D01*
X112410256Y-91848683D01*
X112348933Y-91882168D01*
X112279241Y-91877184D01*
X112223308Y-91835312D01*
X112198891Y-91769848D01*
X112198575Y-91761002D01*
X112198575Y-91743272D01*
X112218260Y-91676233D01*
X112234894Y-91655591D01*
X113138451Y-90752034D01*
X114104245Y-89786241D01*
X114183302Y-89649309D01*
X114224226Y-89496582D01*
X114224226Y-89496579D01*
X114225287Y-89488523D01*
X114226188Y-89488641D01*
X114228451Y-89471452D01*
X114249792Y-89391807D01*
X114257207Y-89364133D01*
X114259150Y-89356883D01*
X114259150Y-89198768D01*
X114259150Y-79389347D01*
X114278835Y-79322308D01*
X114295469Y-79301666D01*
X114754392Y-78842743D01*
X115219080Y-78378054D01*
X115280401Y-78344571D01*
X115350092Y-78349555D01*
G37*
%TD.AperFunction*%
%TA.AperFunction,Conductor*%
G36*
X162033691Y-66260085D02*
G01*
X162079446Y-66312889D01*
X162089390Y-66382047D01*
X162060365Y-66445603D01*
X162054333Y-66452081D01*
X161375499Y-67130914D01*
X161344139Y-67151871D01*
X161344653Y-67152761D01*
X161337618Y-67156822D01*
X161337616Y-67156823D01*
X161261263Y-67200905D01*
X161200685Y-67235879D01*
X161200682Y-67235881D01*
X161088881Y-67347682D01*
X161088875Y-67347690D01*
X161009826Y-67484609D01*
X161009823Y-67484616D01*
X160968900Y-67637343D01*
X160968900Y-69683252D01*
X160949215Y-69750291D01*
X160932581Y-69770933D01*
X151901834Y-78801681D01*
X151840511Y-78835166D01*
X151814153Y-78838000D01*
X148615718Y-78838000D01*
X148462988Y-78878923D01*
X148424210Y-78901313D01*
X148424209Y-78901313D01*
X148326062Y-78957977D01*
X148326057Y-78957981D01*
X148214253Y-79069786D01*
X146458227Y-80825811D01*
X146402641Y-80857904D01*
X146370668Y-80866471D01*
X146370659Y-80866475D01*
X146320546Y-80895409D01*
X146320545Y-80895410D01*
X146310846Y-80901010D01*
X146288845Y-80913712D01*
X146226845Y-80930325D01*
X145232237Y-80930325D01*
X145165198Y-80910640D01*
X145154922Y-80903270D01*
X145152088Y-80901010D01*
X145152087Y-80901009D01*
X145049877Y-80836786D01*
X144999348Y-80805036D01*
X144829079Y-80745456D01*
X144829074Y-80745455D01*
X144649829Y-80725260D01*
X144649821Y-80725260D01*
X144470575Y-80745455D01*
X144470570Y-80745456D01*
X144300301Y-80805036D01*
X144147562Y-80901009D01*
X144020009Y-81028562D01*
X143924036Y-81181301D01*
X143864456Y-81351570D01*
X143864456Y-81351572D01*
X143844260Y-81530821D01*
X143844260Y-81530828D01*
X143864455Y-81710074D01*
X143864456Y-81710079D01*
X143924036Y-81880348D01*
X143973355Y-81958838D01*
X144020009Y-82033087D01*
X144147563Y-82160641D01*
X144263334Y-82233385D01*
X144300303Y-82256614D01*
X144312574Y-82260908D01*
X144369350Y-82301629D01*
X144395098Y-82366582D01*
X144381642Y-82435144D01*
X144333255Y-82485547D01*
X144271620Y-82501950D01*
X142535868Y-82501950D01*
X142491798Y-82491889D01*
X142491319Y-82493260D01*
X142314487Y-82431383D01*
X142314474Y-82431380D01*
X142135229Y-82411185D01*
X142135221Y-82411185D01*
X141955975Y-82431380D01*
X141955970Y-82431381D01*
X141785701Y-82490961D01*
X141632962Y-82586934D01*
X141505409Y-82714487D01*
X141409436Y-82867226D01*
X141349856Y-83037495D01*
X141349855Y-83037500D01*
X141329660Y-83216746D01*
X141329660Y-83216753D01*
X141349855Y-83395999D01*
X141349856Y-83396004D01*
X141409436Y-83566273D01*
X141473837Y-83668766D01*
X141505409Y-83719012D01*
X141632963Y-83846566D01*
X141673145Y-83871814D01*
X141779688Y-83938760D01*
X141785703Y-83942539D01*
X141930835Y-83993323D01*
X141955970Y-84002118D01*
X141955975Y-84002119D01*
X142135221Y-84022315D01*
X142135225Y-84022315D01*
X142135229Y-84022315D01*
X142314474Y-84002119D01*
X142314477Y-84002118D01*
X142314480Y-84002118D01*
X142484747Y-83942539D01*
X142637487Y-83846566D01*
X142744785Y-83739268D01*
X142806108Y-83705784D01*
X142832466Y-83702950D01*
X145642656Y-83702950D01*
X145642672Y-83702951D01*
X145650268Y-83702951D01*
X145808379Y-83702951D01*
X145808382Y-83702951D01*
X145961110Y-83662027D01*
X146011229Y-83633089D01*
X146098041Y-83582970D01*
X146209845Y-83471166D01*
X146209845Y-83471164D01*
X146220053Y-83460957D01*
X146220055Y-83460954D01*
X148569115Y-81111893D01*
X148630436Y-81078410D01*
X148700128Y-81083394D01*
X148756061Y-81125266D01*
X148775243Y-81173653D01*
X148777808Y-81173068D01*
X148779356Y-81179854D01*
X148838936Y-81350123D01*
X148888811Y-81429498D01*
X148934909Y-81502862D01*
X149062463Y-81630416D01*
X149146546Y-81683249D01*
X149210918Y-81723697D01*
X149215203Y-81726389D01*
X149385470Y-81785968D01*
X149385475Y-81785969D01*
X149564721Y-81806165D01*
X149564725Y-81806165D01*
X149564729Y-81806165D01*
X149743974Y-81785969D01*
X149743977Y-81785968D01*
X149743980Y-81785968D01*
X149914247Y-81726389D01*
X150066987Y-81630416D01*
X150079034Y-81618369D01*
X150140357Y-81584884D01*
X150166715Y-81582050D01*
X150993803Y-81582050D01*
X151060842Y-81601735D01*
X151106597Y-81654539D01*
X151116541Y-81723697D01*
X151087516Y-81787253D01*
X151081484Y-81793731D01*
X150473084Y-82402131D01*
X150411761Y-82435616D01*
X150385403Y-82438450D01*
X149950287Y-82438450D01*
X149883248Y-82418765D01*
X149872972Y-82411395D01*
X149870138Y-82409135D01*
X149870137Y-82409134D01*
X149774672Y-82349149D01*
X149717398Y-82313161D01*
X149547129Y-82253581D01*
X149547124Y-82253580D01*
X149367879Y-82233385D01*
X149367871Y-82233385D01*
X149188625Y-82253580D01*
X149188620Y-82253581D01*
X149018351Y-82313161D01*
X148865612Y-82409134D01*
X148738059Y-82536687D01*
X148642086Y-82689426D01*
X148582506Y-82859695D01*
X148582505Y-82859700D01*
X148562310Y-83038946D01*
X148562310Y-83038953D01*
X148582505Y-83218199D01*
X148582506Y-83218204D01*
X148642086Y-83388473D01*
X148687631Y-83460957D01*
X148738059Y-83541212D01*
X148865613Y-83668766D01*
X148920018Y-83702951D01*
X149014318Y-83762204D01*
X149018353Y-83764739D01*
X149033400Y-83770004D01*
X149188620Y-83824318D01*
X149188625Y-83824319D01*
X149317374Y-83838825D01*
X149381788Y-83865891D01*
X149421343Y-83923486D01*
X149423481Y-83993323D01*
X149391172Y-84049726D01*
X146711244Y-86729656D01*
X146649921Y-86763141D01*
X146623563Y-86765975D01*
X143066887Y-86765975D01*
X142999848Y-86746290D01*
X142989572Y-86738920D01*
X142986738Y-86736660D01*
X142986737Y-86736659D01*
X142906771Y-86686413D01*
X142833998Y-86640686D01*
X142663729Y-86581106D01*
X142663724Y-86581105D01*
X142484479Y-86560910D01*
X142484471Y-86560910D01*
X142305225Y-86581105D01*
X142305220Y-86581106D01*
X142134951Y-86640686D01*
X141982212Y-86736659D01*
X141854659Y-86864212D01*
X141758685Y-87016953D01*
X141699105Y-87187225D01*
X141691373Y-87255858D01*
X141664307Y-87320272D01*
X141606712Y-87359827D01*
X141568153Y-87365975D01*
X141122616Y-87365975D01*
X141122600Y-87365974D01*
X141115004Y-87365974D01*
X140956889Y-87365974D01*
X140880525Y-87386436D01*
X140804160Y-87406898D01*
X140804155Y-87406901D01*
X140667236Y-87485950D01*
X140667228Y-87485956D01*
X136073655Y-92079531D01*
X136012332Y-92113016D01*
X135985974Y-92115850D01*
X132837355Y-92115850D01*
X132770316Y-92096165D01*
X132724561Y-92043361D01*
X132714617Y-91974203D01*
X132732361Y-91925878D01*
X132789267Y-91835312D01*
X132828014Y-91773647D01*
X132887593Y-91603380D01*
X132895269Y-91535252D01*
X132907790Y-91424128D01*
X132907790Y-91424121D01*
X132887594Y-91244875D01*
X132887593Y-91244870D01*
X132886025Y-91240389D01*
X132828014Y-91074603D01*
X132732041Y-90921863D01*
X132732039Y-90921861D01*
X132732038Y-90921859D01*
X132729775Y-90919021D01*
X132728884Y-90916840D01*
X132728336Y-90915967D01*
X132728489Y-90915870D01*
X132703369Y-90854334D01*
X132702725Y-90841712D01*
X132702725Y-89851325D01*
X132706950Y-89819232D01*
X132710318Y-89806662D01*
X132731300Y-89728357D01*
X132731300Y-89570243D01*
X132730921Y-89568830D01*
X132729490Y-89563491D01*
X132718250Y-89521541D01*
X132715176Y-89510067D01*
X132690377Y-89417515D01*
X132611319Y-89280584D01*
X132499516Y-89168781D01*
X129408465Y-86077730D01*
X129408463Y-86077727D01*
X129289592Y-85958856D01*
X129289591Y-85958855D01*
X129200270Y-85907286D01*
X129152660Y-85879798D01*
X128999932Y-85838874D01*
X128841818Y-85838874D01*
X128834222Y-85838874D01*
X128834206Y-85838875D01*
X124683898Y-85838875D01*
X124616859Y-85819190D01*
X124596217Y-85802556D01*
X124345736Y-85552075D01*
X124312251Y-85490752D01*
X124317235Y-85421060D01*
X124359107Y-85365127D01*
X124424571Y-85340710D01*
X124492844Y-85355562D01*
X124499390Y-85359401D01*
X124548625Y-85390338D01*
X124718895Y-85449918D01*
X124718900Y-85449919D01*
X124898146Y-85470115D01*
X124898150Y-85470115D01*
X124898154Y-85470115D01*
X125077399Y-85449919D01*
X125077402Y-85449918D01*
X125077405Y-85449918D01*
X125247672Y-85390339D01*
X125400412Y-85294366D01*
X125527966Y-85166812D01*
X125623939Y-85014072D01*
X125683518Y-84843805D01*
X125685066Y-84830066D01*
X125703715Y-84664553D01*
X125703715Y-84664546D01*
X125683519Y-84485300D01*
X125683518Y-84485295D01*
X125623938Y-84315026D01*
X125527965Y-84162287D01*
X125400412Y-84034734D01*
X125247671Y-83938760D01*
X125077399Y-83879180D01*
X124976167Y-83867774D01*
X124911753Y-83840707D01*
X124902370Y-83832235D01*
X118669691Y-77599556D01*
X118636206Y-77538233D01*
X118641190Y-77468541D01*
X118683062Y-77412608D01*
X118748526Y-77388191D01*
X118757372Y-77387875D01*
X119607656Y-77387875D01*
X119607672Y-77387876D01*
X119615268Y-77387876D01*
X119773382Y-77387876D01*
X119775925Y-77387194D01*
X119776241Y-77387110D01*
X119778747Y-77387169D01*
X119781441Y-77386815D01*
X119781496Y-77387234D01*
X119846091Y-77388771D01*
X119896018Y-77419203D01*
X124045330Y-81568515D01*
X124078815Y-81629838D01*
X124074691Y-81697149D01*
X124055631Y-81751620D01*
X124055631Y-81751621D01*
X124035435Y-81930871D01*
X124035435Y-81930878D01*
X124055630Y-82110124D01*
X124055631Y-82110129D01*
X124115211Y-82280398D01*
X124202153Y-82418765D01*
X124211184Y-82433137D01*
X124338738Y-82560691D01*
X124491478Y-82656664D01*
X124661745Y-82716243D01*
X124661750Y-82716244D01*
X124840996Y-82736440D01*
X124841000Y-82736440D01*
X124841004Y-82736440D01*
X125020249Y-82716244D01*
X125020252Y-82716243D01*
X125020255Y-82716243D01*
X125190522Y-82656664D01*
X125343262Y-82560691D01*
X125470816Y-82433137D01*
X125566789Y-82280397D01*
X125626368Y-82110130D01*
X125630807Y-82070733D01*
X125646565Y-81930878D01*
X125646565Y-81930871D01*
X125626369Y-81751625D01*
X125626368Y-81751620D01*
X125616597Y-81723697D01*
X125566789Y-81581353D01*
X125558722Y-81568515D01*
X125471371Y-81429497D01*
X125470816Y-81428613D01*
X125451599Y-81409396D01*
X125419500Y-81353788D01*
X125418906Y-81351570D01*
X125400577Y-81283165D01*
X125360260Y-81213334D01*
X125321520Y-81146234D01*
X125209716Y-81034430D01*
X125209715Y-81034429D01*
X125205385Y-81030099D01*
X125205374Y-81030089D01*
X125034882Y-80859597D01*
X125001397Y-80798274D01*
X125006381Y-80728582D01*
X125048253Y-80672649D01*
X125113717Y-80648232D01*
X125136447Y-80648696D01*
X125152147Y-80650465D01*
X125152150Y-80650465D01*
X125152154Y-80650465D01*
X125331399Y-80630269D01*
X125331402Y-80630268D01*
X125331405Y-80630268D01*
X125501672Y-80570689D01*
X125654412Y-80474716D01*
X125781966Y-80347162D01*
X125877939Y-80194422D01*
X125937518Y-80024155D01*
X125940417Y-79998428D01*
X125957715Y-79844903D01*
X125957715Y-79844896D01*
X125937519Y-79665650D01*
X125937518Y-79665645D01*
X125919171Y-79613212D01*
X125877939Y-79495378D01*
X125781966Y-79342638D01*
X125712109Y-79272781D01*
X125678624Y-79211458D01*
X125683608Y-79141766D01*
X125725480Y-79085833D01*
X125790944Y-79061416D01*
X125799790Y-79061100D01*
X138867206Y-79061100D01*
X138867222Y-79061101D01*
X138874818Y-79061101D01*
X139032929Y-79061101D01*
X139032932Y-79061101D01*
X139185660Y-79020177D01*
X139263444Y-78975268D01*
X139322591Y-78941120D01*
X139434395Y-78829316D01*
X139434395Y-78829314D01*
X139444599Y-78819111D01*
X139444602Y-78819106D01*
X145030260Y-73233450D01*
X152544898Y-73233450D01*
X152558547Y-73389468D01*
X152563968Y-73451425D01*
X152563968Y-73451429D01*
X152620597Y-73662772D01*
X152620599Y-73662776D01*
X152620600Y-73662780D01*
X152666836Y-73761934D01*
X152713072Y-73861088D01*
X152729347Y-73884331D01*
X152838577Y-74040327D01*
X152993298Y-74195048D01*
X153172536Y-74320552D01*
X153370845Y-74413025D01*
X153582198Y-74469657D01*
X153765101Y-74485658D01*
X153800173Y-74488727D01*
X153800175Y-74488727D01*
X153800177Y-74488727D01*
X153828429Y-74486255D01*
X154018152Y-74469657D01*
X154229505Y-74413025D01*
X154427814Y-74320552D01*
X154607052Y-74195048D01*
X154761773Y-74040327D01*
X154887277Y-73861089D01*
X154979750Y-73662780D01*
X155036382Y-73451427D01*
X155055452Y-73233450D01*
X155036382Y-73015473D01*
X154994152Y-72857868D01*
X154979752Y-72804127D01*
X154979751Y-72804126D01*
X154979750Y-72804120D01*
X154887277Y-72605812D01*
X154887275Y-72605809D01*
X154887274Y-72605807D01*
X154761774Y-72426574D01*
X154757222Y-72422022D01*
X154607052Y-72271852D01*
X154427814Y-72146348D01*
X154427815Y-72146348D01*
X154427813Y-72146347D01*
X154275427Y-72075289D01*
X154229505Y-72053875D01*
X154229501Y-72053874D01*
X154229497Y-72053872D01*
X154018152Y-71997243D01*
X153800177Y-71978173D01*
X153800173Y-71978173D01*
X153654857Y-71990886D01*
X153582198Y-71997243D01*
X153582195Y-71997243D01*
X153370852Y-72053872D01*
X153370843Y-72053876D01*
X153172536Y-72146348D01*
X153172532Y-72146350D01*
X152993296Y-72271852D01*
X152838577Y-72426571D01*
X152713075Y-72605807D01*
X152713073Y-72605811D01*
X152620601Y-72804118D01*
X152620597Y-72804127D01*
X152563968Y-73015470D01*
X152563968Y-73015473D01*
X152544898Y-73233450D01*
X145030260Y-73233450D01*
X145411516Y-72852194D01*
X145472839Y-72818709D01*
X145499197Y-72815875D01*
X147449231Y-72815875D01*
X147449247Y-72815876D01*
X147456843Y-72815876D01*
X147614954Y-72815876D01*
X147614957Y-72815876D01*
X147767685Y-72774952D01*
X147857668Y-72723000D01*
X147904616Y-72695895D01*
X148016420Y-72584091D01*
X148016420Y-72584089D01*
X148026624Y-72573886D01*
X148026628Y-72573881D01*
X152334514Y-68265994D01*
X152395835Y-68232511D01*
X152465527Y-68237495D01*
X152521460Y-68279367D01*
X152545721Y-68342869D01*
X152563968Y-68551426D01*
X152563968Y-68551429D01*
X152620597Y-68762772D01*
X152620599Y-68762776D01*
X152620600Y-68762780D01*
X152665893Y-68859912D01*
X152713072Y-68961088D01*
X152713073Y-68961089D01*
X152838577Y-69140327D01*
X152993298Y-69295048D01*
X153172536Y-69420552D01*
X153370845Y-69513025D01*
X153582198Y-69569657D01*
X153765101Y-69585658D01*
X153800173Y-69588727D01*
X153800175Y-69588727D01*
X153800177Y-69588727D01*
X153828429Y-69586255D01*
X154018152Y-69569657D01*
X154229505Y-69513025D01*
X154427814Y-69420552D01*
X154607052Y-69295048D01*
X154761773Y-69140327D01*
X154887277Y-68961089D01*
X154979750Y-68762780D01*
X155036382Y-68551427D01*
X155055452Y-68333450D01*
X155055078Y-68329180D01*
X155050720Y-68279367D01*
X155036382Y-68115473D01*
X154992296Y-67950943D01*
X154979752Y-67904127D01*
X154979751Y-67904126D01*
X154979750Y-67904120D01*
X154887277Y-67705812D01*
X154887275Y-67705809D01*
X154887274Y-67705807D01*
X154761774Y-67526574D01*
X154686197Y-67450997D01*
X154607052Y-67371852D01*
X154448005Y-67260486D01*
X154427813Y-67246347D01*
X154328659Y-67200111D01*
X154229505Y-67153875D01*
X154229501Y-67153874D01*
X154229497Y-67153872D01*
X154018152Y-67097243D01*
X153809594Y-67078996D01*
X153744526Y-67053543D01*
X153703547Y-66996952D01*
X153699669Y-66927190D01*
X153732719Y-66867789D01*
X154323791Y-66276719D01*
X154385114Y-66243234D01*
X154411472Y-66240400D01*
X161966652Y-66240400D01*
X162033691Y-66260085D01*
G37*
%TD.AperFunction*%
%TA.AperFunction,Conductor*%
G36*
X152829317Y-65860085D02*
G01*
X152875072Y-65912889D01*
X152885016Y-65982047D01*
X152855991Y-66045603D01*
X152849959Y-66052081D01*
X147323484Y-71578556D01*
X147262161Y-71612041D01*
X147235803Y-71614875D01*
X145285769Y-71614875D01*
X145285753Y-71614874D01*
X145278157Y-71614874D01*
X145120043Y-71614874D01*
X145012687Y-71643640D01*
X144967310Y-71655799D01*
X144967309Y-71655800D01*
X144917196Y-71684734D01*
X144917195Y-71684735D01*
X144884984Y-71703332D01*
X144830385Y-71734854D01*
X144830382Y-71734856D01*
X144718578Y-71846661D01*
X138741459Y-77823781D01*
X138680136Y-77857266D01*
X138653778Y-77860100D01*
X125226822Y-77860100D01*
X125159783Y-77840415D01*
X125139141Y-77823781D01*
X121924990Y-74609630D01*
X121924988Y-74609627D01*
X121806117Y-74490756D01*
X121806116Y-74490755D01*
X121719304Y-74440635D01*
X121719304Y-74440634D01*
X121719300Y-74440633D01*
X121669185Y-74411698D01*
X121516457Y-74370774D01*
X121358343Y-74370774D01*
X121350747Y-74370774D01*
X121350731Y-74370775D01*
X116116402Y-74370775D01*
X116084309Y-74366550D01*
X116036333Y-74353695D01*
X115969732Y-74335849D01*
X115811618Y-74335849D01*
X115804022Y-74335849D01*
X115804006Y-74335850D01*
X115706843Y-74335850D01*
X115554115Y-74376773D01*
X115554114Y-74376773D01*
X115554112Y-74376774D01*
X115554109Y-74376775D01*
X115503996Y-74405709D01*
X115503995Y-74405710D01*
X115460589Y-74430770D01*
X115417185Y-74455829D01*
X115417182Y-74455831D01*
X115305378Y-74567636D01*
X112516256Y-77356757D01*
X112490575Y-77376463D01*
X112346962Y-77459377D01*
X112346957Y-77459381D01*
X112235156Y-77571182D01*
X112235150Y-77571190D01*
X112156101Y-77708109D01*
X112156098Y-77708116D01*
X112115175Y-77860843D01*
X112115175Y-88701502D01*
X112095490Y-88768541D01*
X112078856Y-88789183D01*
X111690712Y-89177327D01*
X111629389Y-89210812D01*
X111559697Y-89205828D01*
X111503764Y-89163956D01*
X111479347Y-89098492D01*
X111494199Y-89030219D01*
X111498038Y-89023673D01*
X111515552Y-88995801D01*
X111533289Y-88967572D01*
X111592868Y-88797305D01*
X111593783Y-88789183D01*
X111613065Y-88618053D01*
X111613065Y-88618046D01*
X111592869Y-88438800D01*
X111592868Y-88438795D01*
X111533288Y-88268526D01*
X111486131Y-88193477D01*
X111437316Y-88115788D01*
X111437314Y-88115786D01*
X111437313Y-88115784D01*
X111435050Y-88112946D01*
X111434159Y-88110765D01*
X111433611Y-88109892D01*
X111433764Y-88109795D01*
X111408644Y-88048259D01*
X111408000Y-88035637D01*
X111408000Y-79213234D01*
X111408001Y-79213221D01*
X111408001Y-79045120D01*
X111408001Y-79045118D01*
X111367077Y-78892390D01*
X111330661Y-78829316D01*
X111288020Y-78755459D01*
X111176216Y-78643655D01*
X111176215Y-78643654D01*
X111171885Y-78639324D01*
X111171874Y-78639314D01*
X103760819Y-71228259D01*
X103727334Y-71166936D01*
X103724500Y-71140578D01*
X103724500Y-71088409D01*
X103744185Y-71021370D01*
X103796989Y-70975615D01*
X103866147Y-70965671D01*
X103922812Y-70989143D01*
X103946435Y-71006827D01*
X103946438Y-71006829D01*
X104081145Y-71057071D01*
X104081152Y-71057073D01*
X104140680Y-71063474D01*
X104140697Y-71063475D01*
X104788525Y-71063475D01*
X104788525Y-70146487D01*
X104845532Y-70179400D01*
X104972699Y-70213475D01*
X105104351Y-70213475D01*
X105231518Y-70179400D01*
X105288525Y-70146487D01*
X105288525Y-71063475D01*
X105936353Y-71063475D01*
X105936369Y-71063474D01*
X105995897Y-71057073D01*
X105995904Y-71057071D01*
X106130611Y-71006829D01*
X106130618Y-71006825D01*
X106245712Y-70920665D01*
X106245715Y-70920662D01*
X106331875Y-70805568D01*
X106331879Y-70805561D01*
X106382121Y-70670854D01*
X106382123Y-70670847D01*
X106388524Y-70611319D01*
X106388525Y-70611302D01*
X106388525Y-70546758D01*
X106408210Y-70479719D01*
X106461014Y-70433964D01*
X106530172Y-70424020D01*
X106593728Y-70453045D01*
X106600206Y-70459077D01*
X106735699Y-70594570D01*
X106817932Y-70652150D01*
X106929265Y-70730107D01*
X106929267Y-70730108D01*
X106929270Y-70730110D01*
X107143437Y-70829978D01*
X107371692Y-70891138D01*
X107560018Y-70907614D01*
X107607099Y-70911734D01*
X107607100Y-70911734D01*
X107607101Y-70911734D01*
X107646334Y-70908301D01*
X107842508Y-70891138D01*
X107970857Y-70856747D01*
X108040706Y-70858410D01*
X108090631Y-70888841D01*
X108619489Y-71417699D01*
X108619499Y-71417710D01*
X108623829Y-71422040D01*
X108623830Y-71422041D01*
X108735634Y-71533845D01*
X108813078Y-71578556D01*
X108822445Y-71583964D01*
X108822447Y-71583966D01*
X108872563Y-71612901D01*
X108872565Y-71612902D01*
X109025292Y-71653825D01*
X109025293Y-71653825D01*
X119794277Y-71653825D01*
X119861316Y-71673510D01*
X119881958Y-71690144D01*
X119935209Y-71743395D01*
X119935211Y-71743396D01*
X119935215Y-71743399D01*
X120072138Y-71822451D01*
X120072144Y-71822453D01*
X120104113Y-71831019D01*
X120159703Y-71863113D01*
X122494510Y-74197920D01*
X122526603Y-74253505D01*
X122535172Y-74285483D01*
X122535175Y-74285490D01*
X122555418Y-74320551D01*
X122555419Y-74320552D01*
X122614227Y-74422412D01*
X122614229Y-74422415D01*
X122614230Y-74422416D01*
X122719005Y-74527191D01*
X122830809Y-74638995D01*
X122884455Y-74669967D01*
X122884454Y-74669967D01*
X122884457Y-74669968D01*
X122967734Y-74718049D01*
X122967735Y-74718049D01*
X122967740Y-74718052D01*
X123120467Y-74758975D01*
X123120468Y-74758975D01*
X140632506Y-74758975D01*
X140632522Y-74758976D01*
X140640118Y-74758976D01*
X140798229Y-74758976D01*
X140798232Y-74758976D01*
X140950960Y-74718052D01*
X141034245Y-74669967D01*
X141087891Y-74638995D01*
X141199695Y-74527191D01*
X141199695Y-74527189D01*
X141209899Y-74516986D01*
X141209903Y-74516981D01*
X142823685Y-72903198D01*
X142885006Y-72869715D01*
X142897461Y-72867663D01*
X142984405Y-72857868D01*
X143154672Y-72798289D01*
X143307412Y-72702316D01*
X143434966Y-72574762D01*
X143530939Y-72422022D01*
X143590518Y-72251755D01*
X143590519Y-72251749D01*
X143610715Y-72072503D01*
X143610715Y-72072496D01*
X143590519Y-71893250D01*
X143590518Y-71893245D01*
X143576237Y-71852433D01*
X143530939Y-71722978D01*
X143434966Y-71570238D01*
X143307412Y-71442684D01*
X143267649Y-71417699D01*
X143154673Y-71346711D01*
X142984404Y-71287131D01*
X142984399Y-71287130D01*
X142961708Y-71284574D01*
X142897294Y-71257508D01*
X142857738Y-71199913D01*
X142855601Y-71130076D01*
X142887908Y-71073675D01*
X148084866Y-65876719D01*
X148146189Y-65843234D01*
X148172547Y-65840400D01*
X152762278Y-65840400D01*
X152829317Y-65860085D01*
G37*
%TD.AperFunction*%
%TA.AperFunction,Conductor*%
G36*
X169846893Y-68277374D02*
G01*
X169885265Y-68335764D01*
X169890650Y-68371910D01*
X169890650Y-75334751D01*
X169870965Y-75401790D01*
X169854331Y-75422432D01*
X169645485Y-75631278D01*
X169584162Y-75664763D01*
X169514470Y-75659779D01*
X169458537Y-75617907D01*
X169452810Y-75609569D01*
X169406465Y-75535812D01*
X169278912Y-75408259D01*
X169126173Y-75312286D01*
X168955904Y-75252706D01*
X168955899Y-75252705D01*
X168776654Y-75232510D01*
X168769687Y-75232510D01*
X168769687Y-75230838D01*
X168709396Y-75220278D01*
X168676654Y-75196794D01*
X167483065Y-74003205D01*
X167483063Y-74003202D01*
X167364192Y-73884331D01*
X167364191Y-73884330D01*
X167256085Y-73821915D01*
X167256083Y-73821914D01*
X167227260Y-73805273D01*
X167227259Y-73805272D01*
X167227258Y-73805272D01*
X167171356Y-73790293D01*
X167074532Y-73764349D01*
X166916418Y-73764349D01*
X166908822Y-73764349D01*
X166908806Y-73764350D01*
X163217543Y-73764350D01*
X163064816Y-73805273D01*
X163064809Y-73805276D01*
X162927890Y-73884325D01*
X162927882Y-73884331D01*
X162816081Y-73996132D01*
X162816075Y-73996140D01*
X162737026Y-74133059D01*
X162737023Y-74133066D01*
X162696100Y-74285793D01*
X162696100Y-74448927D01*
X162676415Y-74515966D01*
X162659781Y-74536608D01*
X161899909Y-75296481D01*
X161838586Y-75329966D01*
X161812228Y-75332800D01*
X160133972Y-75332800D01*
X160066933Y-75313115D01*
X160021178Y-75260311D01*
X160011234Y-75191153D01*
X160040259Y-75127597D01*
X160046291Y-75121119D01*
X164953641Y-70213769D01*
X165014964Y-70180284D01*
X165041322Y-70177450D01*
X166226181Y-70177450D01*
X166226197Y-70177451D01*
X166233793Y-70177451D01*
X166391904Y-70177451D01*
X166391907Y-70177451D01*
X166544635Y-70136527D01*
X166613868Y-70096555D01*
X166681566Y-70057470D01*
X166793370Y-69945666D01*
X166793370Y-69945664D01*
X166803574Y-69935461D01*
X166803578Y-69935456D01*
X166979085Y-69759948D01*
X167040406Y-69726465D01*
X167052861Y-69724413D01*
X167139805Y-69714618D01*
X167310072Y-69655039D01*
X167462812Y-69559066D01*
X167536580Y-69485297D01*
X167597899Y-69451815D01*
X167667591Y-69456799D01*
X167711939Y-69485300D01*
X168020133Y-69793494D01*
X168053618Y-69854817D01*
X168049494Y-69922129D01*
X168000807Y-70061267D01*
X168000805Y-70061275D01*
X167980610Y-70240521D01*
X167980610Y-70240528D01*
X168000805Y-70419774D01*
X168000806Y-70419779D01*
X168060386Y-70590048D01*
X168151177Y-70734540D01*
X168156359Y-70742787D01*
X168283913Y-70870341D01*
X168347538Y-70910319D01*
X168435629Y-70965671D01*
X168436653Y-70966314D01*
X168463234Y-70975615D01*
X168606920Y-71025893D01*
X168606925Y-71025894D01*
X168786171Y-71046090D01*
X168786175Y-71046090D01*
X168786179Y-71046090D01*
X168965424Y-71025894D01*
X168965427Y-71025893D01*
X168965430Y-71025893D01*
X169135697Y-70966314D01*
X169288437Y-70870341D01*
X169415991Y-70742787D01*
X169511964Y-70590047D01*
X169571543Y-70419780D01*
X169571912Y-70416506D01*
X169591740Y-70240528D01*
X169591740Y-70240521D01*
X169571544Y-70061275D01*
X169571543Y-70061270D01*
X169546249Y-69988983D01*
X169511964Y-69891003D01*
X169496519Y-69866423D01*
X169449428Y-69791478D01*
X169415991Y-69738263D01*
X169415990Y-69738262D01*
X169413730Y-69735428D01*
X169412840Y-69733249D01*
X169412286Y-69732367D01*
X169412440Y-69732269D01*
X169387321Y-69670741D01*
X169386676Y-69658114D01*
X169386676Y-69631244D01*
X169386676Y-69631243D01*
X169345752Y-69478516D01*
X169328835Y-69449214D01*
X169266699Y-69341590D01*
X169266693Y-69341582D01*
X169062625Y-69137514D01*
X168785021Y-68859910D01*
X168751537Y-68798589D01*
X168756521Y-68728898D01*
X168798392Y-68672964D01*
X168863857Y-68648547D01*
X168886586Y-68649011D01*
X168998896Y-68661665D01*
X168998900Y-68661665D01*
X168998904Y-68661665D01*
X169178149Y-68641469D01*
X169178152Y-68641468D01*
X169178155Y-68641468D01*
X169348422Y-68581889D01*
X169501162Y-68485916D01*
X169628716Y-68358362D01*
X169661656Y-68305937D01*
X169713991Y-68259647D01*
X169783044Y-68248999D01*
X169846893Y-68277374D01*
G37*
%TD.AperFunction*%
%TA.AperFunction,Conductor*%
G36*
X164197017Y-62075485D02*
G01*
X164217659Y-62092119D01*
X166050164Y-63924624D01*
X166050185Y-63924647D01*
X166083407Y-63957869D01*
X166116892Y-64019192D01*
X166111908Y-64088884D01*
X166070036Y-64144817D01*
X166004572Y-64169234D01*
X165995726Y-64169550D01*
X164822258Y-64169550D01*
X164755219Y-64149865D01*
X164709464Y-64097061D01*
X164699038Y-64031667D01*
X164714940Y-63890528D01*
X164714940Y-63890521D01*
X164694744Y-63711275D01*
X164694743Y-63711270D01*
X164647929Y-63577484D01*
X164635164Y-63541003D01*
X164631807Y-63535661D01*
X164595957Y-63478605D01*
X164539191Y-63388263D01*
X164411637Y-63260709D01*
X164300510Y-63190883D01*
X164258896Y-63164735D01*
X164090713Y-63105886D01*
X164088630Y-63105157D01*
X164088629Y-63105156D01*
X164088624Y-63105155D01*
X164001706Y-63095362D01*
X163937292Y-63068295D01*
X163927909Y-63059823D01*
X163862167Y-62994081D01*
X163862159Y-62994075D01*
X163774180Y-62943281D01*
X163774179Y-62943281D01*
X163725235Y-62915023D01*
X163572507Y-62874099D01*
X163414393Y-62874099D01*
X163406797Y-62874099D01*
X163406781Y-62874100D01*
X148108344Y-62874100D01*
X148108328Y-62874099D01*
X148100732Y-62874099D01*
X147942618Y-62874099D01*
X147789890Y-62915023D01*
X147740946Y-62943281D01*
X147740945Y-62943281D01*
X147652965Y-62994075D01*
X147652957Y-62994081D01*
X147587216Y-63059823D01*
X147541155Y-63105884D01*
X147541153Y-63105886D01*
X143446133Y-67200907D01*
X139382809Y-71264231D01*
X139321486Y-71297716D01*
X139295128Y-71300550D01*
X125471297Y-71300550D01*
X125404258Y-71280865D01*
X125383616Y-71264231D01*
X122591295Y-68471910D01*
X122557810Y-68410587D01*
X122555757Y-68398121D01*
X122555740Y-68397966D01*
X122555120Y-68392468D01*
X122567170Y-68323648D01*
X122614515Y-68272266D01*
X122682124Y-68254637D01*
X122748532Y-68276359D01*
X122749463Y-68277004D01*
X122864542Y-68357583D01*
X123070698Y-68453715D01*
X123070707Y-68453719D01*
X123290414Y-68512589D01*
X123290425Y-68512591D01*
X123517023Y-68532416D01*
X123517027Y-68532416D01*
X123743624Y-68512591D01*
X123743635Y-68512589D01*
X123963342Y-68453719D01*
X123963356Y-68453714D01*
X124169503Y-68357586D01*
X124242496Y-68306474D01*
X123563472Y-67627450D01*
X123569686Y-67627450D01*
X123671419Y-67600191D01*
X123762631Y-67547530D01*
X123837105Y-67473056D01*
X123889766Y-67381844D01*
X123917025Y-67280111D01*
X123917025Y-67273897D01*
X124601222Y-67958094D01*
X124650217Y-67967941D01*
X124700400Y-68016556D01*
X124715074Y-68072082D01*
X124716124Y-68072026D01*
X124716171Y-68072021D01*
X124716171Y-68072023D01*
X124716349Y-68072014D01*
X124716526Y-68075326D01*
X124722933Y-68134933D01*
X124773227Y-68269778D01*
X124773231Y-68269785D01*
X124859477Y-68384994D01*
X124859480Y-68384997D01*
X124974689Y-68471243D01*
X124974696Y-68471247D01*
X125109542Y-68521541D01*
X125109541Y-68521541D01*
X125116469Y-68522285D01*
X125169152Y-68527950D01*
X126864897Y-68527949D01*
X126924508Y-68521541D01*
X127059356Y-68471246D01*
X127174571Y-68384996D01*
X127260821Y-68269781D01*
X127311116Y-68134933D01*
X127317525Y-68075323D01*
X127317524Y-66379578D01*
X127311116Y-66319967D01*
X127310071Y-66317166D01*
X127260822Y-66185121D01*
X127260818Y-66185114D01*
X127174572Y-66069905D01*
X127174569Y-66069902D01*
X127059360Y-65983656D01*
X127059353Y-65983652D01*
X126924507Y-65933358D01*
X126924508Y-65933358D01*
X126864908Y-65926951D01*
X126864906Y-65926950D01*
X126864898Y-65926950D01*
X126864889Y-65926950D01*
X125169154Y-65926950D01*
X125169148Y-65926951D01*
X125109541Y-65933358D01*
X124974696Y-65983652D01*
X124974689Y-65983656D01*
X124859480Y-66069902D01*
X124859477Y-66069905D01*
X124773231Y-66185114D01*
X124773227Y-66185121D01*
X124722933Y-66319967D01*
X124720448Y-66343086D01*
X124716526Y-66379573D01*
X124716347Y-66382902D01*
X124714872Y-66382822D01*
X124696840Y-66444234D01*
X124644036Y-66489989D01*
X124600547Y-66497479D01*
X123917025Y-67181001D01*
X123917025Y-67174789D01*
X123889766Y-67073056D01*
X123837105Y-66981844D01*
X123762631Y-66907370D01*
X123671419Y-66854709D01*
X123569686Y-66827450D01*
X123563473Y-66827450D01*
X124242497Y-66148424D01*
X124169503Y-66097313D01*
X123963356Y-66001185D01*
X123963342Y-66001180D01*
X123743635Y-65942310D01*
X123743624Y-65942308D01*
X123517027Y-65922484D01*
X123517023Y-65922484D01*
X123290425Y-65942308D01*
X123290414Y-65942310D01*
X123070707Y-66001180D01*
X123070698Y-66001184D01*
X122864541Y-66097316D01*
X122864537Y-66097318D01*
X122791551Y-66148423D01*
X122791551Y-66148424D01*
X123470578Y-66827450D01*
X123464364Y-66827450D01*
X123362631Y-66854709D01*
X123271419Y-66907370D01*
X123196945Y-66981844D01*
X123144284Y-67073056D01*
X123117025Y-67174789D01*
X123117025Y-67181002D01*
X122437999Y-66501976D01*
X122437998Y-66501976D01*
X122386893Y-66574962D01*
X122386891Y-66574966D01*
X122290759Y-66781123D01*
X122290755Y-66781132D01*
X122231885Y-67000839D01*
X122231883Y-67000850D01*
X122212059Y-67227447D01*
X122212059Y-67227452D01*
X122231883Y-67454049D01*
X122231885Y-67454060D01*
X122253236Y-67533742D01*
X122251573Y-67603592D01*
X122212410Y-67661454D01*
X122148182Y-67688958D01*
X122092507Y-67682877D01*
X121930982Y-67626357D01*
X121930974Y-67626355D01*
X121751729Y-67606160D01*
X121751721Y-67606160D01*
X121572475Y-67626355D01*
X121572470Y-67626356D01*
X121402201Y-67685936D01*
X121249461Y-67781910D01*
X121246628Y-67784170D01*
X121244449Y-67785059D01*
X121243567Y-67785614D01*
X121243469Y-67785459D01*
X121181942Y-67810580D01*
X121169313Y-67811225D01*
X117622697Y-67811225D01*
X117555658Y-67791540D01*
X117535016Y-67774906D01*
X115350331Y-65590221D01*
X115316846Y-65528898D01*
X115321830Y-65459206D01*
X115363702Y-65403273D01*
X115429166Y-65378856D01*
X115470100Y-65382764D01*
X115602068Y-65418125D01*
X115760182Y-65418125D01*
X135855216Y-65418125D01*
X135922255Y-65437810D01*
X135942897Y-65454444D01*
X137163093Y-66674640D01*
X137196578Y-66735963D01*
X137191594Y-66805655D01*
X137149722Y-66861588D01*
X137084258Y-66886005D01*
X137043320Y-66882096D01*
X137031526Y-66878936D01*
X137031512Y-66878933D01*
X136804915Y-66859109D01*
X136804911Y-66859109D01*
X136578313Y-66878933D01*
X136578302Y-66878935D01*
X136358595Y-66937805D01*
X136358586Y-66937809D01*
X136152429Y-67033941D01*
X136152425Y-67033943D01*
X136079439Y-67085048D01*
X136079439Y-67085049D01*
X136758466Y-67764075D01*
X136752252Y-67764075D01*
X136650519Y-67791334D01*
X136559307Y-67843995D01*
X136484833Y-67918469D01*
X136432172Y-68009681D01*
X136404913Y-68111414D01*
X136404913Y-68117627D01*
X135725887Y-67438601D01*
X135725886Y-67438601D01*
X135674781Y-67511587D01*
X135674779Y-67511591D01*
X135578647Y-67717748D01*
X135578643Y-67717757D01*
X135519773Y-67937464D01*
X135519771Y-67937475D01*
X135499947Y-68164072D01*
X135499947Y-68164077D01*
X135519771Y-68390674D01*
X135519773Y-68390685D01*
X135578643Y-68610392D01*
X135578648Y-68610406D01*
X135674776Y-68816553D01*
X135725887Y-68889547D01*
X136404913Y-68210521D01*
X136404913Y-68216736D01*
X136432172Y-68318469D01*
X136484833Y-68409681D01*
X136559307Y-68484155D01*
X136650519Y-68536816D01*
X136752252Y-68564075D01*
X136758466Y-68564075D01*
X136079439Y-69243100D01*
X136152426Y-69294207D01*
X136152434Y-69294211D01*
X136358581Y-69390339D01*
X136358595Y-69390344D01*
X136578302Y-69449214D01*
X136578313Y-69449216D01*
X136804911Y-69469041D01*
X136804915Y-69469041D01*
X137031512Y-69449216D01*
X137031523Y-69449214D01*
X137251230Y-69390344D01*
X137251244Y-69390339D01*
X137457391Y-69294211D01*
X137530384Y-69243099D01*
X136851360Y-68564075D01*
X136857574Y-68564075D01*
X136959307Y-68536816D01*
X137050519Y-68484155D01*
X137124993Y-68409681D01*
X137177654Y-68318469D01*
X137204913Y-68216736D01*
X137204913Y-68210522D01*
X137889110Y-68894719D01*
X137938105Y-68904566D01*
X137988288Y-68953181D01*
X138002962Y-69008707D01*
X138004012Y-69008651D01*
X138004059Y-69008646D01*
X138004059Y-69008648D01*
X138004237Y-69008639D01*
X138004414Y-69011951D01*
X138010821Y-69071558D01*
X138061115Y-69206403D01*
X138061119Y-69206410D01*
X138147365Y-69321619D01*
X138147368Y-69321622D01*
X138262577Y-69407868D01*
X138262584Y-69407872D01*
X138397430Y-69458166D01*
X138397429Y-69458166D01*
X138404357Y-69458910D01*
X138457040Y-69464575D01*
X140152785Y-69464574D01*
X140212396Y-69458166D01*
X140347244Y-69407871D01*
X140462459Y-69321621D01*
X140548709Y-69206406D01*
X140599004Y-69071558D01*
X140605413Y-69011948D01*
X140605412Y-67316203D01*
X140599004Y-67256592D01*
X140595183Y-67246348D01*
X140548709Y-67121744D01*
X140548706Y-67121739D01*
X140462460Y-67006530D01*
X140462457Y-67006527D01*
X140347248Y-66920281D01*
X140347241Y-66920277D01*
X140212395Y-66869983D01*
X140212396Y-66869983D01*
X140152796Y-66863576D01*
X140152794Y-66863575D01*
X140152786Y-66863575D01*
X140152778Y-66863575D01*
X139101860Y-66863575D01*
X139034821Y-66843890D01*
X139014179Y-66827256D01*
X137327779Y-65140856D01*
X137294294Y-65079533D01*
X137299278Y-65009841D01*
X137341150Y-64953908D01*
X137406614Y-64929491D01*
X137415460Y-64929175D01*
X144633541Y-64929175D01*
X144633557Y-64929176D01*
X144641153Y-64929176D01*
X144799264Y-64929176D01*
X144799267Y-64929176D01*
X144951995Y-64888252D01*
X145002114Y-64859314D01*
X145088926Y-64809195D01*
X145200730Y-64697391D01*
X145200730Y-64697389D01*
X145210938Y-64687182D01*
X145210939Y-64687179D01*
X147806001Y-62092119D01*
X147867324Y-62058634D01*
X147893682Y-62055800D01*
X164129978Y-62055800D01*
X164197017Y-62075485D01*
G37*
%TD.AperFunction*%
%TA.AperFunction,Conductor*%
G36*
X198305071Y-63638027D02*
G01*
X198361004Y-63679899D01*
X198385421Y-63745363D01*
X198382311Y-63783156D01*
X198347427Y-63928457D01*
X198328748Y-64165800D01*
X198347427Y-64403142D01*
X198403003Y-64634633D01*
X198403003Y-64634634D01*
X198494107Y-64854580D01*
X198494109Y-64854583D01*
X198611699Y-65046472D01*
X199225749Y-64432421D01*
X199247748Y-64485532D01*
X199321618Y-64596087D01*
X199358162Y-64632631D01*
X199387448Y-64703332D01*
X199461318Y-64813887D01*
X199555338Y-64907907D01*
X199665893Y-64981777D01*
X199719001Y-65003775D01*
X199104951Y-65617824D01*
X199296841Y-65735415D01*
X199296844Y-65735417D01*
X199516791Y-65826521D01*
X199748282Y-65882097D01*
X199985625Y-65900776D01*
X200222967Y-65882097D01*
X200454458Y-65826521D01*
X200454459Y-65826521D01*
X200674405Y-65735417D01*
X200674408Y-65735415D01*
X200866297Y-65617825D01*
X200866297Y-65617824D01*
X200252247Y-65003775D01*
X200305357Y-64981777D01*
X200415912Y-64907907D01*
X200509932Y-64813887D01*
X200583802Y-64703332D01*
X200605800Y-64650223D01*
X201193912Y-65238335D01*
X201227397Y-65299658D01*
X201226006Y-65358108D01*
X201212349Y-65409078D01*
X201212346Y-65409092D01*
X201192705Y-65633597D01*
X201192705Y-65633602D01*
X201212346Y-65858107D01*
X201212347Y-65858114D01*
X201270676Y-66075800D01*
X201270680Y-66075811D01*
X201351014Y-66248089D01*
X201361506Y-66317166D01*
X201332986Y-66380950D01*
X201326313Y-66388174D01*
X197052581Y-70661907D01*
X196991258Y-70695392D01*
X196921566Y-70690408D01*
X196865633Y-70648536D01*
X196841216Y-70583072D01*
X196840900Y-70574226D01*
X196840900Y-65051046D01*
X196860585Y-64984007D01*
X196877214Y-64963370D01*
X198174057Y-63666527D01*
X198235379Y-63633043D01*
X198305071Y-63638027D01*
G37*
%TD.AperFunction*%
%TA.AperFunction,Conductor*%
G36*
X112960217Y-67636260D02*
G01*
X112980859Y-67652894D01*
X115569109Y-70241144D01*
X115602594Y-70302467D01*
X115597610Y-70372159D01*
X115555738Y-70428092D01*
X115490274Y-70452509D01*
X115481428Y-70452825D01*
X109404447Y-70452825D01*
X109337408Y-70433140D01*
X109316766Y-70416506D01*
X108939866Y-70039606D01*
X108906381Y-69978283D01*
X108907772Y-69919832D01*
X108914276Y-69895558D01*
X108942163Y-69791483D01*
X108962759Y-69556075D01*
X108960999Y-69535964D01*
X108954754Y-69464575D01*
X108942163Y-69320667D01*
X108881003Y-69092412D01*
X108781135Y-68878246D01*
X108768930Y-68860816D01*
X108645596Y-68684675D01*
X108585105Y-68624184D01*
X108523667Y-68562746D01*
X108490184Y-68501426D01*
X108495168Y-68431734D01*
X108537039Y-68375800D01*
X108568015Y-68358885D01*
X108699431Y-68309871D01*
X108814646Y-68223621D01*
X108900896Y-68108406D01*
X108951191Y-67973558D01*
X108957600Y-67913948D01*
X108957600Y-67740575D01*
X108977285Y-67673536D01*
X109030089Y-67627781D01*
X109081600Y-67616575D01*
X112893178Y-67616575D01*
X112960217Y-67636260D01*
G37*
%TD.AperFunction*%
%TA.AperFunction,Conductor*%
G36*
X101024442Y-64234885D02*
G01*
X101045084Y-64251519D01*
X101426731Y-64633166D01*
X101460216Y-64694489D01*
X101463050Y-64720847D01*
X101463050Y-67780228D01*
X101443365Y-67847267D01*
X101390561Y-67893022D01*
X101321403Y-67902966D01*
X101257847Y-67873941D01*
X101251369Y-67867909D01*
X100789641Y-67406181D01*
X100756156Y-67344858D01*
X100757547Y-67286407D01*
X100766206Y-67254090D01*
X100791938Y-67158058D01*
X100812534Y-66922650D01*
X100812521Y-66922507D01*
X100800152Y-66781123D01*
X100791938Y-66687242D01*
X100730778Y-66458987D01*
X100630910Y-66244821D01*
X100627815Y-66240400D01*
X100495369Y-66051247D01*
X100462220Y-66018098D01*
X100428735Y-65956775D01*
X100433719Y-65887083D01*
X100475591Y-65831150D01*
X100521394Y-65809738D01*
X100525382Y-65808795D01*
X100660086Y-65758554D01*
X100660093Y-65758550D01*
X100775187Y-65672390D01*
X100775190Y-65672387D01*
X100861350Y-65557293D01*
X100861354Y-65557286D01*
X100911596Y-65422579D01*
X100911598Y-65422572D01*
X100917999Y-65363044D01*
X100918000Y-65363027D01*
X100918000Y-64715200D01*
X100001012Y-64715200D01*
X100033925Y-64658193D01*
X100068000Y-64531026D01*
X100068000Y-64399374D01*
X100033925Y-64272207D01*
X100001012Y-64215200D01*
X100957403Y-64215200D01*
X101024442Y-64234885D01*
G37*
%TD.AperFunction*%
%TA.AperFunction,Conductor*%
G36*
X111469792Y-65167935D02*
G01*
X111490434Y-65184569D01*
X112509759Y-66203894D01*
X112543244Y-66265217D01*
X112538260Y-66334909D01*
X112496388Y-66390842D01*
X112430924Y-66415259D01*
X112422078Y-66415575D01*
X109081599Y-66415575D01*
X109014560Y-66395890D01*
X108968805Y-66343086D01*
X108957599Y-66291575D01*
X108957599Y-66118204D01*
X108957598Y-66118198D01*
X108957597Y-66118191D01*
X108951191Y-66058592D01*
X108948452Y-66051249D01*
X108900897Y-65923746D01*
X108900893Y-65923739D01*
X108814647Y-65808530D01*
X108814644Y-65808527D01*
X108699435Y-65722281D01*
X108699430Y-65722278D01*
X108661845Y-65708260D01*
X108605912Y-65666388D01*
X108581495Y-65600924D01*
X108596347Y-65532651D01*
X108617492Y-65504403D01*
X108702745Y-65419151D01*
X108838285Y-65225580D01*
X108840957Y-65219847D01*
X108887128Y-65167408D01*
X108953341Y-65148250D01*
X111402753Y-65148250D01*
X111469792Y-65167935D01*
G37*
%TD.AperFunction*%
%TA.AperFunction,Conductor*%
G36*
X110973842Y-58937935D02*
G01*
X110994484Y-58954569D01*
X115370854Y-63330939D01*
X115404339Y-63392262D01*
X115399355Y-63461954D01*
X115357483Y-63517887D01*
X115324128Y-63535661D01*
X115204605Y-63577484D01*
X115051862Y-63673459D01*
X114924309Y-63801012D01*
X114828336Y-63953751D01*
X114768756Y-64124020D01*
X114768755Y-64124025D01*
X114748560Y-64303271D01*
X114748560Y-64303278D01*
X114768755Y-64482524D01*
X114768756Y-64482529D01*
X114828336Y-64652798D01*
X114924309Y-64805537D01*
X115051864Y-64933092D01*
X115051866Y-64933093D01*
X115056972Y-64936302D01*
X115103262Y-64988636D01*
X115110773Y-65009198D01*
X115115983Y-65028640D01*
X115114322Y-65098490D01*
X115075161Y-65156354D01*
X115010933Y-65183860D01*
X114942031Y-65172275D01*
X114908528Y-65148418D01*
X109228165Y-59468055D01*
X109228163Y-59468052D01*
X109109292Y-59349181D01*
X109109291Y-59349180D01*
X109102950Y-59345519D01*
X109076748Y-59330391D01*
X109028533Y-59279823D01*
X109014749Y-59223004D01*
X109014749Y-59042250D01*
X109034434Y-58975211D01*
X109087238Y-58929456D01*
X109138749Y-58918250D01*
X110906803Y-58918250D01*
X110973842Y-58937935D01*
G37*
%TD.AperFunction*%
%TA.AperFunction,Conductor*%
G36*
X108861441Y-60799801D02*
G01*
X111797208Y-63735568D01*
X111830693Y-63796891D01*
X111825709Y-63866583D01*
X111783837Y-63922516D01*
X111718373Y-63946933D01*
X111709527Y-63947249D01*
X111616197Y-63947249D01*
X111616181Y-63947250D01*
X108953341Y-63947250D01*
X108886302Y-63927565D01*
X108840961Y-63875659D01*
X108838287Y-63869925D01*
X108838284Y-63869920D01*
X108838283Y-63869919D01*
X108751069Y-63745363D01*
X108702744Y-63676347D01*
X108535652Y-63509256D01*
X108535646Y-63509251D01*
X108350092Y-63379325D01*
X108306467Y-63324748D01*
X108299273Y-63255250D01*
X108330796Y-63192895D01*
X108350092Y-63176175D01*
X108450475Y-63105886D01*
X108535651Y-63046245D01*
X108702745Y-62879151D01*
X108838285Y-62685580D01*
X108938153Y-62471413D01*
X108999313Y-62243158D01*
X109019909Y-62007750D01*
X108999313Y-61772342D01*
X108938153Y-61544087D01*
X108838285Y-61329921D01*
X108702745Y-61136349D01*
X108580817Y-61014421D01*
X108547334Y-60953101D01*
X108552318Y-60883409D01*
X108594189Y-60827475D01*
X108625162Y-60810561D01*
X108730429Y-60771299D01*
X108800118Y-60766316D01*
X108861441Y-60799801D01*
G37*
%TD.AperFunction*%
%TA.AperFunction,Conductor*%
G36*
X100913317Y-59126310D02*
G01*
X100933959Y-59142944D01*
X102487181Y-60696166D01*
X102520666Y-60757489D01*
X102523500Y-60783847D01*
X102523500Y-63732102D01*
X102503815Y-63799141D01*
X102451011Y-63844896D01*
X102381853Y-63854840D01*
X102318297Y-63825815D01*
X102311819Y-63819783D01*
X100900766Y-62408731D01*
X100867281Y-62347408D01*
X100868672Y-62288957D01*
X100880942Y-62243163D01*
X100903063Y-62160608D01*
X100923659Y-61925200D01*
X100903063Y-61689792D01*
X100841903Y-61461537D01*
X100742035Y-61247371D01*
X100607320Y-61054976D01*
X100606494Y-61053797D01*
X100435573Y-60882877D01*
X100436723Y-60881726D01*
X100402136Y-60829739D01*
X100401028Y-60759878D01*
X100437865Y-60700508D01*
X100477212Y-60676740D01*
X100548959Y-60649980D01*
X100548968Y-60649975D01*
X100664062Y-60563815D01*
X100664065Y-60563812D01*
X100750225Y-60448718D01*
X100750229Y-60448711D01*
X100800471Y-60314004D01*
X100800473Y-60313997D01*
X100806874Y-60254469D01*
X100806875Y-60254452D01*
X100806875Y-59606625D01*
X99889887Y-59606625D01*
X99922800Y-59549618D01*
X99956875Y-59422451D01*
X99956875Y-59290799D01*
X99922800Y-59163632D01*
X99889887Y-59106625D01*
X100846278Y-59106625D01*
X100913317Y-59126310D01*
G37*
%TD.AperFunction*%
%TD*%
M02*
